G04 Layer_Physical_Order=2*
G04 Layer_Color=16711680*
%FSLAX25Y25*%
%MOIN*%
G70*
G01*
G75*
%ADD13C,0.01600*%
%ADD14C,0.01000*%
%ADD15C,0.10000*%
%ADD16C,0.06500*%
%ADD17R,0.06500X0.06500*%
%ADD18C,0.05118*%
%ADD19R,0.05118X0.05118*%
%ADD20R,0.05118X0.05118*%
%ADD21C,0.04016*%
%ADD22C,0.19685*%
%ADD23C,0.08858*%
%ADD24C,0.02000*%
G36*
X460630Y-11811D02*
X-11811D01*
Y303150D01*
X460630D01*
Y-11811D01*
D02*
G37*
%LPC*%
G36*
X429518Y40400D02*
X424891D01*
X424978Y39732D01*
X425525Y38412D01*
X426396Y37277D01*
X427530Y36407D01*
X428851Y35860D01*
X429518Y35772D01*
Y40400D01*
D02*
G37*
G36*
X39370Y44918D02*
X37934Y44728D01*
X36596Y44174D01*
X35447Y43293D01*
X34566Y42144D01*
X34012Y40806D01*
X33823Y39370D01*
X34012Y37934D01*
X34566Y36596D01*
X35447Y35447D01*
X36596Y34566D01*
X37934Y34012D01*
X39370Y33823D01*
X40806Y34012D01*
X42144Y34566D01*
X43293Y35447D01*
X44174Y36596D01*
X44728Y37934D01*
X44918Y39370D01*
X44728Y40806D01*
X44174Y42144D01*
X43293Y43293D01*
X42144Y44174D01*
X40806Y44728D01*
X39370Y44918D01*
D02*
G37*
G36*
X435645Y40400D02*
X431018D01*
Y35772D01*
X431685Y35860D01*
X433006Y36407D01*
X434140Y37277D01*
X435010Y38412D01*
X435557Y39732D01*
X435645Y40400D01*
D02*
G37*
G36*
X429518Y46527D02*
X428851Y46439D01*
X427530Y45892D01*
X426396Y45022D01*
X425525Y43888D01*
X424978Y42567D01*
X424891Y41900D01*
X429518D01*
Y46527D01*
D02*
G37*
G36*
X406646Y46121D02*
X405359Y45952D01*
X404160Y45455D01*
X403130Y44665D01*
X402340Y43635D01*
X401843Y42436D01*
X401674Y41150D01*
X401843Y39863D01*
X402340Y38664D01*
X403130Y37634D01*
X404160Y36844D01*
X405359Y36347D01*
X406646Y36178D01*
X407933Y36347D01*
X409131Y36844D01*
X410161Y37634D01*
X410951Y38664D01*
X411448Y39863D01*
X411617Y41150D01*
X411448Y42436D01*
X410951Y43635D01*
X410161Y44665D01*
X409131Y45455D01*
X407933Y45952D01*
X406646Y46121D01*
D02*
G37*
G36*
X29577Y22872D02*
X24372D01*
Y17667D01*
X24798Y17709D01*
X25929Y18052D01*
X26972Y18609D01*
X27885Y19359D01*
X28635Y20272D01*
X29192Y21315D01*
X29535Y22446D01*
X29577Y22872D01*
D02*
G37*
G36*
X22872D02*
X17667D01*
X17709Y22446D01*
X18052Y21315D01*
X18609Y20272D01*
X19359Y19359D01*
X20272Y18609D01*
X21315Y18052D01*
X22446Y17709D01*
X22872Y17667D01*
Y22872D01*
D02*
G37*
G36*
X370079Y29169D02*
X368643Y28980D01*
X367305Y28426D01*
X366156Y27545D01*
X365275Y26396D01*
X364720Y25058D01*
X364531Y23622D01*
X364720Y22186D01*
X365275Y20848D01*
X366156Y19699D01*
X367305Y18818D01*
X368643Y18264D01*
X370079Y18075D01*
X371515Y18264D01*
X372852Y18818D01*
X374001Y19699D01*
X374883Y20848D01*
X375437Y22186D01*
X375626Y23622D01*
X375437Y25058D01*
X374883Y26396D01*
X374001Y27545D01*
X372852Y28426D01*
X371515Y28980D01*
X370079Y29169D01*
D02*
G37*
G36*
X24372Y29577D02*
Y24372D01*
X29577D01*
X29535Y24798D01*
X29192Y25929D01*
X28635Y26972D01*
X27885Y27885D01*
X26972Y28635D01*
X25929Y29192D01*
X24798Y29535D01*
X24372Y29577D01*
D02*
G37*
G36*
X22872D02*
X22446Y29535D01*
X21315Y29192D01*
X20272Y28635D01*
X19359Y27885D01*
X18609Y26972D01*
X18052Y25929D01*
X17709Y24798D01*
X17667Y24372D01*
X22872D01*
Y29577D01*
D02*
G37*
G36*
X431018Y46527D02*
Y41900D01*
X435645D01*
X435557Y42567D01*
X435010Y43888D01*
X434140Y45022D01*
X433006Y45892D01*
X431685Y46439D01*
X431018Y46527D01*
D02*
G37*
G36*
X39370Y103973D02*
X37934Y103784D01*
X36596Y103229D01*
X35447Y102348D01*
X34566Y101199D01*
X34012Y99861D01*
X33823Y98425D01*
X34012Y96989D01*
X34566Y95652D01*
X35447Y94503D01*
X36596Y93621D01*
X37934Y93067D01*
X39370Y92878D01*
X40806Y93067D01*
X42144Y93621D01*
X43293Y94503D01*
X44174Y95652D01*
X44728Y96989D01*
X44918Y98425D01*
X44728Y99861D01*
X44174Y101199D01*
X43293Y102348D01*
X42144Y103229D01*
X40806Y103784D01*
X39370Y103973D01*
D02*
G37*
G36*
X218500Y88429D02*
X217915Y88313D01*
X217419Y87981D01*
X217087Y87485D01*
X216971Y86900D01*
X217087Y86315D01*
X216886Y86011D01*
X215985Y85513D01*
X215400Y85629D01*
X214815Y85513D01*
X213689Y85902D01*
X213584Y86271D01*
X213613Y86315D01*
X213729Y86900D01*
X213613Y87485D01*
X213281Y87981D01*
X212785Y88313D01*
X212200Y88429D01*
X211615Y88313D01*
X211119Y87981D01*
X210787Y87485D01*
X210671Y86900D01*
X210787Y86315D01*
X210678Y86052D01*
X209685Y85513D01*
X209100Y85629D01*
X208515Y85513D01*
X208019Y85181D01*
X207687Y84685D01*
X207571Y84100D01*
X207687Y83515D01*
X208019Y83019D01*
X208080Y82977D01*
Y81900D01*
X207140Y81500D01*
X206842D01*
X204382Y83960D01*
X204429Y84200D01*
X204313Y84785D01*
X203981Y85281D01*
X203485Y85613D01*
X202900Y85729D01*
X202315Y85613D01*
X202121Y85484D01*
X201187Y85689D01*
X200978Y85824D01*
X200888Y86128D01*
X201013Y86315D01*
X201129Y86900D01*
X201013Y87485D01*
X200681Y87981D01*
X200185Y88313D01*
X199600Y88429D01*
X199015Y88313D01*
X198519Y87981D01*
X198187Y87485D01*
X198071Y86900D01*
X198187Y86315D01*
X198078Y86052D01*
X197085Y85513D01*
X196500Y85629D01*
X195915Y85513D01*
X194789Y85902D01*
X194684Y86271D01*
X194713Y86315D01*
X194829Y86900D01*
X194713Y87485D01*
X194381Y87981D01*
X193885Y88313D01*
X193300Y88429D01*
X192715Y88313D01*
X192219Y87981D01*
X191887Y87485D01*
X191771Y86900D01*
X191887Y86315D01*
X191778Y86052D01*
X190785Y85513D01*
X190200Y85629D01*
X189615Y85513D01*
X188489Y85902D01*
X188384Y86271D01*
X188413Y86315D01*
X188529Y86900D01*
X188413Y87485D01*
X188081Y87981D01*
X187585Y88313D01*
X187000Y88429D01*
X186415Y88313D01*
X185919Y87981D01*
X185587Y87485D01*
X185471Y86900D01*
X185587Y86315D01*
X185478Y86052D01*
X184485Y85513D01*
X183900Y85629D01*
X183315Y85513D01*
X182189Y85902D01*
X182084Y86271D01*
X182113Y86315D01*
X182229Y86900D01*
X182113Y87485D01*
X181781Y87981D01*
X181285Y88313D01*
X180700Y88429D01*
X180115Y88313D01*
X179619Y87981D01*
X179287Y87485D01*
X179171Y86900D01*
X179287Y86315D01*
X179178Y86052D01*
X178185Y85513D01*
X177600Y85629D01*
X177015Y85513D01*
X175889Y85902D01*
X175784Y86271D01*
X175813Y86315D01*
X175929Y86900D01*
X175813Y87485D01*
X175481Y87981D01*
X174985Y88313D01*
X174400Y88429D01*
X173815Y88313D01*
X173319Y87981D01*
X172987Y87485D01*
X172871Y86900D01*
X172987Y86315D01*
X172878Y86052D01*
X171885Y85513D01*
X171300Y85629D01*
X170715Y85513D01*
X169589Y85902D01*
X169484Y86271D01*
X169513Y86315D01*
X169629Y86900D01*
X169513Y87485D01*
X169181Y87981D01*
X168685Y88313D01*
X168100Y88429D01*
X167515Y88313D01*
X167019Y87981D01*
X166687Y87485D01*
X166571Y86900D01*
X166687Y86315D01*
X166716Y86271D01*
X166611Y85902D01*
X165485Y85513D01*
X164900Y85629D01*
X164315Y85513D01*
X163382Y86093D01*
X163332Y86186D01*
X163313Y86315D01*
X163429Y86900D01*
X163313Y87485D01*
X162981Y87981D01*
X162485Y88313D01*
X161900Y88429D01*
X161315Y88313D01*
X160819Y87981D01*
X160487Y87485D01*
X160371Y86900D01*
X160487Y86315D01*
X160516Y86271D01*
X160411Y85902D01*
X159285Y85513D01*
X158700Y85629D01*
X158115Y85513D01*
X157122Y86052D01*
X157013Y86315D01*
X157129Y86900D01*
X157013Y87485D01*
X156681Y87981D01*
X156185Y88313D01*
X155600Y88429D01*
X155015Y88313D01*
X154519Y87981D01*
X154187Y87485D01*
X154071Y86900D01*
X154187Y86315D01*
X154216Y86271D01*
X154111Y85902D01*
X152985Y85513D01*
X152400Y85629D01*
X151815Y85513D01*
X150822Y86052D01*
X150713Y86315D01*
X150829Y86900D01*
X150713Y87485D01*
X150381Y87981D01*
X149885Y88313D01*
X149300Y88429D01*
X148715Y88313D01*
X148219Y87981D01*
X147887Y87485D01*
X147771Y86900D01*
X147887Y86315D01*
X147916Y86271D01*
X147811Y85902D01*
X146685Y85513D01*
X146100Y85629D01*
X145515Y85513D01*
X144389Y85902D01*
X144284Y86271D01*
X144313Y86315D01*
X144429Y86900D01*
X144313Y87485D01*
X143981Y87981D01*
X143485Y88313D01*
X142900Y88429D01*
X142315Y88313D01*
X141819Y87981D01*
X141487Y87485D01*
X141371Y86900D01*
X141487Y86315D01*
X141378Y86052D01*
X140385Y85513D01*
X139800Y85629D01*
X139215Y85513D01*
X138089Y85902D01*
X137984Y86271D01*
X138013Y86315D01*
X138129Y86900D01*
X138013Y87485D01*
X137681Y87981D01*
X137185Y88313D01*
X136600Y88429D01*
X136015Y88313D01*
X135519Y87981D01*
X135187Y87485D01*
X135071Y86900D01*
X135187Y86315D01*
X135078Y86052D01*
X134085Y85513D01*
X133500Y85629D01*
X132915Y85513D01*
X131789Y85902D01*
X131684Y86271D01*
X131713Y86315D01*
X131829Y86900D01*
X131713Y87485D01*
X131381Y87981D01*
X130885Y88313D01*
X130300Y88429D01*
X129715Y88313D01*
X129219Y87981D01*
X128887Y87485D01*
X128771Y86900D01*
X128887Y86315D01*
X128934Y86245D01*
X128826Y85848D01*
X127692Y85494D01*
X127664Y85513D01*
X127079Y85629D01*
X126493Y85513D01*
X125561Y86093D01*
X125511Y86186D01*
X125492Y86315D01*
X125608Y86900D01*
X125492Y87485D01*
X125160Y87981D01*
X124664Y88313D01*
X124079Y88429D01*
X123493Y88313D01*
X122997Y87981D01*
X122666Y87485D01*
X122549Y86900D01*
X122666Y86315D01*
X122695Y86271D01*
X122590Y85902D01*
X121464Y85513D01*
X120879Y85629D01*
X120293Y85513D01*
X119300Y86052D01*
X119192Y86315D01*
X119308Y86900D01*
X119192Y87485D01*
X118860Y87981D01*
X118364Y88313D01*
X117779Y88429D01*
X117193Y88313D01*
X116697Y87981D01*
X116366Y87485D01*
X116249Y86900D01*
X116366Y86315D01*
X116395Y86271D01*
X116290Y85902D01*
X115164Y85513D01*
X114579Y85629D01*
X113993Y85513D01*
X113000Y86052D01*
X112892Y86315D01*
X113008Y86900D01*
X112892Y87485D01*
X112560Y87981D01*
X112064Y88313D01*
X111479Y88429D01*
X110893Y88313D01*
X110397Y87981D01*
X110066Y87485D01*
X109949Y86900D01*
X110066Y86315D01*
X110095Y86271D01*
X109990Y85902D01*
X108864Y85513D01*
X108279Y85629D01*
X107693Y85513D01*
X107197Y85181D01*
X106866Y84685D01*
X106749Y84100D01*
X106866Y83515D01*
X107197Y83019D01*
X107259Y82977D01*
Y78201D01*
X89179Y60121D01*
X88958Y59790D01*
X88880Y59400D01*
Y55380D01*
X42000Y8500D01*
X42000Y8500D01*
X41479Y7979D01*
X41293Y7793D01*
X41000Y7500D01*
X40330Y6942D01*
X40093Y6927D01*
X39370Y7023D01*
X38572Y6917D01*
X37827Y6609D01*
X37188Y6119D01*
X36698Y5480D01*
X36390Y4736D01*
X36285Y3937D01*
X36390Y3138D01*
X36698Y2394D01*
X37188Y1755D01*
X37827Y1265D01*
X38572Y957D01*
X39370Y852D01*
X40169Y957D01*
X40913Y1265D01*
X41042Y1364D01*
X42025Y989D01*
X42103Y569D01*
X42070Y204D01*
X40692Y-1173D01*
X40169Y-957D01*
X39370Y-852D01*
X38572Y-957D01*
X37827Y-1265D01*
X37188Y-1755D01*
X36698Y-2394D01*
X36390Y-3138D01*
X36285Y-3937D01*
X36390Y-4736D01*
X36698Y-5480D01*
X37188Y-6119D01*
X37827Y-6609D01*
X38572Y-6917D01*
X39370Y-7023D01*
X40169Y-6917D01*
X40913Y-6609D01*
X41552Y-6119D01*
X42042Y-5480D01*
X42350Y-4736D01*
X42456Y-3937D01*
X42350Y-3138D01*
X42134Y-2615D01*
X44021Y-728D01*
X44242Y-397D01*
X44320Y-7D01*
Y1117D01*
X44475Y1250D01*
X45320Y1558D01*
X45701Y1265D01*
X46446Y957D01*
X47244Y852D01*
X48043Y957D01*
X48787Y1265D01*
X48961Y1398D01*
X49946Y1045D01*
X49982Y884D01*
X49963Y224D01*
X48566Y-1173D01*
X48043Y-957D01*
X47244Y-852D01*
X46446Y-957D01*
X45701Y-1265D01*
X45062Y-1755D01*
X44572Y-2394D01*
X44264Y-3138D01*
X44159Y-3937D01*
X44264Y-4736D01*
X44572Y-5480D01*
X45062Y-6119D01*
X45701Y-6609D01*
X46446Y-6917D01*
X47244Y-7023D01*
X48043Y-6917D01*
X48787Y-6609D01*
X49426Y-6119D01*
X49916Y-5480D01*
X50224Y-4736D01*
X50330Y-3937D01*
X50224Y-3138D01*
X50008Y-2615D01*
X51921Y-702D01*
X52142Y-371D01*
X52220Y19D01*
Y1102D01*
X52309Y1184D01*
X53220Y1538D01*
X53575Y1265D01*
X54320Y957D01*
X55118Y852D01*
X55917Y957D01*
X56661Y1265D01*
X56879Y1433D01*
X56986Y1414D01*
X57830Y1037D01*
X57856Y243D01*
X56440Y-1173D01*
X55917Y-957D01*
X55118Y-852D01*
X54320Y-957D01*
X53575Y-1265D01*
X52936Y-1755D01*
X52446Y-2394D01*
X52138Y-3138D01*
X52033Y-3937D01*
X52138Y-4736D01*
X52446Y-5480D01*
X52936Y-6119D01*
X53575Y-6609D01*
X54320Y-6917D01*
X55118Y-7023D01*
X55917Y-6917D01*
X56661Y-6609D01*
X57300Y-6119D01*
X57790Y-5480D01*
X58099Y-4736D01*
X58204Y-3937D01*
X58099Y-3138D01*
X57882Y-2615D01*
X59821Y-676D01*
X60042Y-345D01*
X60120Y45D01*
Y1087D01*
X60150Y1116D01*
X61120Y1518D01*
X61449Y1265D01*
X62194Y957D01*
X62992Y852D01*
X63791Y957D01*
X64535Y1265D01*
X64626Y1335D01*
X65608Y943D01*
X65699Y359D01*
X65674Y187D01*
X64314Y-1173D01*
X63791Y-957D01*
X62992Y-852D01*
X62194Y-957D01*
X61449Y-1265D01*
X60810Y-1755D01*
X60320Y-2394D01*
X60012Y-3138D01*
X59907Y-3937D01*
X60012Y-4736D01*
X60320Y-5480D01*
X60810Y-6119D01*
X61449Y-6609D01*
X62194Y-6917D01*
X62992Y-7023D01*
X63791Y-6917D01*
X64535Y-6609D01*
X65174Y-6119D01*
X65664Y-5480D01*
X65973Y-4736D01*
X66078Y-3937D01*
X65973Y-3138D01*
X65756Y-2615D01*
X67621Y-750D01*
X67842Y-419D01*
X67920Y-29D01*
Y1130D01*
X68135Y1306D01*
X68920Y1575D01*
X69323Y1265D01*
X70068Y957D01*
X70866Y852D01*
X71665Y957D01*
X72409Y1265D01*
X72545Y1369D01*
X73528Y998D01*
X73602Y612D01*
X73569Y207D01*
X72188Y-1173D01*
X71665Y-957D01*
X70866Y-852D01*
X70068Y-957D01*
X69323Y-1265D01*
X68684Y-1755D01*
X68194Y-2394D01*
X67886Y-3138D01*
X67781Y-3937D01*
X67886Y-4736D01*
X68194Y-5480D01*
X68684Y-6119D01*
X69323Y-6609D01*
X70068Y-6917D01*
X70866Y-7023D01*
X71665Y-6917D01*
X72409Y-6609D01*
X73048Y-6119D01*
X73538Y-5480D01*
X73847Y-4736D01*
X73952Y-3937D01*
X73847Y-3138D01*
X73630Y-2615D01*
X75521Y-724D01*
X75742Y-393D01*
X75820Y-3D01*
Y1115D01*
X75964Y1240D01*
X76820Y1555D01*
X77197Y1265D01*
X77942Y957D01*
X78740Y852D01*
X79539Y957D01*
X80283Y1265D01*
X80464Y1404D01*
X81449Y1054D01*
X81476Y938D01*
X81462Y227D01*
X80062Y-1173D01*
X79539Y-957D01*
X78740Y-852D01*
X77942Y-957D01*
X77197Y-1265D01*
X76558Y-1755D01*
X76068Y-2394D01*
X75760Y-3138D01*
X75655Y-3937D01*
X75760Y-4736D01*
X76068Y-5480D01*
X76558Y-6119D01*
X77197Y-6609D01*
X77942Y-6917D01*
X78740Y-7023D01*
X79539Y-6917D01*
X80283Y-6609D01*
X80922Y-6119D01*
X81412Y-5480D01*
X81721Y-4736D01*
X81826Y-3937D01*
X81721Y-3138D01*
X81504Y-2615D01*
X83421Y-698D01*
X83642Y-367D01*
X83720Y23D01*
Y1100D01*
X83800Y1174D01*
X84720Y1535D01*
X85071Y1265D01*
X85816Y957D01*
X86614Y852D01*
X87413Y957D01*
X88157Y1265D01*
X88210Y1306D01*
X89191Y897D01*
X89284Y197D01*
X89278Y169D01*
X87936Y-1173D01*
X87413Y-957D01*
X86614Y-852D01*
X85816Y-957D01*
X85071Y-1265D01*
X84432Y-1755D01*
X83942Y-2394D01*
X83634Y-3138D01*
X83529Y-3937D01*
X83634Y-4736D01*
X83942Y-5480D01*
X84432Y-6119D01*
X85071Y-6609D01*
X85816Y-6917D01*
X86614Y-7023D01*
X87413Y-6917D01*
X88157Y-6609D01*
X88796Y-6119D01*
X89286Y-5480D01*
X89595Y-4736D01*
X89700Y-3937D01*
X89595Y-3138D01*
X89378Y-2615D01*
X91221Y-772D01*
X91442Y-441D01*
X91520Y-51D01*
Y1143D01*
X91799Y1360D01*
X92520Y1592D01*
X92945Y1265D01*
X93690Y957D01*
X94488Y852D01*
X95287Y957D01*
X96031Y1265D01*
X96129Y1340D01*
X97111Y951D01*
X97201Y393D01*
X97174Y190D01*
X95810Y-1173D01*
X95287Y-957D01*
X94488Y-852D01*
X93690Y-957D01*
X92945Y-1265D01*
X92307Y-1755D01*
X91816Y-2394D01*
X91508Y-3138D01*
X91403Y-3937D01*
X91508Y-4736D01*
X91816Y-5480D01*
X92307Y-6119D01*
X92945Y-6609D01*
X93690Y-6917D01*
X94488Y-7023D01*
X95287Y-6917D01*
X96031Y-6609D01*
X96670Y-6119D01*
X97160Y-5480D01*
X97469Y-4736D01*
X97574Y-3937D01*
X97469Y-3138D01*
X97252Y-2615D01*
X99121Y-746D01*
X99342Y-415D01*
X99420Y-25D01*
Y1128D01*
X99624Y1296D01*
X100420Y1572D01*
X100820Y1265D01*
X101564Y957D01*
X102362Y852D01*
X103161Y957D01*
X103905Y1265D01*
X104048Y1374D01*
X105031Y1006D01*
X105100Y657D01*
X105068Y210D01*
X103684Y-1173D01*
X103161Y-957D01*
X102362Y-852D01*
X101564Y-957D01*
X100820Y-1265D01*
X100180Y-1755D01*
X99690Y-2394D01*
X99382Y-3138D01*
X99277Y-3937D01*
X99382Y-4736D01*
X99690Y-5480D01*
X100180Y-6119D01*
X100820Y-6609D01*
X101564Y-6917D01*
X102362Y-7023D01*
X103161Y-6917D01*
X103905Y-6609D01*
X104544Y-6119D01*
X105034Y-5480D01*
X105342Y-4736D01*
X105448Y-3937D01*
X105342Y-3138D01*
X105126Y-2615D01*
X107021Y-720D01*
X107242Y-389D01*
X107320Y1D01*
Y1113D01*
X107454Y1230D01*
X108320Y1552D01*
X108694Y1265D01*
X109438Y957D01*
X110236Y852D01*
X111035Y957D01*
X111779Y1265D01*
X111966Y1409D01*
X112952Y1063D01*
X112969Y994D01*
X112961Y230D01*
X111558Y-1173D01*
X111035Y-957D01*
X110236Y-852D01*
X109438Y-957D01*
X108694Y-1265D01*
X108054Y-1755D01*
X107564Y-2394D01*
X107256Y-3138D01*
X107151Y-3937D01*
X107256Y-4736D01*
X107564Y-5480D01*
X108054Y-6119D01*
X108694Y-6609D01*
X109438Y-6917D01*
X110236Y-7023D01*
X111035Y-6917D01*
X111779Y-6609D01*
X112418Y-6119D01*
X112908Y-5480D01*
X113217Y-4736D01*
X113322Y-3937D01*
X113217Y-3138D01*
X113000Y-2615D01*
X114921Y-694D01*
X115142Y-363D01*
X115220Y27D01*
Y409D01*
X116220Y902D01*
X116315Y828D01*
X117181Y470D01*
X117360Y446D01*
Y3937D01*
X118860D01*
Y446D01*
X119039Y470D01*
X119336Y593D01*
X120411Y70D01*
X120446Y17D01*
X120472Y-134D01*
X119432Y-1173D01*
X118909Y-957D01*
X118110Y-852D01*
X117312Y-957D01*
X116568Y-1265D01*
X115928Y-1755D01*
X115438Y-2394D01*
X115130Y-3138D01*
X115025Y-3937D01*
X115130Y-4736D01*
X115438Y-5480D01*
X115928Y-6119D01*
X116568Y-6609D01*
X117312Y-6917D01*
X118110Y-7023D01*
X118909Y-6917D01*
X119653Y-6609D01*
X120292Y-6119D01*
X120782Y-5480D01*
X121091Y-4736D01*
X121196Y-3937D01*
X121091Y-3138D01*
X120874Y-2615D01*
X122821Y-668D01*
X123042Y-337D01*
X123120Y53D01*
Y1083D01*
X123133Y1096D01*
X124120Y1512D01*
X124442Y1265D01*
X125186Y957D01*
X125984Y852D01*
X126783Y957D01*
X127527Y1265D01*
X127632Y1345D01*
X128614Y959D01*
X128702Y428D01*
X128673Y193D01*
X127306Y-1173D01*
X126783Y-957D01*
X125984Y-852D01*
X125186Y-957D01*
X124442Y-1265D01*
X123802Y-1755D01*
X123312Y-2394D01*
X123004Y-3138D01*
X122899Y-3937D01*
X123004Y-4736D01*
X123312Y-5480D01*
X123802Y-6119D01*
X124442Y-6609D01*
X125186Y-6917D01*
X125984Y-7023D01*
X126783Y-6917D01*
X127527Y-6609D01*
X128166Y-6119D01*
X128656Y-5480D01*
X128965Y-4736D01*
X129070Y-3937D01*
X128965Y-3138D01*
X128748Y-2615D01*
X130621Y-742D01*
X130842Y-411D01*
X130920Y-21D01*
Y1125D01*
X131113Y1286D01*
X131920Y1569D01*
X132316Y1265D01*
X133060Y957D01*
X133858Y852D01*
X134657Y957D01*
X135401Y1265D01*
X135550Y1380D01*
X136535Y1015D01*
X136598Y703D01*
X136567Y213D01*
X135180Y-1173D01*
X134657Y-957D01*
X133858Y-852D01*
X133060Y-957D01*
X132316Y-1265D01*
X131676Y-1755D01*
X131186Y-2394D01*
X130878Y-3138D01*
X130773Y-3937D01*
X130878Y-4736D01*
X131186Y-5480D01*
X131676Y-6119D01*
X132316Y-6609D01*
X133060Y-6917D01*
X133858Y-7023D01*
X134657Y-6917D01*
X135401Y-6609D01*
X136040Y-6119D01*
X136530Y-5480D01*
X136839Y-4736D01*
X136944Y-3937D01*
X136839Y-3138D01*
X136622Y-2615D01*
X138521Y-716D01*
X138742Y-386D01*
X138820Y5D01*
Y1111D01*
X138944Y1220D01*
X139820Y1549D01*
X140190Y1265D01*
X140934Y957D01*
X141732Y852D01*
X142531Y957D01*
X143275Y1265D01*
X143469Y1414D01*
X144456Y1071D01*
X144461Y1052D01*
X144460Y233D01*
X143054Y-1173D01*
X142531Y-957D01*
X141732Y-852D01*
X140934Y-957D01*
X140190Y-1265D01*
X139551Y-1755D01*
X139060Y-2394D01*
X138752Y-3138D01*
X138647Y-3937D01*
X138752Y-4736D01*
X139060Y-5480D01*
X139551Y-6119D01*
X140190Y-6609D01*
X140934Y-6917D01*
X141732Y-7023D01*
X142531Y-6917D01*
X143275Y-6609D01*
X143914Y-6119D01*
X144404Y-5480D01*
X144713Y-4736D01*
X144818Y-3937D01*
X144713Y-3138D01*
X144496Y-2615D01*
X146421Y-690D01*
X146642Y-359D01*
X146720Y31D01*
Y1096D01*
X146781Y1153D01*
X147720Y1529D01*
X148064Y1265D01*
X148808Y957D01*
X149606Y852D01*
X150405Y957D01*
X151149Y1265D01*
X151216Y1316D01*
X152197Y913D01*
X152290Y250D01*
X152277Y175D01*
X150928Y-1173D01*
X150405Y-957D01*
X149606Y-852D01*
X148808Y-957D01*
X148064Y-1265D01*
X147425Y-1755D01*
X146934Y-2394D01*
X146626Y-3138D01*
X146521Y-3937D01*
X146626Y-4736D01*
X146934Y-5480D01*
X147425Y-6119D01*
X148064Y-6609D01*
X148808Y-6917D01*
X149606Y-7023D01*
X150405Y-6917D01*
X151149Y-6609D01*
X151788Y-6119D01*
X152278Y-5480D01*
X152587Y-4736D01*
X152692Y-3937D01*
X152587Y-3138D01*
X152370Y-2615D01*
X154221Y-764D01*
X154442Y-434D01*
X154520Y-43D01*
Y1138D01*
X154776Y1341D01*
X155520Y1586D01*
X155938Y1265D01*
X156682Y957D01*
X157480Y852D01*
X158279Y957D01*
X159023Y1265D01*
X159134Y1350D01*
X160117Y967D01*
X160203Y465D01*
X160172Y197D01*
X158802Y-1173D01*
X158279Y-957D01*
X157480Y-852D01*
X156682Y-957D01*
X155938Y-1265D01*
X155299Y-1755D01*
X154808Y-2394D01*
X154500Y-3138D01*
X154395Y-3937D01*
X154500Y-4736D01*
X154808Y-5480D01*
X155299Y-6119D01*
X155938Y-6609D01*
X156682Y-6917D01*
X157480Y-7023D01*
X158279Y-6917D01*
X159023Y-6609D01*
X159662Y-6119D01*
X160152Y-5480D01*
X160461Y-4736D01*
X160566Y-3937D01*
X160461Y-3138D01*
X160244Y-2615D01*
X162121Y-738D01*
X162342Y-408D01*
X162420Y-17D01*
Y1123D01*
X162602Y1276D01*
X163420Y1566D01*
X163812Y1265D01*
X164556Y957D01*
X165354Y852D01*
X166153Y957D01*
X166897Y1265D01*
X167053Y1385D01*
X168038Y1023D01*
X168094Y751D01*
X168066Y216D01*
X166676Y-1173D01*
X166153Y-957D01*
X165354Y-852D01*
X164556Y-957D01*
X163812Y-1265D01*
X163173Y-1755D01*
X162682Y-2394D01*
X162374Y-3138D01*
X162269Y-3937D01*
X162374Y-4736D01*
X162682Y-5480D01*
X163173Y-6119D01*
X163812Y-6609D01*
X164556Y-6917D01*
X165354Y-7023D01*
X166153Y-6917D01*
X166897Y-6609D01*
X167536Y-6119D01*
X168026Y-5480D01*
X168335Y-4736D01*
X168440Y-3937D01*
X168335Y-3138D01*
X168118Y-2615D01*
X170021Y-712D01*
X170242Y-381D01*
X170320Y9D01*
Y878D01*
X175187D01*
X175601Y-122D01*
X174550Y-1173D01*
X174027Y-957D01*
X173228Y-852D01*
X172430Y-957D01*
X171686Y-1265D01*
X171047Y-1755D01*
X170556Y-2394D01*
X170248Y-3138D01*
X170143Y-3937D01*
X170248Y-4736D01*
X170556Y-5480D01*
X171047Y-6119D01*
X171686Y-6609D01*
X172430Y-6917D01*
X173228Y-7023D01*
X174027Y-6917D01*
X174771Y-6609D01*
X175410Y-6119D01*
X175900Y-5480D01*
X176209Y-4736D01*
X176314Y-3937D01*
X176209Y-3138D01*
X175992Y-2615D01*
X178221Y-386D01*
X178442Y-56D01*
X178520Y335D01*
Y7500D01*
X191846Y7500D01*
X201961Y-2615D01*
X201744Y-3138D01*
X201639Y-3937D01*
X201744Y-4736D01*
X202052Y-5480D01*
X202543Y-6119D01*
X203182Y-6609D01*
X203926Y-6917D01*
X204724Y-7023D01*
X205523Y-6917D01*
X206267Y-6609D01*
X206906Y-6119D01*
X207397Y-5480D01*
X207705Y-4736D01*
X207810Y-3937D01*
X207705Y-3138D01*
X207397Y-2394D01*
X206906Y-1755D01*
X206267Y-1265D01*
X205523Y-957D01*
X204724Y-852D01*
X203926Y-957D01*
X203403Y-1173D01*
X195653Y6576D01*
X196036Y7500D01*
X202766D01*
X202985Y7030D01*
X203040Y6500D01*
X202543Y6119D01*
X202052Y5480D01*
X201744Y4736D01*
X201639Y3937D01*
X201744Y3138D01*
X202052Y2394D01*
X202543Y1755D01*
X203182Y1265D01*
X203926Y957D01*
X204724Y852D01*
X205523Y957D01*
X206267Y1265D01*
X206680Y1582D01*
X207438Y1329D01*
X207680Y1135D01*
Y-39D01*
X207758Y-429D01*
X207979Y-759D01*
X209835Y-2615D01*
X209618Y-3138D01*
X209513Y-3937D01*
X209618Y-4736D01*
X209926Y-5480D01*
X210417Y-6119D01*
X211056Y-6609D01*
X211800Y-6917D01*
X212598Y-7023D01*
X213397Y-6917D01*
X214141Y-6609D01*
X214780Y-6119D01*
X215270Y-5480D01*
X215579Y-4736D01*
X215684Y-3937D01*
X215579Y-3138D01*
X215270Y-2394D01*
X214780Y-1755D01*
X214141Y-1265D01*
X213397Y-957D01*
X212598Y-852D01*
X211800Y-957D01*
X211277Y-1173D01*
X209924Y179D01*
X209906Y285D01*
X209999Y923D01*
X210981Y1322D01*
X211056Y1265D01*
X211800Y957D01*
X212598Y852D01*
X213397Y957D01*
X214141Y1265D01*
X214480Y1525D01*
X215429Y1141D01*
X215480Y1093D01*
Y35D01*
X215558Y-355D01*
X215779Y-685D01*
X217709Y-2615D01*
X217492Y-3138D01*
X217387Y-3937D01*
X217492Y-4736D01*
X217800Y-5480D01*
X218291Y-6119D01*
X218930Y-6609D01*
X219674Y-6917D01*
X220473Y-7023D01*
X221271Y-6917D01*
X222015Y-6609D01*
X222654Y-6119D01*
X223145Y-5480D01*
X223453Y-4736D01*
X223558Y-3937D01*
X223453Y-3138D01*
X223145Y-2394D01*
X222654Y-1755D01*
X222015Y-1265D01*
X221271Y-957D01*
X220473Y-852D01*
X219674Y-957D01*
X219151Y-1173D01*
X218127Y-150D01*
X218154Y12D01*
X218179Y50D01*
X219263Y586D01*
X219543Y470D01*
X219723Y446D01*
Y3937D01*
X221222D01*
Y446D01*
X221402Y470D01*
X222267Y828D01*
X222380Y915D01*
X223380Y422D01*
Y10D01*
X223458Y-381D01*
X223679Y-711D01*
X225583Y-2615D01*
X225366Y-3138D01*
X225261Y-3937D01*
X225366Y-4736D01*
X225674Y-5480D01*
X226165Y-6119D01*
X226804Y-6609D01*
X227548Y-6917D01*
X228346Y-7023D01*
X229145Y-6917D01*
X229889Y-6609D01*
X230528Y-6119D01*
X231019Y-5480D01*
X231327Y-4736D01*
X231432Y-3937D01*
X231327Y-3138D01*
X231019Y-2394D01*
X230528Y-1755D01*
X229889Y-1265D01*
X229145Y-957D01*
X228346Y-852D01*
X227548Y-957D01*
X227025Y-1173D01*
X225634Y217D01*
X225606Y761D01*
X225662Y1025D01*
X226646Y1386D01*
X226804Y1265D01*
X227548Y957D01*
X228346Y852D01*
X229145Y957D01*
X229889Y1265D01*
X230180Y1488D01*
X231180Y1037D01*
Y84D01*
X231258Y-307D01*
X231479Y-637D01*
X233457Y-2615D01*
X233240Y-3138D01*
X233135Y-3937D01*
X233240Y-4736D01*
X233548Y-5480D01*
X234039Y-6119D01*
X234678Y-6609D01*
X235422Y-6917D01*
X236221Y-7023D01*
X237019Y-6917D01*
X237763Y-6609D01*
X238402Y-6119D01*
X238893Y-5480D01*
X239201Y-4736D01*
X239306Y-3937D01*
X239201Y-3138D01*
X238893Y-2394D01*
X238402Y-1755D01*
X237763Y-1265D01*
X237019Y-957D01*
X236221Y-852D01*
X235422Y-957D01*
X234899Y-1173D01*
X233442Y283D01*
X233489Y1034D01*
X234476Y1420D01*
X234678Y1265D01*
X235422Y957D01*
X236221Y852D01*
X237019Y957D01*
X237763Y1265D01*
X238180Y1585D01*
X238927Y1339D01*
X239180Y1138D01*
Y-43D01*
X239258Y-433D01*
X239479Y-764D01*
X241331Y-2615D01*
X241114Y-3138D01*
X241009Y-3937D01*
X241114Y-4736D01*
X241422Y-5480D01*
X241913Y-6119D01*
X242552Y-6609D01*
X243296Y-6917D01*
X244094Y-7023D01*
X244893Y-6917D01*
X245637Y-6609D01*
X246276Y-6119D01*
X246767Y-5480D01*
X247075Y-4736D01*
X247180Y-3937D01*
X247075Y-3138D01*
X246767Y-2394D01*
X246276Y-1755D01*
X245637Y-1265D01*
X244893Y-957D01*
X244094Y-852D01*
X243296Y-957D01*
X242773Y-1173D01*
X241423Y176D01*
X241409Y256D01*
X241502Y915D01*
X242484Y1317D01*
X242552Y1265D01*
X243296Y957D01*
X244094Y852D01*
X244893Y957D01*
X245637Y1265D01*
X245980Y1528D01*
X246920Y1151D01*
X246980Y1095D01*
Y32D01*
X247058Y-359D01*
X247279Y-689D01*
X249205Y-2615D01*
X248988Y-3138D01*
X248883Y-3937D01*
X248988Y-4736D01*
X249296Y-5480D01*
X249787Y-6119D01*
X250426Y-6609D01*
X251170Y-6917D01*
X251969Y-7023D01*
X252767Y-6917D01*
X253511Y-6609D01*
X254150Y-6119D01*
X254641Y-5480D01*
X254949Y-4736D01*
X255054Y-3937D01*
X254949Y-3138D01*
X254641Y-2394D01*
X254150Y-1755D01*
X253511Y-1265D01*
X252767Y-957D01*
X251969Y-852D01*
X251170Y-957D01*
X250647Y-1173D01*
X249240Y233D01*
X249241Y1064D01*
X249243Y1073D01*
X250230Y1415D01*
X250426Y1265D01*
X251170Y957D01*
X251969Y852D01*
X252767Y957D01*
X253511Y1265D01*
X253880Y1548D01*
X254758Y1218D01*
X254880Y1110D01*
Y6D01*
X254958Y-385D01*
X255179Y-715D01*
X257079Y-2615D01*
X256862Y-3138D01*
X256757Y-3937D01*
X256862Y-4736D01*
X257170Y-5480D01*
X257661Y-6119D01*
X258300Y-6609D01*
X259044Y-6917D01*
X259842Y-7023D01*
X260641Y-6917D01*
X261385Y-6609D01*
X262024Y-6119D01*
X262515Y-5480D01*
X262823Y-4736D01*
X262928Y-3937D01*
X262823Y-3138D01*
X262515Y-2394D01*
X262024Y-1755D01*
X261385Y-1265D01*
X260641Y-957D01*
X259842Y-852D01*
X259044Y-957D01*
X258521Y-1173D01*
X257133Y214D01*
X257103Y713D01*
X257165Y1016D01*
X258149Y1381D01*
X258300Y1265D01*
X259044Y957D01*
X259842Y852D01*
X260641Y957D01*
X261385Y1265D01*
X261780Y1568D01*
X262589Y1284D01*
X262780Y1125D01*
Y-21D01*
X262858Y-411D01*
X263079Y-741D01*
X264953Y-2615D01*
X264736Y-3138D01*
X264631Y-3937D01*
X264736Y-4736D01*
X265044Y-5480D01*
X265535Y-6119D01*
X266174Y-6609D01*
X266918Y-6917D01*
X267717Y-7023D01*
X268515Y-6917D01*
X269259Y-6609D01*
X269898Y-6119D01*
X270389Y-5480D01*
X270697Y-4736D01*
X270802Y-3937D01*
X270697Y-3138D01*
X270389Y-2394D01*
X269898Y-1755D01*
X269259Y-1265D01*
X268515Y-957D01*
X267717Y-852D01*
X266918Y-957D01*
X266395Y-1173D01*
X265027Y194D01*
X264998Y436D01*
X265085Y961D01*
X266068Y1346D01*
X266174Y1265D01*
X266918Y957D01*
X267717Y852D01*
X268515Y957D01*
X269259Y1265D01*
X269680Y1588D01*
X270415Y1349D01*
X270680Y1140D01*
Y-46D01*
X270758Y-437D01*
X270979Y-767D01*
X272827Y-2615D01*
X272610Y-3138D01*
X272505Y-3937D01*
X272610Y-4736D01*
X272919Y-5480D01*
X273409Y-6119D01*
X274048Y-6609D01*
X274792Y-6917D01*
X275591Y-7023D01*
X276389Y-6917D01*
X277133Y-6609D01*
X277772Y-6119D01*
X278263Y-5480D01*
X278571Y-4736D01*
X278676Y-3937D01*
X278571Y-3138D01*
X278263Y-2394D01*
X277772Y-1755D01*
X277133Y-1265D01*
X276389Y-957D01*
X275591Y-852D01*
X274792Y-957D01*
X274269Y-1173D01*
X272922Y173D01*
X272912Y228D01*
X273005Y907D01*
X273987Y1312D01*
X274048Y1265D01*
X274792Y957D01*
X275591Y852D01*
X276389Y957D01*
X277133Y1265D01*
X277480Y1531D01*
X278411Y1161D01*
X278480Y1097D01*
Y28D01*
X278558Y-363D01*
X278779Y-693D01*
X280701Y-2615D01*
X280484Y-3138D01*
X280379Y-3937D01*
X280484Y-4736D01*
X280792Y-5480D01*
X281283Y-6119D01*
X281922Y-6609D01*
X282666Y-6917D01*
X283465Y-7023D01*
X284263Y-6917D01*
X285007Y-6609D01*
X285646Y-6119D01*
X286137Y-5480D01*
X286445Y-4736D01*
X286550Y-3937D01*
X286445Y-3138D01*
X286137Y-2394D01*
X285646Y-1755D01*
X285007Y-1265D01*
X284263Y-957D01*
X283465Y-852D01*
X282666Y-957D01*
X282143Y-1173D01*
X280739Y230D01*
X280733Y1006D01*
X280747Y1064D01*
X281733Y1410D01*
X281922Y1265D01*
X282666Y957D01*
X283465Y852D01*
X284263Y957D01*
X285007Y1265D01*
X285380Y1551D01*
X286248Y1228D01*
X286380Y1112D01*
Y2D01*
X286458Y-389D01*
X286679Y-719D01*
X288575Y-2615D01*
X288358Y-3138D01*
X288253Y-3937D01*
X288358Y-4736D01*
X288667Y-5480D01*
X289157Y-6119D01*
X289796Y-6609D01*
X290540Y-6917D01*
X291339Y-7023D01*
X292137Y-6917D01*
X292881Y-6609D01*
X293520Y-6119D01*
X294011Y-5480D01*
X294319Y-4736D01*
X294424Y-3937D01*
X294319Y-3138D01*
X294011Y-2394D01*
X293520Y-1755D01*
X292881Y-1265D01*
X292137Y-957D01*
X291339Y-852D01*
X290540Y-957D01*
X290017Y-1173D01*
X288632Y211D01*
X288600Y666D01*
X288668Y1008D01*
X289652Y1376D01*
X289796Y1265D01*
X290540Y957D01*
X291339Y852D01*
X292137Y957D01*
X292881Y1265D01*
X293280Y1571D01*
X294078Y1294D01*
X294280Y1127D01*
Y-24D01*
X294358Y-415D01*
X294579Y-745D01*
X296449Y-2615D01*
X296232Y-3138D01*
X296127Y-3937D01*
X296232Y-4736D01*
X296540Y-5480D01*
X297031Y-6119D01*
X297670Y-6609D01*
X298414Y-6917D01*
X299213Y-7023D01*
X300011Y-6917D01*
X300755Y-6609D01*
X301394Y-6119D01*
X301885Y-5480D01*
X302193Y-4736D01*
X302298Y-3937D01*
X302193Y-3138D01*
X301885Y-2394D01*
X301394Y-1755D01*
X300755Y-1265D01*
X300011Y-957D01*
X299213Y-852D01*
X298414Y-957D01*
X297891Y-1173D01*
X296527Y191D01*
X296499Y400D01*
X296588Y952D01*
X297571Y1341D01*
X297670Y1265D01*
X298414Y957D01*
X299213Y852D01*
X300011Y957D01*
X300755Y1265D01*
X301394Y1755D01*
X301885Y2394D01*
X302193Y3138D01*
X302298Y3937D01*
X302193Y4736D01*
X301885Y5480D01*
X301394Y6119D01*
X300898Y6500D01*
X300952Y7030D01*
X301171Y7500D01*
X305128D01*
X305347Y7030D01*
X305402Y6500D01*
X304905Y6119D01*
X304415Y5480D01*
X304106Y4736D01*
X304001Y3937D01*
X304106Y3138D01*
X304415Y2394D01*
X304905Y1755D01*
X305544Y1265D01*
X306288Y957D01*
X307087Y852D01*
X307885Y957D01*
X308629Y1265D01*
X308980Y1534D01*
X309902Y1172D01*
X309980Y1099D01*
Y24D01*
X310058Y-367D01*
X310073Y-482D01*
X309179Y-1057D01*
X308881Y-828D01*
X308016Y-470D01*
X307837Y-446D01*
Y-3187D01*
X310578D01*
X310554Y-3008D01*
X310195Y-2142D01*
X309879Y-1729D01*
X309925Y-1559D01*
X310487Y-1065D01*
X310907Y-1325D01*
X310572Y-991D01*
Y-991D01*
X310968Y-1386D01*
X312197Y-2615D01*
X311980Y-3138D01*
X311875Y-3937D01*
X311980Y-4736D01*
X312289Y-5480D01*
X312779Y-6119D01*
X313418Y-6609D01*
X314162Y-6917D01*
X314961Y-7023D01*
X315759Y-6917D01*
X316503Y-6609D01*
X317142Y-6119D01*
X317633Y-5480D01*
X317941Y-4736D01*
X318046Y-3937D01*
X317941Y-3138D01*
X317633Y-2394D01*
X317142Y-1755D01*
X316503Y-1265D01*
X315759Y-957D01*
X314961Y-852D01*
X314162Y-957D01*
X313639Y-1173D01*
X312238Y227D01*
X312225Y950D01*
X312250Y1056D01*
X313236Y1405D01*
X313418Y1265D01*
X314162Y957D01*
X314961Y852D01*
X315759Y957D01*
X316503Y1265D01*
X316880Y1554D01*
X317738Y1238D01*
X317880Y1115D01*
Y-2D01*
X317958Y-392D01*
X318179Y-723D01*
X320071Y-2615D01*
X319854Y-3138D01*
X319749Y-3937D01*
X319854Y-4736D01*
X320163Y-5480D01*
X320653Y-6119D01*
X321292Y-6609D01*
X322036Y-6917D01*
X322835Y-7023D01*
X323633Y-6917D01*
X324377Y-6609D01*
X325016Y-6119D01*
X325507Y-5480D01*
X325815Y-4736D01*
X325920Y-3937D01*
X325815Y-3138D01*
X325507Y-2394D01*
X325016Y-1755D01*
X324377Y-1265D01*
X323633Y-957D01*
X322835Y-852D01*
X322036Y-957D01*
X321513Y-1173D01*
X320131Y208D01*
X320098Y621D01*
X320171Y999D01*
X321155Y1370D01*
X321292Y1265D01*
X322036Y957D01*
X322835Y852D01*
X323633Y957D01*
X324377Y1265D01*
X324680Y1497D01*
X325680Y1058D01*
Y72D01*
X325758Y-319D01*
X325979Y-649D01*
X327945Y-2615D01*
X327728Y-3138D01*
X327623Y-3937D01*
X327728Y-4736D01*
X328037Y-5480D01*
X328527Y-6119D01*
X329166Y-6609D01*
X329910Y-6917D01*
X330709Y-7023D01*
X331507Y-6917D01*
X332251Y-6609D01*
X332890Y-6119D01*
X333381Y-5480D01*
X333689Y-4736D01*
X333794Y-3937D01*
X333689Y-3138D01*
X333381Y-2394D01*
X332890Y-1755D01*
X332251Y-1265D01*
X331507Y-957D01*
X330709Y-852D01*
X329910Y-957D01*
X329387Y-1173D01*
X327945Y269D01*
X327988Y1028D01*
X328972Y1414D01*
X329166Y1265D01*
X329910Y957D01*
X330709Y852D01*
X331507Y957D01*
X332251Y1265D01*
X332375Y1359D01*
X333375Y866D01*
Y-54D01*
X333475Y-562D01*
X333763Y-992D01*
X335692Y-2921D01*
X335602Y-3138D01*
X335497Y-3937D01*
X335602Y-4736D01*
X335911Y-5480D01*
X336401Y-6119D01*
X337040Y-6609D01*
X337784Y-6917D01*
X338583Y-7023D01*
X339381Y-6917D01*
X340125Y-6609D01*
X340764Y-6119D01*
X341255Y-5480D01*
X341345Y-5263D01*
X343695D01*
X343785Y-5480D01*
X344275Y-6119D01*
X344914Y-6609D01*
X345658Y-6917D01*
X346457Y-7023D01*
X347255Y-6917D01*
X347999Y-6609D01*
X348638Y-6119D01*
X349129Y-5480D01*
X349437Y-4736D01*
X349542Y-3937D01*
X349437Y-3138D01*
X349129Y-2394D01*
X348638Y-1755D01*
X347999Y-1265D01*
X347255Y-957D01*
X346457Y-852D01*
X345658Y-957D01*
X344914Y-1265D01*
X344275Y-1755D01*
X343785Y-2394D01*
X343695Y-2612D01*
X341345D01*
X341255Y-2394D01*
X340764Y-1755D01*
X340125Y-1265D01*
X339381Y-957D01*
X338583Y-852D01*
X337784Y-957D01*
X337567Y-1047D01*
X336579Y-59D01*
X336647Y351D01*
X337762Y966D01*
X337784Y957D01*
X338583Y852D01*
X339381Y957D01*
X340125Y1265D01*
X340764Y1755D01*
X341255Y2394D01*
X341563Y3138D01*
X341668Y3937D01*
X341563Y4736D01*
X341255Y5480D01*
X340764Y6119D01*
X340125Y6609D01*
X339381Y6917D01*
X338583Y7023D01*
X337784Y6917D01*
X337040Y6609D01*
X337025Y6598D01*
X336026Y7091D01*
Y7300D01*
X335925Y7807D01*
X335637Y8237D01*
X321737Y22137D01*
X321307Y22425D01*
X320800Y22525D01*
X303049D01*
X245637Y79937D01*
X245413Y80087D01*
X244000Y81500D01*
X224375D01*
X219826Y86049D01*
Y86184D01*
X219913Y86315D01*
X220029Y86900D01*
X219913Y87485D01*
X219581Y87981D01*
X219085Y88313D01*
X218500Y88429D01*
D02*
G37*
G36*
X32133Y146741D02*
X31154Y146612D01*
X30242Y146234D01*
X29458Y145633D01*
X28857Y144850D01*
X28480Y143937D01*
X28351Y142958D01*
X28480Y141979D01*
X28857Y141067D01*
X29458Y140284D01*
X30242Y139683D01*
X31154Y139305D01*
X32133Y139176D01*
X33112Y139305D01*
X34024Y139683D01*
X34808Y140284D01*
X35409Y141067D01*
X35787Y141979D01*
X35915Y142958D01*
X35787Y143937D01*
X35409Y144850D01*
X34808Y145633D01*
X34024Y146234D01*
X33112Y146612D01*
X32133Y146741D01*
D02*
G37*
G36*
X25883Y146708D02*
X18383D01*
Y139208D01*
X25883D01*
Y146708D01*
D02*
G37*
G36*
X42133Y146741D02*
X41154Y146612D01*
X40242Y146234D01*
X39459Y145633D01*
X38857Y144850D01*
X38480Y143937D01*
X38351Y142958D01*
X38480Y141979D01*
X38857Y141067D01*
X39459Y140284D01*
X40242Y139683D01*
X41154Y139305D01*
X42133Y139176D01*
X43112Y139305D01*
X44024Y139683D01*
X44808Y140284D01*
X45409Y141067D01*
X45786Y141979D01*
X45915Y142958D01*
X45786Y143937D01*
X45409Y144850D01*
X44808Y145633D01*
X44024Y146234D01*
X43112Y146612D01*
X42133Y146741D01*
D02*
G37*
G36*
X346457Y69430D02*
X344834Y69302D01*
X343251Y68922D01*
X341747Y68299D01*
X340359Y67448D01*
X339121Y66391D01*
X338064Y65153D01*
X337213Y63765D01*
X336590Y62261D01*
X336210Y60678D01*
X336082Y59055D01*
X336210Y57432D01*
X336590Y55849D01*
X337213Y54345D01*
X338064Y52957D01*
X339121Y51719D01*
X340359Y50662D01*
X341747Y49811D01*
X343251Y49188D01*
X344834Y48808D01*
X346457Y48681D01*
X348080Y48808D01*
X349663Y49188D01*
X351167Y49811D01*
X352555Y50662D01*
X353793Y51719D01*
X354850Y52957D01*
X355700Y54345D01*
X356324Y55849D01*
X356703Y57432D01*
X356831Y59055D01*
X356703Y60678D01*
X356324Y62261D01*
X355700Y63765D01*
X354850Y65153D01*
X353793Y66391D01*
X352555Y67448D01*
X351167Y68299D01*
X349663Y68922D01*
X348080Y69302D01*
X346457Y69430D01*
D02*
G37*
G36*
X74803D02*
X73180Y69302D01*
X71597Y68922D01*
X70093Y68299D01*
X68705Y67448D01*
X67467Y66391D01*
X66410Y65153D01*
X65559Y63765D01*
X64936Y62261D01*
X64556Y60678D01*
X64429Y59055D01*
X64556Y57432D01*
X64936Y55849D01*
X65559Y54345D01*
X66410Y52957D01*
X67467Y51719D01*
X68705Y50662D01*
X70093Y49811D01*
X71597Y49188D01*
X73180Y48808D01*
X74803Y48681D01*
X76426Y48808D01*
X78009Y49188D01*
X79513Y49811D01*
X80901Y50662D01*
X82139Y51719D01*
X83196Y52957D01*
X84047Y54345D01*
X84670Y55849D01*
X85050Y57432D01*
X85178Y59055D01*
X85050Y60678D01*
X84670Y62261D01*
X84047Y63765D01*
X83196Y65153D01*
X82139Y66391D01*
X80901Y67448D01*
X79513Y68299D01*
X78009Y68922D01*
X76426Y69302D01*
X74803Y69430D01*
D02*
G37*
G36*
X39370Y64603D02*
X37934Y64413D01*
X36596Y63859D01*
X35447Y62978D01*
X34566Y61829D01*
X34012Y60491D01*
X33823Y59055D01*
X34012Y57619D01*
X34566Y56281D01*
X35447Y55133D01*
X36596Y54251D01*
X37934Y53697D01*
X39370Y53508D01*
X40806Y53697D01*
X42144Y54251D01*
X43293Y55133D01*
X44174Y56281D01*
X44728Y57619D01*
X44918Y59055D01*
X44728Y60491D01*
X44174Y61829D01*
X43293Y62978D01*
X42144Y63859D01*
X40806Y64413D01*
X39370Y64603D01*
D02*
G37*
G36*
Y84288D02*
X37934Y84099D01*
X36596Y83544D01*
X35447Y82663D01*
X34566Y81514D01*
X34012Y80176D01*
X33823Y78740D01*
X34012Y77304D01*
X34566Y75966D01*
X35447Y74818D01*
X36596Y73936D01*
X37934Y73382D01*
X39370Y73193D01*
X40806Y73382D01*
X42144Y73936D01*
X43293Y74818D01*
X44174Y75966D01*
X44728Y77304D01*
X44918Y78740D01*
X44728Y80176D01*
X44174Y81514D01*
X43293Y82663D01*
X42144Y83544D01*
X40806Y84099D01*
X39370Y84288D01*
D02*
G37*
G36*
X418457Y64625D02*
X417170Y64456D01*
X415971Y63959D01*
X414941Y63169D01*
X414151Y62139D01*
X413655Y60940D01*
X413485Y59654D01*
X413655Y58367D01*
X414151Y57168D01*
X414941Y56138D01*
X415971Y55348D01*
X417170Y54851D01*
X418457Y54682D01*
X419743Y54851D01*
X420943Y55348D01*
X421972Y56138D01*
X422762Y57168D01*
X423259Y58367D01*
X423428Y59654D01*
X423259Y60940D01*
X422762Y62139D01*
X421972Y63169D01*
X420943Y63959D01*
X419743Y64456D01*
X418457Y64625D01*
D02*
G37*
G36*
X418073Y9892D02*
Y4687D01*
X423278D01*
X423236Y5113D01*
X422893Y6244D01*
X422336Y7287D01*
X421586Y8200D01*
X420672Y8950D01*
X419630Y9507D01*
X418499Y9850D01*
X418073Y9892D01*
D02*
G37*
G36*
X22872Y-4687D02*
X20131D01*
X20155Y-4866D01*
X20513Y-5732D01*
X21084Y-6475D01*
X21827Y-7046D01*
X22693Y-7404D01*
X22872Y-7428D01*
Y-4687D01*
D02*
G37*
G36*
X310578Y-4687D02*
X307837D01*
Y-7428D01*
X308016Y-7405D01*
X308881Y-7046D01*
X309625Y-6475D01*
X310195Y-5732D01*
X310554Y-4866D01*
X310578Y-4687D01*
D02*
G37*
G36*
X24372Y-446D02*
Y-3937D01*
Y-7428D01*
X24551Y-7404D01*
X25417Y-7046D01*
X26160Y-6475D01*
X26731Y-5732D01*
X27037Y-4993D01*
X27548Y-4866D01*
X27570D01*
X28081Y-4993D01*
X28387Y-5732D01*
X28958Y-6475D01*
X29701Y-7046D01*
X30567Y-7404D01*
X30746Y-7428D01*
Y-3937D01*
Y-446D01*
X30567Y-470D01*
X29701Y-828D01*
X28958Y-1399D01*
X28387Y-2142D01*
X28081Y-2881D01*
X27570Y-3008D01*
X27548D01*
X27037Y-2881D01*
X26731Y-2142D01*
X26160Y-1399D01*
X25417Y-828D01*
X24551Y-470D01*
X24372Y-446D01*
D02*
G37*
G36*
X22872D02*
X22693Y-470D01*
X21827Y-828D01*
X21084Y-1399D01*
X20513Y-2142D01*
X20155Y-3008D01*
X20131Y-3187D01*
X22872D01*
Y-446D01*
D02*
G37*
G36*
X34987Y-4687D02*
X32246D01*
Y-7428D01*
X32425Y-7404D01*
X33291Y-7046D01*
X34034Y-6475D01*
X34605Y-5732D01*
X34964Y-4866D01*
X34987Y-4687D01*
D02*
G37*
G36*
X448819Y10374D02*
X447196Y10247D01*
X445613Y9867D01*
X444109Y9244D01*
X442721Y8393D01*
X441483Y7336D01*
X440426Y6098D01*
X439575Y4710D01*
X438952Y3206D01*
X438572Y1623D01*
X438444Y0D01*
X438572Y-1623D01*
X438952Y-3206D01*
X439575Y-4710D01*
X440426Y-6098D01*
X441483Y-7336D01*
X442721Y-8393D01*
X444109Y-9244D01*
X445613Y-9867D01*
X447196Y-10247D01*
X448819Y-10374D01*
X450442Y-10247D01*
X452025Y-9867D01*
X453529Y-9244D01*
X454917Y-8393D01*
X456155Y-7336D01*
X457212Y-6098D01*
X458063Y-4710D01*
X458686Y-3206D01*
X459066Y-1623D01*
X459193Y0D01*
X459066Y1623D01*
X458686Y3206D01*
X458063Y4710D01*
X457212Y6098D01*
X456155Y7336D01*
X454917Y8393D01*
X453529Y9244D01*
X452025Y9867D01*
X450442Y10247D01*
X448819Y10374D01*
D02*
G37*
G36*
X0D02*
X-1623Y10247D01*
X-3206Y9867D01*
X-4710Y9244D01*
X-6098Y8393D01*
X-7336Y7336D01*
X-8393Y6098D01*
X-9244Y4710D01*
X-9867Y3206D01*
X-10247Y1623D01*
X-10374Y0D01*
X-10247Y-1623D01*
X-9867Y-3206D01*
X-9244Y-4710D01*
X-8393Y-6098D01*
X-7336Y-7336D01*
X-6098Y-8393D01*
X-4710Y-9244D01*
X-3206Y-9867D01*
X-1623Y-10247D01*
X0Y-10374D01*
X1623Y-10247D01*
X3206Y-9867D01*
X4710Y-9244D01*
X6098Y-8393D01*
X7336Y-7336D01*
X8393Y-6098D01*
X9244Y-4710D01*
X9867Y-3206D01*
X10247Y-1623D01*
X10374Y0D01*
X10247Y1623D01*
X9867Y3206D01*
X9244Y4710D01*
X8393Y6098D01*
X7336Y7336D01*
X6098Y8393D01*
X4710Y9244D01*
X3206Y9867D01*
X1623Y10247D01*
X0Y10374D01*
D02*
G37*
G36*
X306337Y-4687D02*
X303596D01*
X303619Y-4866D01*
X303978Y-5732D01*
X304548Y-6475D01*
X305292Y-7046D01*
X306157Y-7405D01*
X306337Y-7428D01*
Y-4687D01*
D02*
G37*
G36*
X357822D02*
X355081D01*
Y-7428D01*
X355260Y-7405D01*
X356126Y-7046D01*
X356869Y-6475D01*
X357439Y-5732D01*
X357798Y-4866D01*
X357822Y-4687D01*
D02*
G37*
G36*
X353581D02*
X350840D01*
X350863Y-4866D01*
X351222Y-5732D01*
X351792Y-6475D01*
X352536Y-7046D01*
X353402Y-7405D01*
X353581Y-7428D01*
Y-4687D01*
D02*
G37*
G36*
X32246Y-446D02*
Y-3187D01*
X34987D01*
X34964Y-3008D01*
X34605Y-2142D01*
X34034Y-1399D01*
X33291Y-828D01*
X32425Y-470D01*
X32246Y-446D01*
D02*
G37*
G36*
X31496Y7023D02*
X30698Y6917D01*
X29953Y6609D01*
X29314Y6119D01*
X28824Y5480D01*
X28516Y4736D01*
X28411Y3937D01*
X28516Y3138D01*
X28824Y2394D01*
X29314Y1755D01*
X29953Y1265D01*
X30698Y957D01*
X31496Y852D01*
X32295Y957D01*
X33039Y1265D01*
X33678Y1755D01*
X34168Y2394D01*
X34476Y3138D01*
X34582Y3937D01*
X34476Y4736D01*
X34168Y5480D01*
X33678Y6119D01*
X33039Y6609D01*
X32295Y6917D01*
X31496Y7023D01*
D02*
G37*
G36*
X23622D02*
X22824Y6917D01*
X22079Y6609D01*
X21440Y6119D01*
X20950Y5480D01*
X20642Y4736D01*
X20537Y3937D01*
X20642Y3138D01*
X20950Y2394D01*
X21440Y1755D01*
X22079Y1265D01*
X22824Y957D01*
X23622Y852D01*
X24421Y957D01*
X25165Y1265D01*
X25804Y1755D01*
X26294Y2394D01*
X26602Y3138D01*
X26708Y3937D01*
X26602Y4736D01*
X26294Y5480D01*
X25804Y6119D01*
X25165Y6609D01*
X24421Y6917D01*
X23622Y7023D01*
D02*
G37*
G36*
X346457D02*
X345658Y6917D01*
X344914Y6609D01*
X344275Y6119D01*
X343785Y5480D01*
X343476Y4736D01*
X343371Y3937D01*
X343476Y3138D01*
X343785Y2394D01*
X344275Y1755D01*
X344914Y1265D01*
X345658Y957D01*
X346457Y852D01*
X347255Y957D01*
X347999Y1265D01*
X348638Y1755D01*
X349129Y2394D01*
X349437Y3138D01*
X349542Y3937D01*
X349437Y4736D01*
X349129Y5480D01*
X348638Y6119D01*
X347999Y6609D01*
X347255Y6917D01*
X346457Y7023D01*
D02*
G37*
G36*
X416573Y9892D02*
X416147Y9850D01*
X415016Y9507D01*
X413973Y8950D01*
X413060Y8200D01*
X412310Y7287D01*
X411753Y6244D01*
X411410Y5113D01*
X411368Y4687D01*
X416573D01*
Y9892D01*
D02*
G37*
G36*
X357390Y6996D02*
X351272D01*
Y878D01*
X357390D01*
Y6996D01*
D02*
G37*
G36*
X353581Y-446D02*
X353402Y-470D01*
X352536Y-828D01*
X351792Y-1399D01*
X351222Y-2142D01*
X350863Y-3008D01*
X350840Y-3187D01*
X353581D01*
Y-446D01*
D02*
G37*
G36*
X306337D02*
X306157Y-470D01*
X305292Y-828D01*
X304548Y-1399D01*
X303978Y-2142D01*
X303619Y-3008D01*
X303596Y-3187D01*
X306337D01*
Y-446D01*
D02*
G37*
G36*
X355081D02*
Y-3187D01*
X357822D01*
X357798Y-3008D01*
X357439Y-2142D01*
X356869Y-1399D01*
X356126Y-828D01*
X355260Y-470D01*
X355081Y-446D01*
D02*
G37*
G36*
X423278Y3187D02*
X418073D01*
Y-2018D01*
X418499Y-1976D01*
X419630Y-1633D01*
X420672Y-1076D01*
X421586Y-326D01*
X422336Y587D01*
X422893Y1630D01*
X423236Y2761D01*
X423278Y3187D01*
D02*
G37*
G36*
X416573D02*
X411368D01*
X411410Y2761D01*
X411753Y1630D01*
X412310Y587D01*
X413060Y-326D01*
X413973Y-1076D01*
X415016Y-1633D01*
X416147Y-1976D01*
X416573Y-2018D01*
Y3187D01*
D02*
G37*
G36*
X30746Y184289D02*
X27937D01*
Y181480D01*
X30746D01*
Y184289D01*
D02*
G37*
G36*
X22872Y286652D02*
X20131D01*
X20155Y286473D01*
X20513Y285607D01*
X21084Y284863D01*
X21827Y284293D01*
X22693Y283934D01*
X22872Y283911D01*
Y286652D01*
D02*
G37*
G36*
X448819Y301713D02*
X447196Y301585D01*
X445613Y301205D01*
X444109Y300582D01*
X442721Y299732D01*
X441483Y298675D01*
X440426Y297437D01*
X439575Y296048D01*
X438952Y294545D01*
X438572Y292962D01*
X438444Y291339D01*
X438572Y289716D01*
X438952Y288133D01*
X439575Y286629D01*
X440426Y285241D01*
X441483Y284003D01*
X442721Y282945D01*
X444109Y282095D01*
X445613Y281472D01*
X447196Y281092D01*
X448819Y280964D01*
X450442Y281092D01*
X452025Y281472D01*
X453529Y282095D01*
X454917Y282945D01*
X456155Y284003D01*
X457212Y285241D01*
X458063Y286629D01*
X458686Y288133D01*
X459066Y289716D01*
X459193Y291339D01*
X459066Y292962D01*
X458686Y294545D01*
X458063Y296048D01*
X457212Y297437D01*
X456155Y298675D01*
X454917Y299732D01*
X453529Y300582D01*
X452025Y301205D01*
X450442Y301585D01*
X448819Y301713D01*
D02*
G37*
G36*
X322835Y290487D02*
X322036Y290382D01*
X321292Y290074D01*
X320653Y289583D01*
X320163Y288944D01*
X319854Y288200D01*
X319749Y287402D01*
X319854Y286603D01*
X320163Y285859D01*
X320653Y285220D01*
X321292Y284730D01*
X322036Y284421D01*
X322835Y284316D01*
X323633Y284421D01*
X324377Y284730D01*
X325016Y285220D01*
X325507Y285859D01*
X325815Y286603D01*
X325920Y287402D01*
X325815Y288200D01*
X325507Y288944D01*
X325016Y289583D01*
X324377Y290074D01*
X323633Y290382D01*
X322835Y290487D01*
D02*
G37*
G36*
X354331D02*
X353532Y290382D01*
X352788Y290074D01*
X352149Y289583D01*
X351659Y288944D01*
X351350Y288200D01*
X351245Y287402D01*
X351350Y286603D01*
X351659Y285859D01*
X352149Y285220D01*
X352788Y284730D01*
X353532Y284421D01*
X354331Y284316D01*
X355129Y284421D01*
X355873Y284730D01*
X356512Y285220D01*
X357003Y285859D01*
X357311Y286603D01*
X357416Y287402D01*
X357311Y288200D01*
X357003Y288944D01*
X356512Y289583D01*
X355873Y290074D01*
X355129Y290382D01*
X354331Y290487D01*
D02*
G37*
G36*
X330709D02*
X329910Y290382D01*
X329166Y290074D01*
X328527Y289583D01*
X328037Y288944D01*
X327728Y288200D01*
X327623Y287402D01*
X327728Y286603D01*
X328037Y285859D01*
X328527Y285220D01*
X329166Y284730D01*
X329910Y284421D01*
X330709Y284316D01*
X331507Y284421D01*
X332251Y284730D01*
X332890Y285220D01*
X333381Y285859D01*
X333689Y286603D01*
X333794Y287402D01*
X333689Y288200D01*
X333381Y288944D01*
X332890Y289583D01*
X332251Y290074D01*
X331507Y290382D01*
X330709Y290487D01*
D02*
G37*
G36*
X0Y301713D02*
X-1623Y301585D01*
X-3206Y301205D01*
X-4710Y300582D01*
X-6098Y299732D01*
X-7336Y298675D01*
X-8393Y297437D01*
X-9244Y296048D01*
X-9867Y294545D01*
X-10247Y292962D01*
X-10374Y291339D01*
X-10247Y289716D01*
X-9867Y288133D01*
X-9244Y286629D01*
X-8393Y285241D01*
X-7336Y284003D01*
X-6098Y282945D01*
X-4710Y282095D01*
X-3206Y281472D01*
X-1623Y281092D01*
X0Y280964D01*
X1623Y281092D01*
X3206Y281472D01*
X4710Y282095D01*
X6098Y282945D01*
X7336Y284003D01*
X8393Y285241D01*
X9244Y286629D01*
X9867Y288133D01*
X10247Y289716D01*
X10374Y291339D01*
X10247Y292962D01*
X9867Y294545D01*
X9244Y296048D01*
X8393Y297437D01*
X7336Y298675D01*
X6098Y299732D01*
X4710Y300582D01*
X3206Y301205D01*
X1623Y301585D01*
X0Y301713D01*
D02*
G37*
G36*
X7124Y269735D02*
X6698Y269693D01*
X5567Y269350D01*
X4524Y268793D01*
X3611Y268043D01*
X2861Y267129D01*
X2304Y266087D01*
X1961Y264956D01*
X1919Y264529D01*
X7124D01*
Y269735D01*
D02*
G37*
G36*
X404762Y266967D02*
X399557D01*
X399599Y266540D01*
X399942Y265409D01*
X400499Y264367D01*
X401249Y263453D01*
X402162Y262704D01*
X403205Y262146D01*
X404336Y261803D01*
X404762Y261761D01*
Y266967D01*
D02*
G37*
G36*
X8624Y269735D02*
Y264529D01*
X13829D01*
X13787Y264956D01*
X13444Y266087D01*
X12887Y267129D01*
X12137Y268043D01*
X11224Y268793D01*
X10181Y269350D01*
X9050Y269693D01*
X8624Y269735D01*
D02*
G37*
G36*
X406262Y273672D02*
Y268467D01*
X411467D01*
X411425Y268893D01*
X411082Y270024D01*
X410525Y271066D01*
X409775Y271980D01*
X408861Y272729D01*
X407819Y273287D01*
X406688Y273630D01*
X406262Y273672D01*
D02*
G37*
G36*
X404762D02*
X404336Y273630D01*
X403205Y273287D01*
X402162Y272729D01*
X401249Y271980D01*
X400499Y271066D01*
X399942Y270024D01*
X399599Y268893D01*
X399557Y268467D01*
X404762D01*
Y273672D01*
D02*
G37*
G36*
X353581Y298835D02*
X350772D01*
Y296026D01*
X353581D01*
Y298835D01*
D02*
G37*
G36*
X338583Y298361D02*
X337784Y298256D01*
X337040Y297948D01*
X336401Y297457D01*
X335911Y296818D01*
X335602Y296074D01*
X335497Y295276D01*
X335602Y294477D01*
X335911Y293733D01*
X336401Y293094D01*
X337040Y292603D01*
X337784Y292295D01*
X338583Y292190D01*
X339381Y292295D01*
X340125Y292603D01*
X340764Y293094D01*
X341255Y293733D01*
X341563Y294477D01*
X341668Y295276D01*
X341563Y296074D01*
X341255Y296818D01*
X340764Y297457D01*
X340125Y297948D01*
X339381Y298256D01*
X338583Y298361D01*
D02*
G37*
G36*
X306337Y298767D02*
X306157Y298743D01*
X305292Y298384D01*
X304548Y297814D01*
X303978Y297071D01*
X303619Y296205D01*
X303596Y296026D01*
X306337D01*
Y298767D01*
D02*
G37*
G36*
X307837D02*
Y296026D01*
X310578D01*
X310554Y296205D01*
X310195Y297071D01*
X309625Y297814D01*
X308881Y298384D01*
X308016Y298743D01*
X307837Y298767D01*
D02*
G37*
G36*
X357890Y298835D02*
X355081D01*
Y296026D01*
X357890D01*
Y298835D01*
D02*
G37*
G36*
X330709Y298361D02*
X329910Y298256D01*
X329166Y297948D01*
X328527Y297457D01*
X328037Y296818D01*
X327728Y296074D01*
X327623Y295276D01*
X327728Y294477D01*
X328037Y293733D01*
X328527Y293094D01*
X329166Y292603D01*
X329910Y292295D01*
X330709Y292190D01*
X331507Y292295D01*
X332251Y292603D01*
X332890Y293094D01*
X333381Y293733D01*
X333689Y294477D01*
X333794Y295276D01*
X333689Y296074D01*
X333381Y296818D01*
X332890Y297457D01*
X332251Y297948D01*
X331507Y298256D01*
X330709Y298361D01*
D02*
G37*
G36*
X353581Y294526D02*
X350772D01*
Y291717D01*
X353581D01*
Y294526D01*
D02*
G37*
G36*
X22872Y290893D02*
X22693Y290869D01*
X21827Y290510D01*
X21084Y289940D01*
X20513Y289196D01*
X20155Y288331D01*
X20131Y288152D01*
X22872D01*
Y290893D01*
D02*
G37*
G36*
X357890Y294526D02*
X355081D01*
Y291717D01*
X357890D01*
Y294526D01*
D02*
G37*
G36*
X322835Y298361D02*
X322036Y298256D01*
X321292Y297948D01*
X320653Y297457D01*
X320163Y296818D01*
X319854Y296074D01*
X319749Y295276D01*
X319854Y294477D01*
X320163Y293733D01*
X320653Y293094D01*
X321292Y292603D01*
X322036Y292295D01*
X322835Y292190D01*
X323633Y292295D01*
X324377Y292603D01*
X325016Y293094D01*
X325507Y293733D01*
X325815Y294477D01*
X325920Y295276D01*
X325815Y296074D01*
X325507Y296818D01*
X325016Y297457D01*
X324377Y297948D01*
X323633Y298256D01*
X322835Y298361D01*
D02*
G37*
G36*
X346457D02*
X345658Y298256D01*
X344914Y297948D01*
X344275Y297457D01*
X343785Y296818D01*
X343476Y296074D01*
X343371Y295276D01*
X343476Y294477D01*
X343693Y293954D01*
X341779Y292040D01*
X341558Y291709D01*
X341480Y291319D01*
Y290237D01*
X341393Y290157D01*
X340480Y289801D01*
X340125Y290074D01*
X339381Y290382D01*
X338583Y290487D01*
X337784Y290382D01*
X337040Y290074D01*
X336401Y289583D01*
X335911Y288944D01*
X335602Y288200D01*
X335497Y287402D01*
X335602Y286603D01*
X335911Y285859D01*
X336401Y285220D01*
X337040Y284730D01*
X337784Y284421D01*
X338583Y284316D01*
X339381Y284421D01*
X340125Y284730D01*
X340331Y284888D01*
X340992Y284134D01*
X337878Y281020D01*
X309825D01*
X309785Y281070D01*
X309461Y282020D01*
X311721Y284279D01*
X311942Y284610D01*
X311951Y284656D01*
X312253Y284862D01*
X312739Y285025D01*
X313020Y285035D01*
X313418Y284730D01*
X314162Y284421D01*
X314961Y284316D01*
X315759Y284421D01*
X316503Y284730D01*
X317142Y285220D01*
X317633Y285859D01*
X317941Y286603D01*
X318046Y287402D01*
X317941Y288200D01*
X317633Y288944D01*
X317142Y289583D01*
X316503Y290074D01*
X315759Y290382D01*
X314961Y290487D01*
X314162Y290382D01*
X313418Y290074D01*
X313236Y289934D01*
X312250Y290283D01*
X312225Y290389D01*
X312238Y291111D01*
X313639Y292512D01*
X314162Y292295D01*
X314961Y292190D01*
X315759Y292295D01*
X316503Y292603D01*
X317142Y293094D01*
X317633Y293733D01*
X317941Y294477D01*
X318046Y295276D01*
X317941Y296074D01*
X317633Y296818D01*
X317142Y297457D01*
X316503Y297948D01*
X315759Y298256D01*
X314961Y298361D01*
X314162Y298256D01*
X313418Y297948D01*
X312779Y297457D01*
X312289Y296818D01*
X311980Y296074D01*
X311875Y295276D01*
X311980Y294477D01*
X312197Y293954D01*
X310935Y292692D01*
X310484Y292407D01*
X309925Y292897D01*
X309879Y293068D01*
X310195Y293481D01*
X310554Y294346D01*
X310578Y294526D01*
X307087D01*
Y295276D01*
D01*
Y294526D01*
X303596D01*
X303619Y294346D01*
X303978Y293481D01*
X304548Y292737D01*
X305292Y292167D01*
X306030Y291861D01*
X306157Y291350D01*
Y291327D01*
X306030Y290816D01*
X305292Y290510D01*
X304548Y289940D01*
X303978Y289196D01*
X303619Y288331D01*
X303596Y288152D01*
X307087D01*
Y286652D01*
X303596D01*
X303619Y286473D01*
X303978Y285607D01*
X304443Y285000D01*
X304312Y284469D01*
X304031Y284000D01*
X301447D01*
X301108Y285000D01*
X301394Y285220D01*
X301885Y285859D01*
X302193Y286603D01*
X302298Y287402D01*
X302193Y288200D01*
X301885Y288944D01*
X301394Y289583D01*
X300755Y290074D01*
X300011Y290382D01*
X299213Y290487D01*
X298414Y290382D01*
X297670Y290074D01*
X297571Y289998D01*
X296588Y290386D01*
X296499Y290938D01*
X296527Y291148D01*
X297891Y292512D01*
X298414Y292295D01*
X299213Y292190D01*
X300011Y292295D01*
X300755Y292603D01*
X301394Y293094D01*
X301885Y293733D01*
X302193Y294477D01*
X302298Y295276D01*
X302193Y296074D01*
X301885Y296818D01*
X301394Y297457D01*
X300755Y297948D01*
X300011Y298256D01*
X299213Y298361D01*
X298414Y298256D01*
X297670Y297948D01*
X297031Y297457D01*
X296540Y296818D01*
X296232Y296074D01*
X296127Y295276D01*
X296232Y294477D01*
X296449Y293954D01*
X294579Y292084D01*
X294358Y291753D01*
X294280Y291363D01*
Y290211D01*
X294078Y290044D01*
X293280Y289767D01*
X292881Y290074D01*
X292137Y290382D01*
X291339Y290487D01*
X290540Y290382D01*
X289796Y290074D01*
X289652Y289963D01*
X288668Y290331D01*
X288600Y290672D01*
X288632Y291127D01*
X290017Y292512D01*
X290540Y292295D01*
X291339Y292190D01*
X292137Y292295D01*
X292881Y292603D01*
X293520Y293094D01*
X294011Y293733D01*
X294319Y294477D01*
X294424Y295276D01*
X294319Y296074D01*
X294011Y296818D01*
X293520Y297457D01*
X292881Y297948D01*
X292137Y298256D01*
X291339Y298361D01*
X290540Y298256D01*
X289796Y297948D01*
X289157Y297457D01*
X288667Y296818D01*
X288358Y296074D01*
X288253Y295276D01*
X288358Y294477D01*
X288575Y293954D01*
X286679Y292058D01*
X286458Y291727D01*
X286380Y291337D01*
Y290226D01*
X286248Y290110D01*
X285380Y289787D01*
X285007Y290074D01*
X284263Y290382D01*
X283465Y290487D01*
X282666Y290382D01*
X281922Y290074D01*
X281733Y289929D01*
X280747Y290274D01*
X280733Y290333D01*
X280739Y291108D01*
X282143Y292512D01*
X282666Y292295D01*
X283465Y292190D01*
X284263Y292295D01*
X285007Y292603D01*
X285646Y293094D01*
X286137Y293733D01*
X286445Y294477D01*
X286550Y295276D01*
X286445Y296074D01*
X286137Y296818D01*
X285646Y297457D01*
X285007Y297948D01*
X284263Y298256D01*
X283465Y298361D01*
X282666Y298256D01*
X281922Y297948D01*
X281283Y297457D01*
X280792Y296818D01*
X280484Y296074D01*
X280379Y295276D01*
X280484Y294477D01*
X280701Y293954D01*
X278779Y292032D01*
X278558Y291701D01*
X278480Y291311D01*
Y290241D01*
X278411Y290177D01*
X277480Y289807D01*
X277133Y290074D01*
X276389Y290382D01*
X275591Y290487D01*
X274792Y290382D01*
X274048Y290074D01*
X273987Y290027D01*
X273005Y290432D01*
X272912Y291110D01*
X272922Y291166D01*
X274269Y292512D01*
X274792Y292295D01*
X275591Y292190D01*
X276389Y292295D01*
X277133Y292603D01*
X277772Y293094D01*
X278263Y293733D01*
X278571Y294477D01*
X278676Y295276D01*
X278571Y296074D01*
X278263Y296818D01*
X277772Y297457D01*
X277133Y297948D01*
X276389Y298256D01*
X275591Y298361D01*
X274792Y298256D01*
X274048Y297948D01*
X273409Y297457D01*
X272919Y296818D01*
X272610Y296074D01*
X272505Y295276D01*
X272610Y294477D01*
X272827Y293954D01*
X270979Y292106D01*
X270758Y291775D01*
X270680Y291385D01*
Y290199D01*
X270415Y289990D01*
X269680Y289751D01*
X269259Y290074D01*
X268515Y290382D01*
X267717Y290487D01*
X266918Y290382D01*
X266174Y290074D01*
X266068Y289992D01*
X265085Y290378D01*
X264998Y290902D01*
X265027Y291145D01*
X266395Y292512D01*
X266918Y292295D01*
X267717Y292190D01*
X268515Y292295D01*
X269259Y292603D01*
X269898Y293094D01*
X270389Y293733D01*
X270697Y294477D01*
X270802Y295276D01*
X270697Y296074D01*
X270389Y296818D01*
X269898Y297457D01*
X269259Y297948D01*
X268515Y298256D01*
X267717Y298361D01*
X266918Y298256D01*
X266174Y297948D01*
X265535Y297457D01*
X265044Y296818D01*
X264736Y296074D01*
X264631Y295276D01*
X264736Y294477D01*
X264953Y293954D01*
X263079Y292080D01*
X262858Y291749D01*
X262780Y291359D01*
Y290214D01*
X262589Y290054D01*
X261780Y289770D01*
X261385Y290074D01*
X260641Y290382D01*
X259842Y290487D01*
X259044Y290382D01*
X258300Y290074D01*
X258149Y289958D01*
X257165Y290322D01*
X257103Y290626D01*
X257133Y291125D01*
X258521Y292512D01*
X259044Y292295D01*
X259842Y292190D01*
X260641Y292295D01*
X261385Y292603D01*
X262024Y293094D01*
X262515Y293733D01*
X262823Y294477D01*
X262928Y295276D01*
X262823Y296074D01*
X262515Y296818D01*
X262024Y297457D01*
X261385Y297948D01*
X260641Y298256D01*
X259842Y298361D01*
X259044Y298256D01*
X258300Y297948D01*
X257661Y297457D01*
X257170Y296818D01*
X256862Y296074D01*
X256757Y295276D01*
X256862Y294477D01*
X257079Y293954D01*
X255179Y292054D01*
X254958Y291723D01*
X254880Y291333D01*
Y290229D01*
X254758Y290120D01*
X253880Y289790D01*
X253511Y290074D01*
X252767Y290382D01*
X251969Y290487D01*
X251170Y290382D01*
X250426Y290074D01*
X250230Y289924D01*
X249243Y290265D01*
X249241Y290275D01*
X249240Y291106D01*
X250647Y292512D01*
X251170Y292295D01*
X251969Y292190D01*
X252767Y292295D01*
X253511Y292603D01*
X254150Y293094D01*
X254641Y293733D01*
X254949Y294477D01*
X255054Y295276D01*
X254949Y296074D01*
X254641Y296818D01*
X254150Y297457D01*
X253511Y297948D01*
X252767Y298256D01*
X251969Y298361D01*
X251170Y298256D01*
X250426Y297948D01*
X249787Y297457D01*
X249296Y296818D01*
X248988Y296074D01*
X248883Y295276D01*
X248988Y294477D01*
X249205Y293954D01*
X247279Y292028D01*
X247058Y291697D01*
X246980Y291307D01*
Y290244D01*
X246920Y290187D01*
X245980Y289810D01*
X245637Y290074D01*
X244893Y290382D01*
X244094Y290487D01*
X243296Y290382D01*
X242552Y290074D01*
X242484Y290021D01*
X241502Y290424D01*
X241409Y291083D01*
X241423Y291162D01*
X242773Y292512D01*
X243296Y292295D01*
X244094Y292190D01*
X244893Y292295D01*
X245637Y292603D01*
X246276Y293094D01*
X246767Y293733D01*
X247075Y294477D01*
X247180Y295276D01*
X247075Y296074D01*
X246767Y296818D01*
X246276Y297457D01*
X245637Y297948D01*
X244893Y298256D01*
X244094Y298361D01*
X243296Y298256D01*
X242552Y297948D01*
X241913Y297457D01*
X241422Y296818D01*
X241114Y296074D01*
X241009Y295276D01*
X241114Y294477D01*
X241331Y293954D01*
X239479Y292102D01*
X239258Y291771D01*
X239180Y291381D01*
Y290201D01*
X238927Y290000D01*
X238180Y289754D01*
X237763Y290074D01*
X237019Y290382D01*
X236221Y290487D01*
X235422Y290382D01*
X234678Y290074D01*
X234565Y289987D01*
X233582Y290370D01*
X233497Y290865D01*
X233528Y291142D01*
X234899Y292512D01*
X235422Y292295D01*
X236221Y292190D01*
X237019Y292295D01*
X237763Y292603D01*
X238402Y293094D01*
X238893Y293733D01*
X239201Y294477D01*
X239306Y295276D01*
X239201Y296074D01*
X238893Y296818D01*
X238402Y297457D01*
X237763Y297948D01*
X237019Y298256D01*
X236221Y298361D01*
X235422Y298256D01*
X234678Y297948D01*
X234039Y297457D01*
X233548Y296818D01*
X233240Y296074D01*
X233135Y295276D01*
X233240Y294477D01*
X233457Y293954D01*
X231579Y292076D01*
X231358Y291745D01*
X231280Y291355D01*
Y290216D01*
X231100Y290064D01*
X230280Y289774D01*
X229889Y290074D01*
X229145Y290382D01*
X228346Y290487D01*
X227548Y290382D01*
X226804Y290074D01*
X226646Y289953D01*
X225662Y290314D01*
X225606Y290577D01*
X225634Y291122D01*
X227025Y292512D01*
X227548Y292295D01*
X228346Y292190D01*
X229145Y292295D01*
X229889Y292603D01*
X230528Y293094D01*
X231019Y293733D01*
X231327Y294477D01*
X231432Y295276D01*
X231327Y296074D01*
X231019Y296818D01*
X230528Y297457D01*
X229889Y297948D01*
X229145Y298256D01*
X228346Y298361D01*
X227548Y298256D01*
X226804Y297948D01*
X226165Y297457D01*
X225674Y296818D01*
X225366Y296074D01*
X225261Y295276D01*
X225366Y294477D01*
X225583Y293954D01*
X223679Y292050D01*
X223458Y291719D01*
X223380Y291329D01*
Y290917D01*
X222380Y290424D01*
X222267Y290510D01*
X221402Y290869D01*
X221222Y290893D01*
Y287402D01*
X219723D01*
Y290893D01*
X219543Y290869D01*
X219263Y290753D01*
X218179Y291288D01*
X218154Y291327D01*
X218127Y291488D01*
X219151Y292512D01*
X219674Y292295D01*
X220473Y292190D01*
X221271Y292295D01*
X222015Y292603D01*
X222654Y293094D01*
X223145Y293733D01*
X223453Y294477D01*
X223558Y295276D01*
X223453Y296074D01*
X223145Y296818D01*
X222654Y297457D01*
X222015Y297948D01*
X221271Y298256D01*
X220473Y298361D01*
X219674Y298256D01*
X218930Y297948D01*
X218291Y297457D01*
X217800Y296818D01*
X217492Y296074D01*
X217387Y295276D01*
X217492Y294477D01*
X217709Y293954D01*
X215779Y292024D01*
X215558Y291693D01*
X215480Y291303D01*
Y290246D01*
X215429Y290198D01*
X214480Y289813D01*
X214141Y290074D01*
X213397Y290382D01*
X212598Y290487D01*
X211800Y290382D01*
X211056Y290074D01*
X210981Y290016D01*
X209999Y290416D01*
X209906Y291054D01*
X209924Y291159D01*
X211277Y292512D01*
X211800Y292295D01*
X212598Y292190D01*
X213397Y292295D01*
X214141Y292603D01*
X214780Y293094D01*
X215270Y293733D01*
X215579Y294477D01*
X215684Y295276D01*
X215579Y296074D01*
X215270Y296818D01*
X214780Y297457D01*
X214141Y297948D01*
X213397Y298256D01*
X212598Y298361D01*
X211800Y298256D01*
X211056Y297948D01*
X210417Y297457D01*
X209926Y296818D01*
X209618Y296074D01*
X209513Y295276D01*
X209618Y294477D01*
X209835Y293954D01*
X207979Y292098D01*
X207758Y291767D01*
X207680Y291377D01*
Y290203D01*
X207438Y290009D01*
X206680Y289757D01*
X206267Y290074D01*
X205523Y290382D01*
X204724Y290487D01*
X203926Y290382D01*
X203182Y290074D01*
X202543Y289583D01*
X202120Y289032D01*
X201825Y289032D01*
X201215Y289268D01*
X201120Y290230D01*
X203403Y292512D01*
X203926Y292295D01*
X204724Y292190D01*
X205523Y292295D01*
X206267Y292603D01*
X206906Y293094D01*
X207397Y293733D01*
X207705Y294477D01*
X207810Y295276D01*
X207705Y296074D01*
X207397Y296818D01*
X206906Y297457D01*
X206267Y297948D01*
X205523Y298256D01*
X204724Y298361D01*
X203926Y298256D01*
X203182Y297948D01*
X202543Y297457D01*
X202052Y296818D01*
X201744Y296074D01*
X201639Y295276D01*
X201744Y294477D01*
X201961Y293954D01*
X199379Y291372D01*
X199158Y291041D01*
X199080Y290651D01*
Y284000D01*
X178720D01*
Y290804D01*
X178642Y291194D01*
X178421Y291525D01*
X176287Y293658D01*
Y298335D01*
X170169D01*
Y293317D01*
X169169Y292902D01*
X168118Y293954D01*
X168335Y294477D01*
X168440Y295276D01*
X168335Y296074D01*
X168026Y296818D01*
X167536Y297457D01*
X166897Y297948D01*
X166153Y298256D01*
X165354Y298361D01*
X164556Y298256D01*
X163812Y297948D01*
X163173Y297457D01*
X162682Y296818D01*
X162374Y296074D01*
X162269Y295276D01*
X162374Y294477D01*
X162682Y293733D01*
X163173Y293094D01*
X163812Y292603D01*
X164556Y292295D01*
X165354Y292190D01*
X166153Y292295D01*
X166676Y292512D01*
X168066Y291122D01*
X168094Y290587D01*
X168038Y290316D01*
X167053Y289954D01*
X166897Y290074D01*
X166153Y290382D01*
X165354Y290487D01*
X164556Y290382D01*
X163812Y290074D01*
X163520Y289850D01*
X162520Y290300D01*
Y291256D01*
X162442Y291646D01*
X162221Y291977D01*
X160244Y293954D01*
X160461Y294477D01*
X160566Y295276D01*
X160461Y296074D01*
X160152Y296818D01*
X159662Y297457D01*
X159023Y297948D01*
X158279Y298256D01*
X157480Y298361D01*
X156682Y298256D01*
X155938Y297948D01*
X155299Y297457D01*
X154808Y296818D01*
X154500Y296074D01*
X154395Y295276D01*
X154500Y294477D01*
X154808Y293733D01*
X155299Y293094D01*
X155938Y292603D01*
X156682Y292295D01*
X157480Y292190D01*
X158279Y292295D01*
X158802Y292512D01*
X160258Y291056D01*
X160211Y290305D01*
X159224Y289919D01*
X159023Y290074D01*
X158279Y290382D01*
X157480Y290487D01*
X156682Y290382D01*
X155938Y290074D01*
X155520Y289753D01*
X154776Y289998D01*
X154520Y290200D01*
Y291382D01*
X154442Y291772D01*
X154221Y292103D01*
X152370Y293954D01*
X152587Y294477D01*
X152692Y295276D01*
X152587Y296074D01*
X152278Y296818D01*
X151788Y297457D01*
X151149Y297948D01*
X150405Y298256D01*
X149606Y298361D01*
X148808Y298256D01*
X148064Y297948D01*
X147425Y297457D01*
X146934Y296818D01*
X146626Y296074D01*
X146521Y295276D01*
X146626Y294477D01*
X146934Y293733D01*
X147425Y293094D01*
X148064Y292603D01*
X148808Y292295D01*
X149606Y292190D01*
X150405Y292295D01*
X150928Y292512D01*
X152277Y291163D01*
X152290Y291089D01*
X152197Y290425D01*
X151216Y290022D01*
X151149Y290074D01*
X150405Y290382D01*
X149606Y290487D01*
X148808Y290382D01*
X148064Y290074D01*
X147720Y289810D01*
X146781Y290185D01*
X146720Y290243D01*
Y291308D01*
X146642Y291698D01*
X146421Y292029D01*
X144496Y293954D01*
X144713Y294477D01*
X144818Y295276D01*
X144713Y296074D01*
X144404Y296818D01*
X143914Y297457D01*
X143275Y297948D01*
X142531Y298256D01*
X141732Y298361D01*
X140934Y298256D01*
X140190Y297948D01*
X139551Y297457D01*
X139060Y296818D01*
X138752Y296074D01*
X138647Y295276D01*
X138752Y294477D01*
X139060Y293733D01*
X139551Y293094D01*
X140190Y292603D01*
X140934Y292295D01*
X141732Y292190D01*
X142531Y292295D01*
X143054Y292512D01*
X144460Y291106D01*
X144461Y290287D01*
X144456Y290267D01*
X143469Y289925D01*
X143275Y290074D01*
X142531Y290382D01*
X141732Y290487D01*
X140934Y290382D01*
X140190Y290074D01*
X139820Y289790D01*
X138944Y290118D01*
X138820Y290228D01*
Y291334D01*
X138742Y291724D01*
X138521Y292055D01*
X136622Y293954D01*
X136839Y294477D01*
X136944Y295276D01*
X136839Y296074D01*
X136530Y296818D01*
X136040Y297457D01*
X135401Y297948D01*
X134657Y298256D01*
X133858Y298361D01*
X133060Y298256D01*
X132316Y297948D01*
X131676Y297457D01*
X131186Y296818D01*
X130878Y296074D01*
X130773Y295276D01*
X130878Y294477D01*
X131186Y293733D01*
X131676Y293094D01*
X132316Y292603D01*
X133060Y292295D01*
X133858Y292190D01*
X134657Y292295D01*
X135180Y292512D01*
X136567Y291125D01*
X136598Y290636D01*
X136535Y290324D01*
X135550Y289959D01*
X135401Y290074D01*
X134657Y290382D01*
X133858Y290487D01*
X133060Y290382D01*
X132316Y290074D01*
X131920Y289770D01*
X131113Y290052D01*
X130920Y290213D01*
Y291360D01*
X130842Y291750D01*
X130621Y292081D01*
X128748Y293954D01*
X128965Y294477D01*
X129070Y295276D01*
X128965Y296074D01*
X128656Y296818D01*
X128166Y297457D01*
X127527Y297948D01*
X126783Y298256D01*
X125984Y298361D01*
X125186Y298256D01*
X124442Y297948D01*
X123802Y297457D01*
X123312Y296818D01*
X123004Y296074D01*
X122899Y295276D01*
X123004Y294477D01*
X123312Y293733D01*
X123802Y293094D01*
X124442Y292603D01*
X125186Y292295D01*
X125984Y292190D01*
X126783Y292295D01*
X127306Y292512D01*
X128673Y291145D01*
X128702Y290910D01*
X128614Y290380D01*
X127632Y289993D01*
X127527Y290074D01*
X126783Y290382D01*
X125984Y290487D01*
X125186Y290382D01*
X124442Y290074D01*
X124020Y289750D01*
X123287Y289988D01*
X123020Y290198D01*
Y291386D01*
X122942Y291776D01*
X122721Y292107D01*
X120874Y293954D01*
X121091Y294477D01*
X121196Y295276D01*
X121091Y296074D01*
X120782Y296818D01*
X120292Y297457D01*
X119653Y297948D01*
X118909Y298256D01*
X118110Y298361D01*
X117312Y298256D01*
X116568Y297948D01*
X115928Y297457D01*
X115438Y296818D01*
X115130Y296074D01*
X115025Y295276D01*
X115130Y294477D01*
X115438Y293733D01*
X115928Y293094D01*
X116568Y292603D01*
X117312Y292295D01*
X118110Y292190D01*
X118909Y292295D01*
X119432Y292512D01*
X120246Y291698D01*
X120207Y291468D01*
X119091Y290847D01*
X119039Y290869D01*
X118860Y290893D01*
Y287402D01*
X117360D01*
Y290893D01*
X117181Y290869D01*
X116315Y290510D01*
X116220Y290437D01*
X115220Y290930D01*
Y291312D01*
X115142Y291702D01*
X114921Y292033D01*
X113000Y293954D01*
X113217Y294477D01*
X113322Y295276D01*
X113217Y296074D01*
X112908Y296818D01*
X112418Y297457D01*
X111779Y297948D01*
X111035Y298256D01*
X110236Y298361D01*
X109438Y298256D01*
X108694Y297948D01*
X108054Y297457D01*
X107564Y296818D01*
X107256Y296074D01*
X107151Y295276D01*
X107256Y294477D01*
X107564Y293733D01*
X108054Y293094D01*
X108694Y292603D01*
X109438Y292295D01*
X110236Y292190D01*
X111035Y292295D01*
X111558Y292512D01*
X112961Y291109D01*
X112969Y290344D01*
X112952Y290276D01*
X111966Y289930D01*
X111779Y290074D01*
X111035Y290382D01*
X110236Y290487D01*
X109438Y290382D01*
X108694Y290074D01*
X108320Y289787D01*
X107454Y290108D01*
X107320Y290226D01*
Y291338D01*
X107242Y291728D01*
X107021Y292059D01*
X105126Y293954D01*
X105342Y294477D01*
X105448Y295276D01*
X105342Y296074D01*
X105034Y296818D01*
X104544Y297457D01*
X103905Y297948D01*
X103161Y298256D01*
X102362Y298361D01*
X101564Y298256D01*
X100820Y297948D01*
X100180Y297457D01*
X99690Y296818D01*
X99382Y296074D01*
X99277Y295276D01*
X99382Y294477D01*
X99690Y293733D01*
X100180Y293094D01*
X100820Y292603D01*
X101564Y292295D01*
X102362Y292190D01*
X103161Y292295D01*
X103684Y292512D01*
X105068Y291128D01*
X105100Y290682D01*
X105031Y290333D01*
X104048Y289964D01*
X103905Y290074D01*
X103161Y290382D01*
X102362Y290487D01*
X101564Y290382D01*
X100820Y290074D01*
X100420Y289767D01*
X99624Y290042D01*
X99420Y290211D01*
Y291364D01*
X99342Y291754D01*
X99121Y292085D01*
X97252Y293954D01*
X97469Y294477D01*
X97574Y295276D01*
X97469Y296074D01*
X97160Y296818D01*
X96670Y297457D01*
X96031Y297948D01*
X95287Y298256D01*
X94488Y298361D01*
X93690Y298256D01*
X92945Y297948D01*
X92307Y297457D01*
X91816Y296818D01*
X91508Y296074D01*
X91403Y295276D01*
X91508Y294477D01*
X91816Y293733D01*
X92307Y293094D01*
X92945Y292603D01*
X93690Y292295D01*
X94488Y292190D01*
X95287Y292295D01*
X95810Y292512D01*
X97174Y291148D01*
X97201Y290945D01*
X97111Y290388D01*
X96129Y289999D01*
X96031Y290074D01*
X95287Y290382D01*
X94488Y290487D01*
X93690Y290382D01*
X92945Y290074D01*
X92620Y289824D01*
X91641Y290232D01*
X91620Y290254D01*
Y291290D01*
X91542Y291680D01*
X91321Y292011D01*
X89378Y293954D01*
X89595Y294477D01*
X89700Y295276D01*
X89595Y296074D01*
X89286Y296818D01*
X88796Y297457D01*
X88157Y297948D01*
X87413Y298256D01*
X86614Y298361D01*
X85816Y298256D01*
X85071Y297948D01*
X84432Y297457D01*
X83942Y296818D01*
X83634Y296074D01*
X83529Y295276D01*
X83634Y294477D01*
X83942Y293733D01*
X84432Y293094D01*
X85071Y292603D01*
X85816Y292295D01*
X86614Y292190D01*
X87413Y292295D01*
X87936Y292512D01*
X89354Y291093D01*
X89322Y290312D01*
X88356Y289921D01*
X88157Y290074D01*
X87413Y290382D01*
X86614Y290487D01*
X85816Y290382D01*
X85071Y290074D01*
X84720Y289804D01*
X83800Y290165D01*
X83720Y290239D01*
Y291316D01*
X83642Y291706D01*
X83421Y292037D01*
X81504Y293954D01*
X81721Y294477D01*
X81826Y295276D01*
X81721Y296074D01*
X81412Y296818D01*
X80922Y297457D01*
X80283Y297948D01*
X79539Y298256D01*
X78740Y298361D01*
X77942Y298256D01*
X77197Y297948D01*
X76558Y297457D01*
X76068Y296818D01*
X75760Y296074D01*
X75655Y295276D01*
X75760Y294477D01*
X76068Y293733D01*
X76558Y293094D01*
X77197Y292603D01*
X77942Y292295D01*
X78740Y292190D01*
X79539Y292295D01*
X80062Y292512D01*
X81462Y291112D01*
X81476Y290400D01*
X81449Y290285D01*
X80464Y289935D01*
X80283Y290074D01*
X79539Y290382D01*
X78740Y290487D01*
X77942Y290382D01*
X77197Y290074D01*
X76820Y289784D01*
X75964Y290098D01*
X75820Y290224D01*
Y291342D01*
X75742Y291732D01*
X75521Y292063D01*
X73630Y293954D01*
X73847Y294477D01*
X73952Y295276D01*
X73847Y296074D01*
X73538Y296818D01*
X73048Y297457D01*
X72409Y297948D01*
X71665Y298256D01*
X70866Y298361D01*
X70068Y298256D01*
X69323Y297948D01*
X68684Y297457D01*
X68194Y296818D01*
X67886Y296074D01*
X67781Y295276D01*
X67886Y294477D01*
X68194Y293733D01*
X68684Y293094D01*
X69323Y292603D01*
X70068Y292295D01*
X70866Y292190D01*
X71665Y292295D01*
X72188Y292512D01*
X73569Y291131D01*
X73602Y290727D01*
X73528Y290341D01*
X72545Y289969D01*
X72409Y290074D01*
X71665Y290382D01*
X70866Y290487D01*
X70068Y290382D01*
X69323Y290074D01*
X68920Y289764D01*
X68135Y290033D01*
X67920Y290209D01*
Y291368D01*
X67842Y291758D01*
X67621Y292089D01*
X65756Y293954D01*
X65973Y294477D01*
X66078Y295276D01*
X65973Y296074D01*
X65664Y296818D01*
X65174Y297457D01*
X64535Y297948D01*
X63791Y298256D01*
X62992Y298361D01*
X62194Y298256D01*
X61449Y297948D01*
X60810Y297457D01*
X60320Y296818D01*
X60012Y296074D01*
X59907Y295276D01*
X60012Y294477D01*
X60320Y293733D01*
X60810Y293094D01*
X61449Y292603D01*
X62194Y292295D01*
X62992Y292190D01*
X63791Y292295D01*
X64314Y292512D01*
X65674Y291151D01*
X65699Y290979D01*
X65608Y290396D01*
X64626Y290004D01*
X64535Y290074D01*
X63791Y290382D01*
X62992Y290487D01*
X62194Y290382D01*
X61449Y290074D01*
X61020Y289744D01*
X60311Y289969D01*
X60020Y290194D01*
Y291394D01*
X59942Y291784D01*
X59721Y292115D01*
X57882Y293954D01*
X58099Y294477D01*
X58204Y295276D01*
X58099Y296074D01*
X57790Y296818D01*
X57300Y297457D01*
X56661Y297948D01*
X55917Y298256D01*
X55118Y298361D01*
X54320Y298256D01*
X53575Y297948D01*
X52936Y297457D01*
X52446Y296818D01*
X52138Y296074D01*
X52033Y295276D01*
X52138Y294477D01*
X52446Y293733D01*
X52936Y293094D01*
X53575Y292603D01*
X54320Y292295D01*
X55118Y292190D01*
X55917Y292295D01*
X56440Y292512D01*
X57779Y291173D01*
X57780Y291167D01*
X57688Y290450D01*
X56707Y290038D01*
X56661Y290074D01*
X55917Y290382D01*
X55118Y290487D01*
X54320Y290382D01*
X53575Y290074D01*
X53120Y289724D01*
X52469Y289914D01*
X52120Y290161D01*
Y291420D01*
X52042Y291810D01*
X51821Y292141D01*
X50008Y293954D01*
X50224Y294477D01*
X50330Y295276D01*
X50224Y296074D01*
X49916Y296818D01*
X49426Y297457D01*
X48787Y297948D01*
X48043Y298256D01*
X47244Y298361D01*
X46446Y298256D01*
X45701Y297948D01*
X45062Y297457D01*
X44572Y296818D01*
X44264Y296074D01*
X44159Y295276D01*
X44264Y294477D01*
X44572Y293733D01*
X45062Y293094D01*
X45701Y292603D01*
X46446Y292295D01*
X47244Y292190D01*
X48043Y292295D01*
X48566Y292512D01*
X49863Y291215D01*
X49775Y290493D01*
X48794Y290068D01*
X48787Y290074D01*
X48043Y290382D01*
X47244Y290487D01*
X46446Y290382D01*
X45701Y290074D01*
X45320Y289781D01*
X44475Y290088D01*
X44320Y290221D01*
Y291346D01*
X44242Y291736D01*
X44021Y292067D01*
X42134Y293954D01*
X42350Y294477D01*
X42456Y295276D01*
X42350Y296074D01*
X42042Y296818D01*
X41552Y297457D01*
X40913Y297948D01*
X40169Y298256D01*
X39370Y298361D01*
X38572Y298256D01*
X37827Y297948D01*
X37188Y297457D01*
X36698Y296818D01*
X36390Y296074D01*
X36285Y295276D01*
X36390Y294477D01*
X36698Y293733D01*
X37188Y293094D01*
X37827Y292603D01*
X38572Y292295D01*
X39370Y292190D01*
X40169Y292295D01*
X40692Y292512D01*
X42070Y291134D01*
X42103Y290770D01*
X42025Y290350D01*
X41042Y289975D01*
X40913Y290074D01*
X40169Y290382D01*
X39370Y290487D01*
X38572Y290382D01*
X37827Y290074D01*
X37420Y289761D01*
X36646Y290023D01*
X36420Y290206D01*
Y291372D01*
X36342Y291762D01*
X36121Y292093D01*
X34260Y293954D01*
X34476Y294477D01*
X34582Y295276D01*
X34476Y296074D01*
X34168Y296818D01*
X33678Y297457D01*
X33039Y297948D01*
X32295Y298256D01*
X31496Y298361D01*
X30698Y298256D01*
X29953Y297948D01*
X29314Y297457D01*
X28824Y296818D01*
X28516Y296074D01*
X28411Y295276D01*
X28516Y294477D01*
X28824Y293733D01*
X29314Y293094D01*
X29953Y292603D01*
X30698Y292295D01*
X31496Y292190D01*
X32295Y292295D01*
X32818Y292512D01*
X33643Y291686D01*
X33606Y291462D01*
X32490Y290842D01*
X32425Y290869D01*
X32246Y290893D01*
Y287402D01*
X30746D01*
Y290893D01*
X30567Y290869D01*
X29701Y290510D01*
X29520Y290371D01*
X28520Y290864D01*
Y291398D01*
X28442Y291788D01*
X28221Y292119D01*
X26386Y293954D01*
X26602Y294477D01*
X26708Y295276D01*
X26602Y296074D01*
X26294Y296818D01*
X25804Y297457D01*
X25165Y297948D01*
X24421Y298256D01*
X23622Y298361D01*
X22824Y298256D01*
X22079Y297948D01*
X21440Y297457D01*
X20950Y296818D01*
X20642Y296074D01*
X20537Y295276D01*
X20642Y294477D01*
X20950Y293733D01*
X21440Y293094D01*
X22079Y292603D01*
X22824Y292295D01*
X23622Y292190D01*
X24421Y292295D01*
X24944Y292512D01*
X25747Y291708D01*
X25708Y291472D01*
X24592Y290852D01*
X24551Y290869D01*
X24372Y290893D01*
Y287402D01*
Y283911D01*
X24551Y283934D01*
X25417Y284293D01*
X25577Y284416D01*
X25750Y284450D01*
X26774Y284280D01*
X26859Y284200D01*
X49779Y261279D01*
X50110Y261058D01*
X50500Y260980D01*
X73578D01*
X100980Y233578D01*
Y205523D01*
X100919Y205481D01*
X100587Y204985D01*
X100471Y204400D01*
X100587Y203815D01*
X100919Y203319D01*
X101415Y202987D01*
X102000Y202871D01*
X102585Y202987D01*
X103081Y203319D01*
X103413Y203815D01*
X103529Y204400D01*
X103413Y204985D01*
X103411Y204988D01*
X103521Y205349D01*
X104515Y205887D01*
X105100Y205771D01*
X105685Y205887D01*
X105784Y205953D01*
X106849Y205608D01*
X106884Y205576D01*
X106992Y205126D01*
X106898Y204985D01*
X106782Y204400D01*
X106898Y203815D01*
X107230Y203319D01*
X107726Y202987D01*
X108311Y202871D01*
X108896Y202987D01*
X109392Y203319D01*
X109724Y203815D01*
X109840Y204400D01*
X109724Y204985D01*
X109832Y205341D01*
X110815Y205887D01*
X111400Y205771D01*
X111985Y205887D01*
X112050Y205930D01*
X113149Y205573D01*
X113161Y205561D01*
X113272Y205112D01*
X113187Y204985D01*
X113071Y204400D01*
X113187Y203815D01*
X113519Y203319D01*
X114015Y202987D01*
X114600Y202871D01*
X115185Y202987D01*
X115681Y203319D01*
X116013Y203815D01*
X116129Y204400D01*
X116013Y204985D01*
X115928Y205112D01*
X116039Y205561D01*
X116051Y205573D01*
X117150Y205930D01*
X117215Y205887D01*
X117800Y205771D01*
X118385Y205887D01*
X119379Y205349D01*
X119489Y204988D01*
X119487Y204985D01*
X119371Y204400D01*
X119487Y203815D01*
X119819Y203319D01*
X120315Y202987D01*
X120900Y202871D01*
X121485Y202987D01*
X121981Y203319D01*
X122313Y203815D01*
X122429Y204400D01*
X122313Y204985D01*
X122311Y204988D01*
X122421Y205349D01*
X123415Y205887D01*
X124000Y205771D01*
X124585Y205887D01*
X124650Y205930D01*
X125749Y205573D01*
X125761Y205561D01*
X125872Y205112D01*
X125787Y204985D01*
X125671Y204400D01*
X125787Y203815D01*
X126119Y203319D01*
X126615Y202987D01*
X127200Y202871D01*
X127785Y202987D01*
X128281Y203319D01*
X128613Y203815D01*
X128729Y204400D01*
X128613Y204985D01*
X128528Y205112D01*
X128639Y205561D01*
X128651Y205573D01*
X129750Y205930D01*
X129815Y205887D01*
X130400Y205771D01*
X130985Y205887D01*
X131980Y205349D01*
X132089Y204988D01*
X132087Y204985D01*
X131971Y204400D01*
X132087Y203815D01*
X132419Y203319D01*
X132915Y202987D01*
X133500Y202871D01*
X134085Y202987D01*
X134581Y203319D01*
X134913Y203815D01*
X135029Y204400D01*
X134913Y204985D01*
X134911Y204988D01*
X135020Y205349D01*
X136015Y205887D01*
X136600Y205771D01*
X137185Y205887D01*
X137250Y205930D01*
X138349Y205573D01*
X138361Y205561D01*
X138472Y205112D01*
X138387Y204985D01*
X138271Y204400D01*
X138387Y203815D01*
X138719Y203319D01*
X139215Y202987D01*
X139800Y202871D01*
X140385Y202987D01*
X140881Y203319D01*
X141213Y203815D01*
X141329Y204400D01*
X141213Y204985D01*
X141211Y204988D01*
X141321Y205349D01*
X142315Y205887D01*
X142900Y205771D01*
X143485Y205887D01*
X143550Y205930D01*
X144649Y205573D01*
X144661Y205561D01*
X144772Y205112D01*
X144687Y204985D01*
X144571Y204400D01*
X144687Y203815D01*
X145019Y203319D01*
X145515Y202987D01*
X146100Y202871D01*
X146685Y202987D01*
X147181Y203319D01*
X147513Y203815D01*
X147629Y204400D01*
X147513Y204985D01*
X147428Y205112D01*
X147539Y205561D01*
X147551Y205573D01*
X148650Y205930D01*
X148715Y205887D01*
X149300Y205771D01*
X149885Y205887D01*
X150880Y205349D01*
X150989Y204988D01*
X150987Y204985D01*
X150871Y204400D01*
X150987Y203815D01*
X151319Y203319D01*
X151815Y202987D01*
X152400Y202871D01*
X152985Y202987D01*
X153481Y203319D01*
X153813Y203815D01*
X153929Y204400D01*
X153813Y204985D01*
X153728Y205112D01*
X153839Y205561D01*
X153851Y205573D01*
X154950Y205930D01*
X155015Y205887D01*
X155600Y205771D01*
X156185Y205887D01*
X157179Y205349D01*
X157289Y204988D01*
X157287Y204985D01*
X157171Y204400D01*
X157287Y203815D01*
X157619Y203319D01*
X158115Y202987D01*
X158700Y202871D01*
X159285Y202987D01*
X159781Y203319D01*
X160113Y203815D01*
X160229Y204400D01*
X160113Y204985D01*
X160028Y205112D01*
X160139Y205561D01*
X160151Y205573D01*
X161250Y205930D01*
X161315Y205887D01*
X161900Y205771D01*
X162485Y205887D01*
X163052Y205624D01*
X163441Y205327D01*
X163487Y204985D01*
X163371Y204400D01*
X163487Y203815D01*
X163819Y203319D01*
X164315Y202987D01*
X164900Y202871D01*
X165485Y202987D01*
X165981Y203319D01*
X166313Y203815D01*
X166429Y204400D01*
X166313Y204985D01*
X166228Y205112D01*
X166339Y205561D01*
X166351Y205573D01*
X167450Y205930D01*
X167515Y205887D01*
X168100Y205771D01*
X168685Y205887D01*
X168750Y205930D01*
X169849Y205573D01*
X169861Y205561D01*
X169972Y205112D01*
X169887Y204985D01*
X169771Y204400D01*
X169887Y203815D01*
X170219Y203319D01*
X170715Y202987D01*
X171300Y202871D01*
X171885Y202987D01*
X172381Y203319D01*
X172713Y203815D01*
X172829Y204400D01*
X172713Y204985D01*
X172711Y204988D01*
X172820Y205349D01*
X173815Y205887D01*
X174400Y205771D01*
X174985Y205887D01*
X175050Y205930D01*
X176149Y205573D01*
X176161Y205561D01*
X176272Y205112D01*
X176187Y204985D01*
X176071Y204400D01*
X176187Y203815D01*
X176519Y203319D01*
X177015Y202987D01*
X177600Y202871D01*
X178185Y202987D01*
X178681Y203319D01*
X179013Y203815D01*
X179129Y204400D01*
X179013Y204985D01*
X179011Y204988D01*
X179121Y205349D01*
X180115Y205887D01*
X180700Y205771D01*
X181285Y205887D01*
X181350Y205930D01*
X182449Y205573D01*
X182461Y205561D01*
X182572Y205112D01*
X182487Y204985D01*
X182371Y204400D01*
X182487Y203815D01*
X182819Y203319D01*
X183315Y202987D01*
X183900Y202871D01*
X184485Y202987D01*
X184981Y203319D01*
X185313Y203815D01*
X185429Y204400D01*
X185313Y204985D01*
X185311Y204988D01*
X185421Y205349D01*
X186415Y205887D01*
X187000Y205771D01*
X187585Y205887D01*
X187650Y205930D01*
X188749Y205573D01*
X188761Y205561D01*
X188872Y205112D01*
X188787Y204985D01*
X188671Y204400D01*
X188787Y203815D01*
X189119Y203319D01*
X189615Y202987D01*
X190200Y202871D01*
X190785Y202987D01*
X191281Y203319D01*
X191613Y203815D01*
X191729Y204400D01*
X191613Y204985D01*
X191611Y204988D01*
X191720Y205349D01*
X192715Y205887D01*
X193300Y205771D01*
X193885Y205887D01*
X193950Y205930D01*
X195049Y205573D01*
X195061Y205561D01*
X195172Y205112D01*
X195087Y204985D01*
X194971Y204400D01*
X195087Y203815D01*
X195419Y203319D01*
X195915Y202987D01*
X196500Y202871D01*
X197085Y202987D01*
X197581Y203319D01*
X197913Y203815D01*
X198029Y204400D01*
X197913Y204985D01*
X197911Y204988D01*
X198021Y205349D01*
X199015Y205887D01*
X199600Y205771D01*
X200185Y205887D01*
X200250Y205930D01*
X201349Y205573D01*
X201361Y205561D01*
X201472Y205112D01*
X201387Y204985D01*
X201271Y204400D01*
X201387Y203815D01*
X201719Y203319D01*
X202215Y202987D01*
X202800Y202871D01*
X203385Y202987D01*
X203881Y203319D01*
X204213Y203815D01*
X204329Y204400D01*
X204213Y204985D01*
X203881Y205481D01*
X203820Y205523D01*
Y207378D01*
X206442Y210000D01*
X211951D01*
X212334Y209076D01*
X209173Y205915D01*
X209100Y205929D01*
X208515Y205813D01*
X208019Y205481D01*
X207687Y204985D01*
X207571Y204400D01*
X207687Y203815D01*
X208019Y203319D01*
X208515Y202987D01*
X209100Y202871D01*
X209685Y202987D01*
X210181Y203319D01*
X210513Y203815D01*
X210629Y204400D01*
X210615Y204473D01*
X216142Y210000D01*
X220580D01*
Y205523D01*
X220519Y205481D01*
X220187Y204985D01*
X220071Y204400D01*
X220187Y203815D01*
X220519Y203319D01*
X221015Y202987D01*
X221600Y202871D01*
X222185Y202987D01*
X222681Y203319D01*
X223013Y203815D01*
X223129Y204400D01*
X223013Y204985D01*
X222681Y205481D01*
X222620Y205523D01*
Y210000D01*
X232000D01*
X245980Y223980D01*
X247500D01*
X247890Y224058D01*
X248221Y224279D01*
X302922Y278980D01*
X338300D01*
X338690Y279058D01*
X339021Y279279D01*
X343221Y283479D01*
X343442Y283810D01*
X343520Y284200D01*
Y284589D01*
X343708Y284747D01*
X344520Y285032D01*
X344914Y284730D01*
X345658Y284421D01*
X346457Y284316D01*
X347255Y284421D01*
X347999Y284730D01*
X348638Y285220D01*
X349129Y285859D01*
X349437Y286603D01*
X349542Y287402D01*
X349437Y288200D01*
X349129Y288944D01*
X348638Y289583D01*
X347999Y290074D01*
X347255Y290382D01*
X346457Y290487D01*
X345658Y290382D01*
X344914Y290074D01*
X344739Y289939D01*
X343753Y290292D01*
X343719Y290443D01*
X343737Y291114D01*
X345135Y292512D01*
X345658Y292295D01*
X346457Y292190D01*
X347255Y292295D01*
X347999Y292603D01*
X348638Y293094D01*
X349129Y293733D01*
X349437Y294477D01*
X349542Y295276D01*
X349437Y296074D01*
X349129Y296818D01*
X348638Y297457D01*
X347999Y297948D01*
X347255Y298256D01*
X346457Y298361D01*
D02*
G37*
G36*
X34987Y215785D02*
X31496D01*
X28005D01*
X28029Y215606D01*
X28387Y214740D01*
X28958Y213997D01*
X29701Y213427D01*
X30440Y213121D01*
X30567Y212609D01*
Y212587D01*
X30440Y212076D01*
X29701Y211770D01*
X28958Y211200D01*
X28387Y210456D01*
X28029Y209591D01*
X28005Y209411D01*
X31496D01*
X34987D01*
X34964Y209591D01*
X34605Y210456D01*
X34034Y211200D01*
X33291Y211770D01*
X32552Y212076D01*
X32425Y212587D01*
Y212609D01*
X32552Y213121D01*
X33291Y213427D01*
X34034Y213997D01*
X34605Y214740D01*
X34964Y215606D01*
X34987Y215785D01*
D02*
G37*
G36*
X23622Y203873D02*
X22824Y203768D01*
X22079Y203460D01*
X21440Y202969D01*
X20950Y202330D01*
X20642Y201586D01*
X20537Y200787D01*
X20642Y199989D01*
X20950Y199245D01*
X21440Y198606D01*
X22079Y198115D01*
X22824Y197807D01*
X23622Y197702D01*
X24421Y197807D01*
X25165Y198115D01*
X25804Y198606D01*
X26294Y199245D01*
X26602Y199989D01*
X26708Y200787D01*
X26602Y201586D01*
X26294Y202330D01*
X25804Y202969D01*
X25165Y203460D01*
X24421Y203768D01*
X23622Y203873D01*
D02*
G37*
G36*
Y219621D02*
X22824Y219516D01*
X22079Y219208D01*
X21440Y218717D01*
X20950Y218078D01*
X20642Y217334D01*
X20537Y216535D01*
X20642Y215737D01*
X20950Y214993D01*
X21440Y214354D01*
X22079Y213863D01*
X22824Y213555D01*
X23622Y213450D01*
X24421Y213555D01*
X25165Y213863D01*
X25804Y214354D01*
X26294Y214993D01*
X26602Y215737D01*
X26708Y216535D01*
X26602Y217334D01*
X26294Y218078D01*
X25804Y218717D01*
X25165Y219208D01*
X24421Y219516D01*
X23622Y219621D01*
D02*
G37*
G36*
X34987Y223659D02*
X31496D01*
X28005D01*
X28029Y223480D01*
X28387Y222615D01*
X28958Y221871D01*
X29701Y221301D01*
X30440Y220995D01*
X30567Y220484D01*
Y220461D01*
X30440Y219950D01*
X29701Y219644D01*
X28958Y219074D01*
X28387Y218330D01*
X28029Y217464D01*
X28005Y217285D01*
X31496D01*
X34987D01*
X34964Y217464D01*
X34605Y218330D01*
X34034Y219074D01*
X33291Y219644D01*
X32552Y219950D01*
X32425Y220461D01*
Y220484D01*
X32552Y220995D01*
X33291Y221301D01*
X34034Y221871D01*
X34605Y222615D01*
X34964Y223480D01*
X34987Y223659D01*
D02*
G37*
G36*
X95531Y218955D02*
X94553Y218760D01*
X93723Y218206D01*
X93169Y217376D01*
X92975Y216398D01*
X93169Y215419D01*
X93723Y214590D01*
X94553Y214035D01*
X95531Y213841D01*
X96510Y214035D01*
X97339Y214590D01*
X97894Y215419D01*
X98089Y216398D01*
X97894Y217376D01*
X97339Y218206D01*
X96510Y218760D01*
X95531Y218955D01*
D02*
G37*
G36*
X34987Y200037D02*
X31496D01*
X28005D01*
X28029Y199858D01*
X28387Y198993D01*
X28958Y198249D01*
X29701Y197679D01*
X30440Y197373D01*
X30567Y196861D01*
Y196839D01*
X30440Y196328D01*
X29701Y196022D01*
X28958Y195452D01*
X28387Y194708D01*
X28029Y193842D01*
X28005Y193663D01*
X31496D01*
X34987D01*
X34964Y193842D01*
X34605Y194708D01*
X34034Y195452D01*
X33291Y196022D01*
X32552Y196328D01*
X32425Y196839D01*
Y196861D01*
X32552Y197373D01*
X33291Y197679D01*
X34034Y198249D01*
X34605Y198993D01*
X34964Y199858D01*
X34987Y200037D01*
D02*
G37*
G36*
X23622Y188125D02*
X22824Y188020D01*
X22079Y187711D01*
X21440Y187221D01*
X20950Y186582D01*
X20642Y185838D01*
X20537Y185039D01*
X20642Y184241D01*
X20950Y183497D01*
X21440Y182858D01*
X22079Y182367D01*
X22824Y182059D01*
X23622Y181954D01*
X24421Y182059D01*
X25165Y182367D01*
X25804Y182858D01*
X26294Y183497D01*
X26602Y184241D01*
X26708Y185039D01*
X26602Y185838D01*
X26294Y186582D01*
X25804Y187221D01*
X25165Y187711D01*
X24421Y188020D01*
X23622Y188125D01*
D02*
G37*
G36*
X35055Y184289D02*
X32246D01*
Y181480D01*
X35055D01*
Y184289D01*
D02*
G37*
G36*
X34987Y192163D02*
X31496D01*
X28005D01*
X28029Y191984D01*
X28387Y191119D01*
X28958Y190375D01*
X29701Y189805D01*
X30199Y189598D01*
X30000Y188598D01*
X27937D01*
Y185789D01*
X31496D01*
X35055D01*
Y188598D01*
X32992D01*
X32793Y189598D01*
X33291Y189805D01*
X34034Y190375D01*
X34605Y191119D01*
X34964Y191984D01*
X34987Y192163D01*
D02*
G37*
G36*
X23622Y195999D02*
X22824Y195894D01*
X22079Y195586D01*
X21440Y195095D01*
X20950Y194456D01*
X20642Y193712D01*
X20537Y192913D01*
X20642Y192115D01*
X20950Y191371D01*
X21440Y190732D01*
X22079Y190241D01*
X22824Y189933D01*
X23622Y189828D01*
X24421Y189933D01*
X25165Y190241D01*
X25804Y190732D01*
X26294Y191371D01*
X26602Y192115D01*
X26708Y192913D01*
X26602Y193712D01*
X26294Y194456D01*
X25804Y195095D01*
X25165Y195586D01*
X24421Y195894D01*
X23622Y195999D01*
D02*
G37*
G36*
Y211747D02*
X22824Y211642D01*
X22079Y211333D01*
X21440Y210843D01*
X20950Y210204D01*
X20642Y209460D01*
X20537Y208661D01*
X20642Y207863D01*
X20950Y207119D01*
X21440Y206480D01*
X22079Y205989D01*
X22824Y205681D01*
X23622Y205576D01*
X24421Y205681D01*
X24944Y205898D01*
X26763Y204079D01*
X27093Y203858D01*
X27483Y203780D01*
X28046D01*
X28539Y202780D01*
X28387Y202582D01*
X28029Y201716D01*
X28005Y201537D01*
X31496D01*
X34987D01*
X34964Y201716D01*
X34605Y202582D01*
X34453Y202780D01*
X34946Y203780D01*
X74178D01*
X88585Y189373D01*
X88571Y189300D01*
X88687Y188715D01*
X89019Y188219D01*
X89515Y187887D01*
X90100Y187771D01*
X90685Y187887D01*
X91181Y188219D01*
X91513Y188715D01*
X91629Y189300D01*
X91513Y189885D01*
X91181Y190381D01*
X90685Y190713D01*
X90100Y190829D01*
X90027Y190815D01*
X75321Y205521D01*
X74990Y205742D01*
X74600Y205820D01*
X35062D01*
X34569Y206820D01*
X34605Y206867D01*
X34964Y207732D01*
X34987Y207911D01*
X31496D01*
X28005D01*
X28029Y207732D01*
X28039Y207706D01*
X27419Y206590D01*
X27175Y206550D01*
X26386Y207340D01*
X26602Y207863D01*
X26708Y208661D01*
X26602Y209460D01*
X26294Y210204D01*
X25804Y210843D01*
X25165Y211333D01*
X24421Y211642D01*
X23622Y211747D01*
D02*
G37*
G36*
X7124Y263030D02*
X1919D01*
X1961Y262603D01*
X2304Y261472D01*
X2861Y260430D01*
X3611Y259516D01*
X4524Y258767D01*
X5567Y258209D01*
X6698Y257866D01*
X7124Y257824D01*
Y263030D01*
D02*
G37*
G36*
X32246Y235774D02*
Y233033D01*
X34987D01*
X34964Y233213D01*
X34605Y234078D01*
X34034Y234822D01*
X33291Y235392D01*
X32425Y235751D01*
X32246Y235774D01*
D02*
G37*
G36*
X13829Y263030D02*
X8624D01*
Y257824D01*
X9050Y257866D01*
X10181Y258209D01*
X11224Y258767D01*
X12137Y259516D01*
X12887Y260430D01*
X13444Y261472D01*
X13787Y262603D01*
X13829Y263030D01*
D02*
G37*
G36*
X411467Y266967D02*
X406262D01*
Y261761D01*
X406688Y261803D01*
X407819Y262146D01*
X408861Y262704D01*
X409775Y263453D01*
X410525Y264367D01*
X411082Y265409D01*
X411425Y266540D01*
X411467Y266967D01*
D02*
G37*
G36*
X35433Y269327D02*
X33997Y269138D01*
X32659Y268584D01*
X31510Y267702D01*
X30629Y266553D01*
X30075Y265215D01*
X29886Y263779D01*
X30075Y262344D01*
X30629Y261006D01*
X31510Y259857D01*
X32659Y258975D01*
X33997Y258421D01*
X35433Y258232D01*
X36869Y258421D01*
X38207Y258975D01*
X39356Y259857D01*
X40237Y261006D01*
X40791Y262344D01*
X40980Y263779D01*
X40791Y265215D01*
X40237Y266553D01*
X39356Y267702D01*
X38207Y268584D01*
X36869Y269138D01*
X35433Y269327D01*
D02*
G37*
G36*
X30746Y235774D02*
X30567Y235751D01*
X29701Y235392D01*
X28958Y234822D01*
X28387Y234078D01*
X28029Y233213D01*
X28005Y233033D01*
X30746D01*
Y235774D01*
D02*
G37*
G36*
X74803Y242658D02*
X73180Y242530D01*
X71597Y242150D01*
X70093Y241527D01*
X68705Y240677D01*
X67467Y239619D01*
X66410Y238381D01*
X65559Y236993D01*
X64936Y235489D01*
X64556Y233906D01*
X64429Y232283D01*
X64556Y230661D01*
X64936Y229078D01*
X65559Y227573D01*
X66410Y226185D01*
X67467Y224948D01*
X68705Y223890D01*
X70093Y223040D01*
X71597Y222417D01*
X73180Y222037D01*
X74803Y221909D01*
X76426Y222037D01*
X78009Y222417D01*
X79513Y223040D01*
X80901Y223890D01*
X82139Y224948D01*
X83196Y226185D01*
X84047Y227573D01*
X84670Y229078D01*
X85050Y230661D01*
X85178Y232283D01*
X85050Y233906D01*
X84670Y235489D01*
X84047Y236993D01*
X83196Y238381D01*
X82139Y239619D01*
X80901Y240677D01*
X79513Y241527D01*
X78009Y242150D01*
X76426Y242530D01*
X74803Y242658D01*
D02*
G37*
G36*
X23622Y227495D02*
X22824Y227390D01*
X22079Y227081D01*
X21440Y226591D01*
X20950Y225952D01*
X20642Y225208D01*
X20537Y224410D01*
X20642Y223611D01*
X20950Y222867D01*
X21440Y222228D01*
X22079Y221737D01*
X22824Y221429D01*
X23622Y221324D01*
X24421Y221429D01*
X25165Y221737D01*
X25804Y222228D01*
X26294Y222867D01*
X26602Y223611D01*
X26708Y224410D01*
X26602Y225208D01*
X26294Y225952D01*
X25804Y226591D01*
X25165Y227081D01*
X24421Y227390D01*
X23622Y227495D01*
D02*
G37*
G36*
X346457Y242658D02*
X344834Y242530D01*
X343251Y242150D01*
X341747Y241527D01*
X340359Y240677D01*
X339121Y239619D01*
X338064Y238381D01*
X337213Y236993D01*
X336590Y235489D01*
X336210Y233906D01*
X336082Y232283D01*
X336210Y230661D01*
X336590Y229078D01*
X337213Y227573D01*
X338064Y226185D01*
X339121Y224948D01*
X340359Y223890D01*
X341747Y223040D01*
X343251Y222417D01*
X344834Y222037D01*
X346457Y221909D01*
X348080Y222037D01*
X349663Y222417D01*
X351167Y223040D01*
X352555Y223890D01*
X353793Y224948D01*
X354850Y226185D01*
X355700Y227573D01*
X356324Y229078D01*
X356703Y230661D01*
X356831Y232283D01*
X356703Y233906D01*
X356324Y235489D01*
X355700Y236993D01*
X354850Y238381D01*
X353793Y239619D01*
X352555Y240677D01*
X351167Y241527D01*
X349663Y242150D01*
X348080Y242530D01*
X346457Y242658D01*
D02*
G37*
G36*
X23622Y235369D02*
X22824Y235264D01*
X22079Y234956D01*
X21440Y234465D01*
X20950Y233826D01*
X20642Y233082D01*
X20537Y232283D01*
X20642Y231485D01*
X20950Y230741D01*
X21440Y230102D01*
X22079Y229611D01*
X22824Y229303D01*
X23622Y229198D01*
X24421Y229303D01*
X25165Y229611D01*
X25804Y230102D01*
X26294Y230741D01*
X26602Y231485D01*
X26708Y232283D01*
X26602Y233082D01*
X26294Y233826D01*
X25804Y234465D01*
X25165Y234956D01*
X24421Y235264D01*
X23622Y235369D01*
D02*
G37*
G36*
X34987Y231533D02*
X31496D01*
X28005D01*
X28029Y231354D01*
X28387Y230489D01*
X28958Y229745D01*
X29701Y229175D01*
X30440Y228869D01*
X30567Y228357D01*
Y228335D01*
X30440Y227824D01*
X29701Y227518D01*
X28958Y226948D01*
X28387Y226204D01*
X28029Y225339D01*
X28005Y225160D01*
X31496D01*
X34987D01*
X34964Y225339D01*
X34605Y226204D01*
X34034Y226948D01*
X33291Y227518D01*
X32552Y227824D01*
X32425Y228335D01*
Y228357D01*
X32552Y228869D01*
X33291Y229175D01*
X34034Y229745D01*
X34605Y230489D01*
X34964Y231354D01*
X34987Y231533D01*
D02*
G37*
%LPD*%
D13*
X210600Y65500D02*
X215300Y60800D01*
X215400D01*
X334700Y-54D02*
Y7300D01*
X320800Y21200D02*
X334700Y7300D01*
X302500Y21200D02*
X320800D01*
X225000Y79000D02*
X244700D01*
X218500Y85500D02*
X225000Y79000D01*
X218500Y85500D02*
Y86900D01*
X244700Y79000D02*
X302500Y21200D01*
X338583Y-3937D02*
X346457D01*
X334700Y-54D02*
X338583Y-3937D01*
D14*
X223700Y49000D02*
X229300D01*
X193300Y79400D02*
X223700Y49000D01*
X193300Y79400D02*
Y86900D01*
X227000Y52500D02*
X233900D01*
X196500Y83000D02*
X227000Y52500D01*
X196500Y83000D02*
Y84100D01*
X220000Y63000D02*
X233000D01*
X199600Y83400D02*
X220000Y63000D01*
X199600Y83400D02*
Y86900D01*
X263800Y-21D02*
Y5700D01*
X190200Y79300D02*
X263800Y5700D01*
X190200Y79300D02*
Y84100D01*
X287400Y2D02*
Y8600D01*
X102000Y204400D02*
Y234000D01*
X74000Y262000D02*
X102000Y234000D01*
X50500Y262000D02*
X74000D01*
X105100Y207300D02*
Y234900D01*
X75000Y265000D02*
X105100Y234900D01*
X54400Y265000D02*
X75000D01*
X108311Y204400D02*
Y235689D01*
X76000Y268000D02*
X108311Y235689D01*
X59000Y268000D02*
X76000D01*
X111400Y207300D02*
Y236600D01*
X77000Y271000D02*
X111400Y236600D01*
X64000Y271000D02*
X77000D01*
X114600Y204400D02*
Y237400D01*
X78000Y274000D02*
X114600Y237400D01*
X68697Y274000D02*
X78000D01*
X117800Y207300D02*
Y238200D01*
X79000Y277000D02*
X117800Y238200D01*
X74000Y277000D02*
X79000D01*
X74800Y285200D02*
Y291342D01*
X124000Y207300D02*
Y243000D01*
X82700Y284300D02*
X124000Y243000D01*
X82700Y284300D02*
Y291316D01*
X127200Y204400D02*
Y247300D01*
X90600Y283900D02*
X127200Y247300D01*
X90600Y283900D02*
Y291290D01*
X130400Y207300D02*
Y251600D01*
X98400Y283600D02*
X130400Y251600D01*
X98400Y283600D02*
Y291364D01*
X133500Y204400D02*
Y256500D01*
X106300Y283700D02*
X133500Y256500D01*
X106300Y283700D02*
Y291338D01*
X136600Y207300D02*
Y261400D01*
X114200Y283800D02*
X136600Y261400D01*
X114200Y283800D02*
Y291312D01*
X139800Y204400D02*
Y266200D01*
X122000Y284000D02*
X139800Y266200D01*
X122000Y284000D02*
Y291386D01*
X142900Y207300D02*
Y271100D01*
X129900Y284100D02*
X142900Y271100D01*
X129900Y284100D02*
Y291360D01*
X146100Y204400D02*
Y275900D01*
X137800Y284200D02*
X146100Y275900D01*
X137800Y284200D02*
Y291334D01*
X149300Y207300D02*
Y279700D01*
X145700Y283300D02*
X149300Y279700D01*
X145700Y283300D02*
Y291308D01*
X120900Y204400D02*
Y239100D01*
X74800Y285200D02*
X120900Y239100D01*
X27500Y285000D02*
X50500Y262000D01*
X27500Y285000D02*
Y291398D01*
X338300Y280000D02*
X342500Y284200D01*
X302500Y280000D02*
X338300D01*
X247500Y225000D02*
X302500Y280000D01*
X311000Y285000D02*
Y291315D01*
X308500Y282500D02*
X311000Y285000D01*
X299500Y282500D02*
X308500D01*
X245000Y228000D02*
X299500Y282500D01*
X234000Y225000D02*
X247500D01*
X89900Y54400D02*
Y59400D01*
X43300Y7800D02*
X89900Y54400D01*
X43300Y-7D02*
Y7800D01*
X108279Y77779D02*
Y84100D01*
X89900Y59400D02*
X108279Y77779D01*
X232700Y228000D02*
X245000D01*
X164900Y61100D02*
X174000Y52000D01*
X164900Y61100D02*
Y84100D01*
X174000Y26787D02*
Y52000D01*
X146100Y25100D02*
Y84100D01*
X152400Y46600D02*
Y84100D01*
X149300Y23300D02*
Y86900D01*
X168100Y62300D02*
X180000Y50400D01*
X168100Y62300D02*
Y86900D01*
X171300Y63300D02*
Y84100D01*
Y63300D02*
X183000Y51600D01*
X174400Y64900D02*
X186000Y53300D01*
X174400Y64900D02*
Y86900D01*
X169000Y21500D02*
Y48700D01*
X161900Y55800D02*
X169000Y48700D01*
X177500Y335D02*
Y13000D01*
X169000Y21500D02*
X177500Y13000D01*
X114200Y27D02*
Y32200D01*
X110236Y-3937D02*
X114200Y27D01*
X174000Y26787D02*
X204724Y-3937D01*
X202900Y84000D02*
Y84200D01*
Y84000D02*
X220900Y66000D01*
X223000Y72000D02*
X240000D01*
X212200Y82800D02*
X223000Y72000D01*
X212200Y82800D02*
Y86900D01*
X209100Y81900D02*
X222000Y69000D01*
X209100Y81900D02*
Y84100D01*
X222000Y69000D02*
X239100D01*
X220900Y66000D02*
X236000D01*
X242000Y75000D02*
X299750Y17250D01*
X224500Y75000D02*
X242000D01*
X215400Y84100D02*
X224500Y75000D01*
X240000Y72000D02*
X298100Y13900D01*
X239100Y69000D02*
X298100Y10000D01*
X236000Y66000D02*
X295300Y6700D01*
X233000Y63000D02*
X287400Y8600D01*
X229300Y49000D02*
X271700Y6600D01*
X158700Y51500D02*
X165000Y45200D01*
Y15300D02*
Y45200D01*
Y15300D02*
X169300Y11000D01*
X161400Y-17D02*
Y37600D01*
X156100Y42900D02*
X161400Y37600D01*
X156100Y42900D02*
Y78300D01*
X153500Y-43D02*
Y45500D01*
X152400Y46600D02*
X153500Y45500D01*
X114579Y67579D02*
Y84100D01*
X59100Y12100D02*
X114579Y67579D01*
X59100Y45D02*
Y12100D01*
X117779Y65779D02*
Y86900D01*
X66900Y14900D02*
X117779Y65779D01*
X66900Y-29D02*
Y14900D01*
X120879Y63879D02*
Y84100D01*
X74800Y17800D02*
X120879Y63879D01*
X74800Y-3D02*
Y17800D01*
X124079Y62079D02*
Y86900D01*
X82700Y20700D02*
X124079Y62079D01*
X82700Y23D02*
Y20700D01*
X127079Y60079D02*
Y84100D01*
X90500Y23500D02*
X127079Y60079D01*
X90500Y-51D02*
Y23500D01*
X130300Y58300D02*
Y86900D01*
X98400Y26400D02*
X130300Y58300D01*
X98400Y-25D02*
Y26400D01*
X133500Y56500D02*
Y84100D01*
X106300Y29300D02*
X133500Y56500D01*
X106300Y1D02*
Y29300D01*
X136600Y54600D02*
Y86900D01*
X114200Y32200D02*
X136600Y54600D01*
X122100Y35100D02*
X139800Y52800D01*
X122100Y53D02*
Y35100D01*
X139800Y52800D02*
Y84100D01*
X142900Y27900D02*
Y86900D01*
X129900Y14900D02*
X142900Y27900D01*
X129900Y-21D02*
Y14900D01*
X137800Y16800D02*
X146100Y25100D01*
X137800Y5D02*
Y16800D01*
X145700Y19700D02*
X149300Y23300D01*
X145700Y31D02*
Y19700D01*
X111479Y69479D02*
Y86900D01*
X51200Y9200D02*
X111479Y69479D01*
X51200Y19D02*
Y9200D01*
X74600Y204800D02*
X90100Y189300D01*
X27483Y204800D02*
X74600D01*
X23622Y208661D02*
X27483Y204800D01*
X192000Y54000D02*
Y57000D01*
X180700Y68300D02*
X192000Y57000D01*
X180700Y68300D02*
Y86900D01*
X189000Y49600D02*
Y55000D01*
X177600Y66400D02*
X189000Y55000D01*
X177600Y66400D02*
Y84100D01*
X180000Y35200D02*
Y50400D01*
Y35200D02*
X208700Y6500D01*
X183000Y40200D02*
Y51600D01*
Y40200D02*
X216500Y6700D01*
X186000Y44700D02*
Y53300D01*
Y44700D02*
X224400Y6300D01*
X189000Y49600D02*
X232200Y6400D01*
X192000Y54000D02*
X240200Y5800D01*
X315250Y17250D02*
X326700Y5800D01*
X299750Y17250D02*
X315250D01*
X312000Y13900D02*
X318900Y7000D01*
X298100Y13900D02*
X312000D01*
X307000Y10000D02*
X311000Y6000D01*
X298100Y10000D02*
X307000D01*
X248000Y278000D02*
Y291307D01*
X183900Y213900D02*
X248000Y278000D01*
X183900Y204400D02*
Y213900D01*
X255900Y280900D02*
Y291333D01*
X187000Y212000D02*
X255900Y280900D01*
X187000Y207300D02*
Y212000D01*
X263800Y284800D02*
Y291359D01*
X190200Y211200D02*
X263800Y284800D01*
X190200Y204400D02*
Y211200D01*
X223000Y240000D02*
X227800D01*
X193300Y210300D02*
X223000Y240000D01*
X193300Y207300D02*
Y210300D01*
X224000Y237000D02*
X232700D01*
X196500Y209500D02*
X224000Y237000D01*
X196500Y204400D02*
Y209500D01*
X225000Y234000D02*
X237300D01*
X199600Y208600D02*
X225000Y234000D01*
X199600Y207300D02*
Y208600D01*
X226000Y231000D02*
X241800D01*
X202800Y207800D02*
X226000Y231000D01*
X202800Y204400D02*
Y207800D01*
X240200Y284200D02*
Y291381D01*
X180700Y224700D02*
X240200Y284200D01*
X180700Y207300D02*
Y224700D01*
X221600Y212600D02*
X234000Y225000D01*
X221600Y204400D02*
Y212600D01*
X209100Y204400D02*
X232700Y228000D01*
X241800Y231000D02*
X295300Y284500D01*
X237300Y234000D02*
X287400Y284100D01*
X232700Y237000D02*
X279500Y283800D01*
X227800Y240000D02*
X271700Y283900D01*
X177600Y204400D02*
Y230600D01*
X232300Y285300D02*
Y291355D01*
X177600Y230600D02*
X232300Y285300D01*
X174400Y207300D02*
Y236296D01*
X224400Y286296D02*
Y291329D01*
X174400Y236296D02*
X224400Y286296D01*
X216500Y283500D02*
Y291303D01*
X171300Y238300D02*
X216500Y283500D01*
X171300Y204400D02*
Y238300D01*
X200100Y281100D02*
Y290651D01*
X164900Y245900D02*
X200100Y281100D01*
X164900Y204400D02*
Y245900D01*
X168100Y207300D02*
Y244100D01*
X208700Y284700D02*
Y291377D01*
X168100Y244100D02*
X208700Y284700D01*
X177700Y264700D02*
Y290804D01*
X161900Y248900D02*
X177700Y264700D01*
X161900Y207300D02*
Y248900D01*
X169300Y260300D02*
Y291330D01*
X158700Y249700D02*
X169300Y260300D01*
X158700Y204400D02*
Y249700D01*
X161500Y256500D02*
Y291256D01*
X155600Y250600D02*
X161500Y256500D01*
X155600Y207300D02*
Y250600D01*
X153500Y254500D02*
Y291382D01*
X152400Y253400D02*
X153500Y254500D01*
X152400Y204400D02*
Y253400D01*
X66900Y284100D02*
X74000Y277000D01*
X59000Y283697D02*
X68697Y274000D01*
X35400Y284000D02*
X54400Y265000D01*
X43300Y283700D02*
X59000Y268000D01*
X51100Y283900D02*
X64000Y271000D01*
X43300Y283700D02*
Y291346D01*
X51100Y283900D02*
Y291420D01*
X66900Y284100D02*
Y291368D01*
X35400Y284000D02*
Y291372D01*
X59000Y283697D02*
Y291394D01*
X342500Y284200D02*
Y291319D01*
X346457Y295276D01*
X311000Y291315D02*
X314961Y295276D01*
X295300Y284500D02*
Y291363D01*
X299213Y295276D01*
X287400Y284100D02*
Y291337D01*
X291339Y295276D01*
X279500Y283800D02*
Y291311D01*
X283465Y295276D01*
X271700Y283900D02*
Y291385D01*
X275591Y295276D01*
X263800Y291359D02*
X267717Y295276D01*
X255900Y291333D02*
X259842Y295276D01*
X248000Y291307D02*
X251969Y295276D01*
X240200Y291381D02*
X244094Y295276D01*
X232300Y291355D02*
X236221Y295276D01*
X224400Y291329D02*
X228346Y295276D01*
X216500Y291303D02*
X220473Y295276D01*
X208700Y291377D02*
X212598Y295276D01*
X200100Y290651D02*
X204724Y295276D01*
X173228D02*
X177700Y290804D01*
X165354Y295276D02*
X169300Y291330D01*
X157480Y295276D02*
X161500Y291256D01*
X149606Y295276D02*
X153500Y291382D01*
X141732Y295276D02*
X145700Y291308D01*
X133858Y295276D02*
X137800Y291334D01*
X125984Y295276D02*
X129900Y291360D01*
X118110Y295276D02*
X122000Y291386D01*
X110236Y295276D02*
X114200Y291312D01*
X102362Y295276D02*
X106300Y291338D01*
X94488Y295276D02*
X98400Y291364D01*
X86614Y295276D02*
X90600Y291290D01*
X78740Y295276D02*
X82700Y291316D01*
X70866Y295276D02*
X74800Y291342D01*
X62992Y295276D02*
X66900Y291368D01*
X55118Y295276D02*
X59000Y291394D01*
X47244Y295276D02*
X51100Y291420D01*
X39370Y295276D02*
X43300Y291346D01*
X31496Y295276D02*
X35400Y291372D01*
X23622Y295276D02*
X27500Y291398D01*
X318900Y-2D02*
Y7000D01*
X295300Y-24D02*
Y6700D01*
X233900Y52500D02*
X279500Y6900D01*
Y28D02*
Y6900D01*
X187000Y75700D02*
Y86900D01*
Y75700D02*
X255900Y6800D01*
Y6D02*
Y6800D01*
X183900Y70300D02*
Y84100D01*
Y70300D02*
X248000Y6200D01*
X208700Y-39D02*
Y6500D01*
X326700Y72D02*
Y5800D01*
Y72D02*
X330709Y-3937D01*
X318900Y-2D02*
X322835Y-3937D01*
X311000Y24D02*
Y6000D01*
Y24D02*
X314961Y-3937D01*
X295300Y-24D02*
X299213Y-3937D01*
X287400Y2D02*
X291339Y-3937D01*
X279500Y28D02*
X283465Y-3937D01*
X271700Y-46D02*
Y6600D01*
Y-46D02*
X275591Y-3937D01*
X263800Y-21D02*
X267717Y-3937D01*
X255900Y6D02*
X259842Y-3937D01*
X248000Y32D02*
Y6200D01*
Y32D02*
X251969Y-3937D01*
X240200Y-43D02*
Y5800D01*
Y-43D02*
X244094Y-3937D01*
X232200Y84D02*
Y6400D01*
Y84D02*
X236221Y-3937D01*
X224400Y10D02*
Y6300D01*
Y10D02*
X228346Y-3937D01*
X216500Y35D02*
Y6700D01*
Y35D02*
X220473Y-3937D01*
X208700Y-39D02*
X212598Y-3937D01*
X161900Y55800D02*
Y86900D01*
X173228Y-3937D02*
X177500Y335D01*
X158700Y51500D02*
Y84100D01*
X169300Y9D02*
Y11000D01*
X165354Y-3937D02*
X169300Y9D01*
X155600Y78800D02*
Y86900D01*
Y78800D02*
X156100Y78300D01*
X157480Y-3937D02*
X161400Y-17D01*
X149606Y-3937D02*
X153500Y-43D01*
X141732Y-3937D02*
X145700Y31D01*
X133858Y-3937D02*
X137800Y5D01*
X125984Y-3937D02*
X129900Y-21D01*
X118110Y-3937D02*
X122100Y53D01*
X102362Y-3937D02*
X106300Y1D01*
X94488Y-3937D02*
X98400Y-25D01*
X86614Y-3937D02*
X90500Y-51D01*
X78740Y-3937D02*
X82700Y23D01*
X70866Y-3937D02*
X74800Y-3D01*
X47244Y-3937D02*
X51200Y19D01*
X62992Y-3937D02*
X66900Y-29D01*
X55118Y-3937D02*
X59100Y45D01*
X39370Y-3937D02*
X43300Y-7D01*
D15*
X405512Y267717D02*
D03*
X417323Y3937D02*
D03*
X370079Y23622D02*
D03*
X23622D02*
D03*
X39370Y59055D02*
D03*
Y78740D02*
D03*
Y98425D02*
D03*
Y39370D02*
D03*
X35433Y263779D02*
D03*
X7874D02*
D03*
D16*
X42133Y142958D02*
D03*
X32133D02*
D03*
D17*
X22133D02*
D03*
D18*
X31496Y208661D02*
D03*
X23622D02*
D03*
X31496Y216535D02*
D03*
X23622D02*
D03*
Y200787D02*
D03*
X31496D02*
D03*
X23622Y192913D02*
D03*
X31496D02*
D03*
X23622Y185039D02*
D03*
Y232283D02*
D03*
X31496D02*
D03*
X23622Y224410D02*
D03*
X31496D02*
D03*
X314961Y3937D02*
D03*
Y-3937D02*
D03*
X307087Y3937D02*
D03*
Y-3937D02*
D03*
X354331D02*
D03*
X346457Y3937D02*
D03*
Y-3937D02*
D03*
X338583Y3937D02*
D03*
Y-3937D02*
D03*
X322835D02*
D03*
Y3937D02*
D03*
X330709Y-3937D02*
D03*
Y3937D02*
D03*
X299213D02*
D03*
Y-3937D02*
D03*
X291339Y3937D02*
D03*
Y-3937D02*
D03*
X283465Y3937D02*
D03*
Y-3937D02*
D03*
X275591Y3937D02*
D03*
Y-3937D02*
D03*
X267717Y3937D02*
D03*
Y-3937D02*
D03*
X259842Y3937D02*
D03*
Y-3937D02*
D03*
X251969Y3937D02*
D03*
Y-3937D02*
D03*
X244094Y3937D02*
D03*
Y-3937D02*
D03*
X236221Y3937D02*
D03*
Y-3937D02*
D03*
X228346Y3937D02*
D03*
Y-3937D02*
D03*
X220473Y3937D02*
D03*
Y-3937D02*
D03*
X212598Y3937D02*
D03*
Y-3937D02*
D03*
X204724Y3937D02*
D03*
Y-3937D02*
D03*
X23622D02*
D03*
Y3937D02*
D03*
X31496Y-3937D02*
D03*
Y3937D02*
D03*
X39370Y-3937D02*
D03*
Y3937D02*
D03*
X47244Y-3937D02*
D03*
Y3937D02*
D03*
X55118Y-3937D02*
D03*
Y3937D02*
D03*
X62992Y-3937D02*
D03*
Y3937D02*
D03*
X70866Y-3937D02*
D03*
Y3937D02*
D03*
X78740Y-3937D02*
D03*
Y3937D02*
D03*
X86614Y-3937D02*
D03*
Y3937D02*
D03*
X94488Y-3937D02*
D03*
Y3937D02*
D03*
X102362Y-3937D02*
D03*
Y3937D02*
D03*
X110236Y-3937D02*
D03*
Y3937D02*
D03*
X118110Y-3937D02*
D03*
Y3937D02*
D03*
X149606D02*
D03*
Y-3937D02*
D03*
X141732Y3937D02*
D03*
Y-3937D02*
D03*
X157480D02*
D03*
Y3937D02*
D03*
X165354Y-3937D02*
D03*
Y3937D02*
D03*
X173228Y-3937D02*
D03*
X125984D02*
D03*
Y3937D02*
D03*
X133858Y-3937D02*
D03*
Y3937D02*
D03*
X314961Y295276D02*
D03*
Y287402D02*
D03*
X307087Y295276D02*
D03*
Y287402D02*
D03*
X354331D02*
D03*
X346457Y295276D02*
D03*
Y287402D02*
D03*
X338583Y295276D02*
D03*
Y287402D02*
D03*
X322835D02*
D03*
Y295276D02*
D03*
X330709Y287402D02*
D03*
Y295276D02*
D03*
X299213D02*
D03*
Y287402D02*
D03*
X291339Y295276D02*
D03*
Y287402D02*
D03*
X283465Y295276D02*
D03*
Y287402D02*
D03*
X275591Y295276D02*
D03*
Y287402D02*
D03*
X267717Y295276D02*
D03*
Y287402D02*
D03*
X259842Y295276D02*
D03*
Y287402D02*
D03*
X251969Y295276D02*
D03*
Y287402D02*
D03*
X244094Y295276D02*
D03*
Y287402D02*
D03*
X236221Y295276D02*
D03*
Y287402D02*
D03*
X228346Y295276D02*
D03*
Y287402D02*
D03*
X220473Y295276D02*
D03*
Y287402D02*
D03*
X212598Y295276D02*
D03*
Y287402D02*
D03*
X204724Y295276D02*
D03*
Y287402D02*
D03*
X23622D02*
D03*
Y295276D02*
D03*
X31496Y287402D02*
D03*
Y295276D02*
D03*
X39370Y287402D02*
D03*
Y295276D02*
D03*
X47244Y287402D02*
D03*
Y295276D02*
D03*
X55118Y287402D02*
D03*
Y295276D02*
D03*
X62992Y287402D02*
D03*
Y295276D02*
D03*
X70866Y287402D02*
D03*
Y295276D02*
D03*
X78740Y287402D02*
D03*
Y295276D02*
D03*
X86614Y287402D02*
D03*
Y295276D02*
D03*
X94488Y287402D02*
D03*
Y295276D02*
D03*
X102362Y287402D02*
D03*
Y295276D02*
D03*
X110236Y287402D02*
D03*
Y295276D02*
D03*
X118110Y287402D02*
D03*
Y295276D02*
D03*
X149606D02*
D03*
Y287402D02*
D03*
X141732Y295276D02*
D03*
Y287402D02*
D03*
X157480D02*
D03*
Y295276D02*
D03*
X165354Y287402D02*
D03*
Y295276D02*
D03*
X173228Y287402D02*
D03*
X125984D02*
D03*
Y295276D02*
D03*
X133858Y287402D02*
D03*
Y295276D02*
D03*
D19*
X31496Y185039D02*
D03*
D20*
X354331Y3937D02*
D03*
X173228D02*
D03*
X354331Y295276D02*
D03*
X173228D02*
D03*
D21*
X231240Y58917D02*
D03*
X95531D02*
D03*
Y216398D02*
D03*
X231240D02*
D03*
D22*
X0Y0D02*
D03*
X448819D02*
D03*
X0Y291339D02*
D03*
X448819D02*
D03*
X74803Y232283D02*
D03*
X346457D02*
D03*
Y59055D02*
D03*
X74803D02*
D03*
D23*
X406646Y41150D02*
D03*
X430268D02*
D03*
X418457Y59654D02*
D03*
D24*
X210600Y65500D02*
D03*
X215400Y60800D02*
D03*
X90700Y241500D02*
D03*
X146100Y84100D02*
D03*
X152400D02*
D03*
X149300Y86900D02*
D03*
X202900Y84200D02*
D03*
X13500Y172300D02*
D03*
X90100Y189300D02*
D03*
X224800Y207300D02*
D03*
X221600Y204400D02*
D03*
X105100Y207300D02*
D03*
X205900D02*
D03*
X199600D02*
D03*
X193300D02*
D03*
X187000D02*
D03*
X180700D02*
D03*
X174400D02*
D03*
X168100D02*
D03*
X161900D02*
D03*
X155600D02*
D03*
X149300D02*
D03*
X142900D02*
D03*
X136600D02*
D03*
X130400D02*
D03*
X124000D02*
D03*
X117800D02*
D03*
X111400D02*
D03*
X102000Y204400D02*
D03*
X209100D02*
D03*
X202800D02*
D03*
X196500D02*
D03*
X190200D02*
D03*
X183900D02*
D03*
X177600D02*
D03*
X171300D02*
D03*
X164900D02*
D03*
X158700D02*
D03*
X152400D02*
D03*
X146100D02*
D03*
X139800D02*
D03*
X133500D02*
D03*
X127200D02*
D03*
X120900D02*
D03*
X114600D02*
D03*
X108311D02*
D03*
X105100Y86900D02*
D03*
X130300D02*
D03*
X136600D02*
D03*
X142900D02*
D03*
X155600D02*
D03*
X161900D02*
D03*
X168100D02*
D03*
X174400D02*
D03*
X180700D02*
D03*
X187000D02*
D03*
X193300D02*
D03*
X199600D02*
D03*
X205900D02*
D03*
X212200D02*
D03*
X218500D02*
D03*
X224800Y84100D02*
D03*
X124079Y86900D02*
D03*
X117779D02*
D03*
X111479D02*
D03*
X102000Y84100D02*
D03*
X215400D02*
D03*
X133500D02*
D03*
X139800D02*
D03*
X158700D02*
D03*
X164900D02*
D03*
X171300D02*
D03*
X177600D02*
D03*
X183900D02*
D03*
X190200D02*
D03*
X196500D02*
D03*
X209100D02*
D03*
X127079D02*
D03*
X120879D02*
D03*
X114579D02*
D03*
X108279D02*
D03*
M02*
