M48
;Layer_Color=9474304
;FILE_FORMAT=2:5
INCH,LZ
;TYPE=PLATED
T1F00S00C0.01000
T2F00S00C0.03150
T3F00S00C0.04000
T4F00S00C0.04016
T5F00S00C0.05906
T6F00S00C0.06500
T7F00S00C0.09843
%
T01
X0102Y00841
X01051Y00869
X0108279Y00841
X0111479Y00869
X0114579Y00841
X0117779Y00869
X0120879Y00841
X0124079Y00869
X0127079Y00841
X01303Y00869
X01335Y00841
X01366Y00869
X01398Y00841
X01429Y00869
X01461Y00841
X01493Y00869
X01524Y00841
X01556Y00869
X01587Y00841
X01619Y00869
X01649Y00841
X01681Y00869
X01713Y00841
X01744Y00869
X01776Y00841
X01807Y00869
X01839Y00841
X0187Y00869
X01902Y00841
X01933Y00869
X01965Y00841
X01996Y00869
X02029Y00842
X02059Y00869
X02091Y00841
X02122Y00869
X02154Y00841
X02185Y00869
X02248Y00841
X02154Y00608
X02106Y00655
X02091Y02044
X02059Y02073
X02028Y02044
X01996Y02073
X01965Y02044
X01933Y02073
X01902Y02044
X0187Y02073
X01839Y02044
X01807Y02073
X01776Y02044
X01744Y02073
X01713Y02044
X01681Y02073
X01649Y02044
X01619Y02073
X01587Y02044
X01556Y02073
X01524Y02044
X01493Y02073
X01461Y02044
X01429Y02073
X01398Y02044
X01366Y02073
X01335Y02044
X01304Y02073
X01272Y02044
X0124Y02073
X01209Y02044
X01178Y02073
X01146Y02044
X01114Y02073
X0108311Y02044
X01051Y02073
X0102Y02044
X02216
X02248Y02073
X00901Y01893
X00907Y02415
X00135Y01723
T02
X0259842Y-0003937
X0267717
X0275591
X0283465
X0291339
X0299213
X0307087Y-0003937
X0314961
X0322835
X0330709
X0338583
X0346457
X0354331
X0251969Y-0003937
X0244094
X0236221
X0228346
X0220473
X0212598
X0204724
X0173228Y-0003937
X0165354
X015748
X0149606
X0141732
X0133858
X0125984
X011811Y-0003937
X0110236
X0102362
X0094488
X0086614
X007874
X0070866
X0062992
X0055118
X0047244
X003937
X0031496
X0023622
Y0003937
X0031496
X003937
X0047244
X0055118
X0062992
X0070866
X007874
X0086614
X0094488
X0102362
X0110236
X011811
X0125984
X0133858
X0141732
X0149606
X015748
X0165354
X0173228
X0204724
X0212598
X0220473
X0228346
X0236221
X0244094
X0251969
X0259842
X0267717
X0275591
X0283465
X0291339
X0299213
X0307087
X0314961
X0322835
X0330709
X0338583
X0346457
X0354331
Y0287402
Y0295276
X0346457
X0338583
Y0287402
X0346457
X0330709
X0322835
X0314961
X0307087
Y0295276
X0314961
X0322835
X0330709
X0299213
Y0287402
X0291339
Y0295276
X0283465
Y0287402
X0275591
Y0295276
X0267717
Y0287402
X0259842
Y0295276
X0251969
Y0287402
X0244094
Y0295276
X0236221
Y0287402
X0228346
Y0295276
X0220473
Y0287402
X0212598
Y0295276
X0204724
Y0287402
X0173228Y0287402
X0165354
X015748
X0149606
X0141732
Y0295276
X0149606
X015748
X0165354
X0173228
X0133858
X0125984
X011811
X0110236
Y0287402
X011811
X0125984Y0287402
X0133858
X0102362Y0287402
Y0295276
X0094488
Y0287402
X0086614
Y0295276
X007874
X0070866
Y0287402
X007874
X0062992
X0055118
Y0295276
X0062992
X0047244
X003937
Y0287402
X0047244
X0031496
Y0295276
X0023622
Y0287402
X0023622Y0232283
Y022441
Y0216535
Y0208661
X0031496
Y0216535
Y022441
Y0232283
Y0200787
Y0192913
X0023622
Y0200787
Y0185039
X0031496
T03
X0022133Y0142958
X0032133
X0042133
T04
X0095531Y0058917
X023124
Y0216398
X0095531
T05
X0406646Y004115
X0430268
X0418457Y0059654
T06
X0023622Y0023622
X003937Y003937
Y0059055
Y007874
Y0098425
X0370079Y0023622
X0417323Y0003937
X0405512Y0267717
X0035433Y0263779
X0007874
T07
X0448819Y0
X0
X0074803Y0059055
X0346457
X0448819Y0291339
X0346457Y0232283
X0074803
X0Y0291339
M30
