G04 Layer_Color=16711935*
%FSLAX25Y25*%
%MOIN*%
G70*
G01*
G75*
%ADD14C,0.01000*%
%ADD50C,0.00600*%
D14*
X-48244Y303150D02*
X-11811D01*
X-48244Y-11811D02*
X-13211D01*
X-47244Y168162D02*
Y303150D01*
Y-11811D02*
Y119977D01*
X-49244Y297150D02*
X-47244Y303150D01*
X-45244Y297150D01*
X-47244Y-11811D02*
X-45244Y-5811D01*
X-49244D02*
X-47244Y-11811D01*
X460630Y-44307D02*
Y-13211D01*
X-11811Y-44307D02*
Y-13211D01*
X249401Y-43307D02*
X460630D01*
X-11811D02*
X196218D01*
X454630Y-41307D02*
X460630Y-43307D01*
X454630Y-45307D02*
X460630Y-43307D01*
X-11811D02*
X-5811Y-45307D01*
X-11811Y-43307D02*
X-5811Y-41307D01*
D50*
X-48643Y121577D02*
X-49643Y122576D01*
Y124576D01*
X-48643Y125575D01*
X-47644D01*
X-46644Y124576D01*
X-45644Y125575D01*
X-44645D01*
X-43645Y124576D01*
Y122576D01*
X-44645Y121577D01*
X-45644D01*
X-46644Y122576D01*
X-47644Y121577D01*
X-48643D01*
X-46644Y122576D02*
Y124576D01*
X-48643Y127575D02*
X-49643Y128574D01*
Y130574D01*
X-48643Y131573D01*
X-44645D01*
X-43645Y130574D01*
Y128574D01*
X-44645Y127575D01*
X-48643D01*
X-43645Y133573D02*
X-44645D01*
Y134572D01*
X-43645D01*
Y133573D01*
X-48643Y138571D02*
X-49643Y139571D01*
Y141570D01*
X-48643Y142570D01*
X-44645D01*
X-43645Y141570D01*
Y139571D01*
X-44645Y138571D01*
X-48643D01*
Y144569D02*
X-49643Y145569D01*
Y147568D01*
X-48643Y148568D01*
X-44645D01*
X-43645Y147568D01*
Y145569D01*
X-44645Y144569D01*
X-48643D01*
X-43645Y156565D02*
X-47644D01*
Y157565D01*
X-46644Y158565D01*
X-43645D01*
X-46644D01*
X-47644Y159564D01*
X-46644Y160564D01*
X-43645D01*
Y162563D02*
X-47644D01*
Y163563D01*
X-46644Y164563D01*
X-43645D01*
X-46644D01*
X-47644Y165562D01*
X-46644Y166562D01*
X-43645D01*
X197818Y-46906D02*
X199817D01*
X198817D01*
Y-40908D01*
X197818Y-41908D01*
X206815Y-46906D02*
X202816D01*
X206815Y-42907D01*
Y-41908D01*
X205815Y-40908D01*
X203816D01*
X202816Y-41908D01*
X208814D02*
X209814Y-40908D01*
X211813D01*
X212813Y-41908D01*
Y-45906D01*
X211813Y-46906D01*
X209814D01*
X208814Y-45906D01*
Y-41908D01*
X214812Y-46906D02*
Y-45906D01*
X215812D01*
Y-46906D01*
X214812D01*
X219810Y-41908D02*
X220810Y-40908D01*
X222810D01*
X223809Y-41908D01*
Y-45906D01*
X222810Y-46906D01*
X220810D01*
X219810Y-45906D01*
Y-41908D01*
X225809D02*
X226808Y-40908D01*
X228807D01*
X229807Y-41908D01*
Y-45906D01*
X228807Y-46906D01*
X226808D01*
X225809Y-45906D01*
Y-41908D01*
X237805Y-46906D02*
Y-42907D01*
X238804D01*
X239804Y-43907D01*
Y-46906D01*
Y-43907D01*
X240804Y-42907D01*
X241803Y-43907D01*
Y-46906D01*
X243803D02*
Y-42907D01*
X244802D01*
X245802Y-43907D01*
Y-46906D01*
Y-43907D01*
X246802Y-42907D01*
X247801Y-43907D01*
Y-46906D01*
M02*
