G04 Layer_Color=16711935*
%FSLAX25Y25*%
%MOIN*%
G70*
G01*
G75*
%ADD40C,0.10800*%
%ADD41C,0.07300*%
%ADD42R,0.07300X0.07300*%
%ADD43C,0.05918*%
%ADD44R,0.05918X0.05918*%
%ADD45R,0.05918X0.05918*%
%ADD46C,0.04816*%
%ADD47C,0.20485*%
%ADD48C,0.09658*%
%ADD49C,0.02800*%
D40*
X405512Y267717D02*
D03*
X417323Y3937D02*
D03*
X370079Y23622D02*
D03*
X23622D02*
D03*
X39370Y59055D02*
D03*
Y78740D02*
D03*
Y98425D02*
D03*
Y39370D02*
D03*
X35433Y263779D02*
D03*
X7874D02*
D03*
D41*
X42133Y142958D02*
D03*
X32133D02*
D03*
D42*
X22133D02*
D03*
D43*
X31496Y208661D02*
D03*
X23622D02*
D03*
X31496Y216535D02*
D03*
X23622D02*
D03*
Y200787D02*
D03*
X31496D02*
D03*
X23622Y192913D02*
D03*
X31496D02*
D03*
X23622Y185039D02*
D03*
Y232283D02*
D03*
X31496D02*
D03*
X23622Y224410D02*
D03*
X31496D02*
D03*
X314961Y3937D02*
D03*
Y-3937D02*
D03*
X307087Y3937D02*
D03*
Y-3937D02*
D03*
X354331D02*
D03*
X346457Y3937D02*
D03*
Y-3937D02*
D03*
X338583Y3937D02*
D03*
Y-3937D02*
D03*
X322835D02*
D03*
Y3937D02*
D03*
X330709Y-3937D02*
D03*
Y3937D02*
D03*
X299213D02*
D03*
Y-3937D02*
D03*
X291339Y3937D02*
D03*
Y-3937D02*
D03*
X283465Y3937D02*
D03*
Y-3937D02*
D03*
X275591Y3937D02*
D03*
Y-3937D02*
D03*
X267717Y3937D02*
D03*
Y-3937D02*
D03*
X259842Y3937D02*
D03*
Y-3937D02*
D03*
X251969Y3937D02*
D03*
Y-3937D02*
D03*
X244094Y3937D02*
D03*
Y-3937D02*
D03*
X236221Y3937D02*
D03*
Y-3937D02*
D03*
X228346Y3937D02*
D03*
Y-3937D02*
D03*
X220473Y3937D02*
D03*
Y-3937D02*
D03*
X212598Y3937D02*
D03*
Y-3937D02*
D03*
X204724Y3937D02*
D03*
Y-3937D02*
D03*
X23622D02*
D03*
Y3937D02*
D03*
X31496Y-3937D02*
D03*
Y3937D02*
D03*
X39370Y-3937D02*
D03*
Y3937D02*
D03*
X47244Y-3937D02*
D03*
Y3937D02*
D03*
X55118Y-3937D02*
D03*
Y3937D02*
D03*
X62992Y-3937D02*
D03*
Y3937D02*
D03*
X70866Y-3937D02*
D03*
Y3937D02*
D03*
X78740Y-3937D02*
D03*
Y3937D02*
D03*
X86614Y-3937D02*
D03*
Y3937D02*
D03*
X94488Y-3937D02*
D03*
Y3937D02*
D03*
X102362Y-3937D02*
D03*
Y3937D02*
D03*
X110236Y-3937D02*
D03*
Y3937D02*
D03*
X118110Y-3937D02*
D03*
Y3937D02*
D03*
X149606D02*
D03*
Y-3937D02*
D03*
X141732Y3937D02*
D03*
Y-3937D02*
D03*
X157480D02*
D03*
Y3937D02*
D03*
X165354Y-3937D02*
D03*
Y3937D02*
D03*
X173228Y-3937D02*
D03*
X125984D02*
D03*
Y3937D02*
D03*
X133858Y-3937D02*
D03*
Y3937D02*
D03*
X314961Y295276D02*
D03*
Y287402D02*
D03*
X307087Y295276D02*
D03*
Y287402D02*
D03*
X354331D02*
D03*
X346457Y295276D02*
D03*
Y287402D02*
D03*
X338583Y295276D02*
D03*
Y287402D02*
D03*
X322835D02*
D03*
Y295276D02*
D03*
X330709Y287402D02*
D03*
Y295276D02*
D03*
X299213D02*
D03*
Y287402D02*
D03*
X291339Y295276D02*
D03*
Y287402D02*
D03*
X283465Y295276D02*
D03*
Y287402D02*
D03*
X275591Y295276D02*
D03*
Y287402D02*
D03*
X267717Y295276D02*
D03*
Y287402D02*
D03*
X259842Y295276D02*
D03*
Y287402D02*
D03*
X251969Y295276D02*
D03*
Y287402D02*
D03*
X244094Y295276D02*
D03*
Y287402D02*
D03*
X236221Y295276D02*
D03*
Y287402D02*
D03*
X228346Y295276D02*
D03*
Y287402D02*
D03*
X220473Y295276D02*
D03*
Y287402D02*
D03*
X212598Y295276D02*
D03*
Y287402D02*
D03*
X204724Y295276D02*
D03*
Y287402D02*
D03*
X23622D02*
D03*
Y295276D02*
D03*
X31496Y287402D02*
D03*
Y295276D02*
D03*
X39370Y287402D02*
D03*
Y295276D02*
D03*
X47244Y287402D02*
D03*
Y295276D02*
D03*
X55118Y287402D02*
D03*
Y295276D02*
D03*
X62992Y287402D02*
D03*
Y295276D02*
D03*
X70866Y287402D02*
D03*
Y295276D02*
D03*
X78740Y287402D02*
D03*
Y295276D02*
D03*
X86614Y287402D02*
D03*
Y295276D02*
D03*
X94488Y287402D02*
D03*
Y295276D02*
D03*
X102362Y287402D02*
D03*
Y295276D02*
D03*
X110236Y287402D02*
D03*
Y295276D02*
D03*
X118110Y287402D02*
D03*
Y295276D02*
D03*
X149606D02*
D03*
Y287402D02*
D03*
X141732Y295276D02*
D03*
Y287402D02*
D03*
X157480D02*
D03*
Y295276D02*
D03*
X165354Y287402D02*
D03*
Y295276D02*
D03*
X173228Y287402D02*
D03*
X125984D02*
D03*
Y295276D02*
D03*
X133858Y287402D02*
D03*
Y295276D02*
D03*
D44*
X31496Y185039D02*
D03*
D45*
X354331Y3937D02*
D03*
X173228D02*
D03*
X354331Y295276D02*
D03*
X173228D02*
D03*
D46*
X231240Y58917D02*
D03*
X95531D02*
D03*
Y216398D02*
D03*
X231240D02*
D03*
D47*
X0Y0D02*
D03*
X448819D02*
D03*
X0Y291339D02*
D03*
X448819D02*
D03*
X74803Y232283D02*
D03*
X346457D02*
D03*
Y59055D02*
D03*
X74803D02*
D03*
D48*
X406646Y41150D02*
D03*
X430268D02*
D03*
X418457Y59654D02*
D03*
D49*
X210600Y65500D02*
D03*
X215400Y60800D02*
D03*
X90700Y241500D02*
D03*
X146100Y84100D02*
D03*
X152400D02*
D03*
X149300Y86900D02*
D03*
X202900Y84200D02*
D03*
X13500Y172300D02*
D03*
X90100Y189300D02*
D03*
X224800Y207300D02*
D03*
X221600Y204400D02*
D03*
X105100Y207300D02*
D03*
X205900D02*
D03*
X199600D02*
D03*
X193300D02*
D03*
X187000D02*
D03*
X180700D02*
D03*
X174400D02*
D03*
X168100D02*
D03*
X161900D02*
D03*
X155600D02*
D03*
X149300D02*
D03*
X142900D02*
D03*
X136600D02*
D03*
X130400D02*
D03*
X124000D02*
D03*
X117800D02*
D03*
X111400D02*
D03*
X102000Y204400D02*
D03*
X209100D02*
D03*
X202800D02*
D03*
X196500D02*
D03*
X190200D02*
D03*
X183900D02*
D03*
X177600D02*
D03*
X171300D02*
D03*
X164900D02*
D03*
X158700D02*
D03*
X152400D02*
D03*
X146100D02*
D03*
X139800D02*
D03*
X133500D02*
D03*
X127200D02*
D03*
X120900D02*
D03*
X114600D02*
D03*
X108311D02*
D03*
X105100Y86900D02*
D03*
X130300D02*
D03*
X136600D02*
D03*
X142900D02*
D03*
X155600D02*
D03*
X161900D02*
D03*
X168100D02*
D03*
X174400D02*
D03*
X180700D02*
D03*
X187000D02*
D03*
X193300D02*
D03*
X199600D02*
D03*
X205900D02*
D03*
X212200D02*
D03*
X218500D02*
D03*
X224800Y84100D02*
D03*
X124079Y86900D02*
D03*
X117779D02*
D03*
X111479D02*
D03*
X102000Y84100D02*
D03*
X215400D02*
D03*
X133500D02*
D03*
X139800D02*
D03*
X158700D02*
D03*
X164900D02*
D03*
X171300D02*
D03*
X177600D02*
D03*
X183900D02*
D03*
X190200D02*
D03*
X196500D02*
D03*
X209100D02*
D03*
X127079D02*
D03*
X120879D02*
D03*
X114579D02*
D03*
X108279D02*
D03*
M02*
