G04 Layer_Color=65535*
%FSLAX25Y25*%
%MOIN*%
G70*
G01*
G75*
%ADD14C,0.01000*%
%ADD25C,0.01969*%
%ADD26C,0.00675*%
%ADD27C,0.00825*%
%ADD28C,0.01200*%
%ADD29C,0.01500*%
%ADD30C,0.00472*%
%ADD31C,0.00787*%
%ADD32C,0.00800*%
%ADD33C,0.00799*%
%ADD34C,0.00799*%
%ADD35R,0.17100X0.07600*%
D14*
X95276Y78740D02*
X98425D01*
X228346D02*
X231496D01*
X231496D02*
X234252Y75984D01*
X92520Y55118D02*
Y75984D01*
Y55118D02*
X98425D01*
X92520Y75984D02*
X95276Y78740D01*
X234252Y55118D02*
Y75984D01*
X228346Y55118D02*
X234252D01*
X228346Y212598D02*
X234252D01*
Y233465D01*
X92520D02*
X95276Y236220D01*
X92520Y212598D02*
X98425D01*
X92520D02*
Y233465D01*
X231496Y236220D02*
X234252Y233465D01*
X228346Y236220D02*
X231496D01*
X95276D02*
X98425D01*
X-7567Y111758D02*
Y167758D01*
Y111758D02*
X55433D01*
Y167758D01*
X-7567D02*
X55433D01*
X25100Y256735D02*
Y253403D01*
X26766Y251737D01*
X28432Y253403D01*
Y256735D01*
X33431Y255902D02*
X32598Y256735D01*
X30931D01*
X30098Y255902D01*
Y252570D01*
X30931Y251737D01*
X32598D01*
X33431Y252570D01*
X38429Y255902D02*
X37596Y256735D01*
X35930D01*
X35097Y255902D01*
Y252570D01*
X35930Y251737D01*
X37596D01*
X38429Y252570D01*
X42594Y256735D02*
X40928D01*
X40095Y255902D01*
Y252570D01*
X40928Y251737D01*
X42594D01*
X43427Y252570D01*
Y255902D01*
X42594Y256735D01*
X45094Y250904D02*
X48426D01*
X50092Y251737D02*
Y256735D01*
X51758Y255069D01*
X53424Y256735D01*
Y251737D01*
X58422Y255902D02*
X57590Y256735D01*
X55923D01*
X55090Y255902D01*
Y252570D01*
X55923Y251737D01*
X57590D01*
X58422Y252570D01*
X63421Y251737D02*
X60089D01*
X63421Y255069D01*
Y255902D01*
X62588Y256735D01*
X60922D01*
X60089Y255902D01*
X-4665Y61583D02*
Y58251D01*
X-2998Y56585D01*
X-1332Y58251D01*
Y61583D01*
X3666Y60750D02*
X2833Y61583D01*
X1167D01*
X334Y60750D01*
Y57418D01*
X1167Y56585D01*
X2833D01*
X3666Y57418D01*
X8664Y60750D02*
X7831Y61583D01*
X6165D01*
X5332Y60750D01*
Y57418D01*
X6165Y56585D01*
X7831D01*
X8664Y57418D01*
X12830Y61583D02*
X11164D01*
X10331Y60750D01*
Y57418D01*
X11164Y56585D01*
X12830D01*
X13663Y57418D01*
Y60750D01*
X12830Y61583D01*
X15329Y55752D02*
X18661D01*
X20327Y56585D02*
Y61583D01*
X21993Y59917D01*
X23660Y61583D01*
Y56585D01*
X28658Y60750D02*
X27825Y61583D01*
X26159D01*
X25326Y60750D01*
Y57418D01*
X26159Y56585D01*
X27825D01*
X28658Y57418D01*
X30324Y56585D02*
X31990D01*
X31157D01*
Y61583D01*
X30324Y60750D01*
X29465Y155057D02*
X27799D01*
X28632D01*
Y150891D01*
X27799Y150058D01*
X26966D01*
X26133Y150891D01*
X31132Y150058D02*
Y155057D01*
X33631D01*
X34464Y154224D01*
Y152558D01*
X33631Y151724D01*
X31132D01*
X36130Y150058D02*
X37796D01*
X36963D01*
Y155057D01*
X36130Y154224D01*
X397200Y259798D02*
Y254800D01*
X399699D01*
X400532Y255633D01*
Y258965D01*
X399699Y259798D01*
X397200D01*
X405531Y258965D02*
X404698Y259798D01*
X403031D01*
X402198Y258965D01*
Y255633D01*
X403031Y254800D01*
X404698D01*
X405531Y255633D01*
Y257299D01*
X403864D01*
X407197Y254800D02*
Y259798D01*
X410529Y254800D01*
Y259798D01*
X412195D02*
Y254800D01*
X414694D01*
X415527Y255633D01*
Y258965D01*
X414694Y259798D01*
X412195D01*
X408700Y-3502D02*
Y-8500D01*
X411199D01*
X412032Y-7667D01*
Y-4335D01*
X411199Y-3502D01*
X408700D01*
X417031Y-4335D02*
X416198Y-3502D01*
X414531D01*
X413698Y-4335D01*
Y-7667D01*
X414531Y-8500D01*
X416198D01*
X417031Y-7667D01*
Y-6001D01*
X415365D01*
X418697Y-8500D02*
Y-3502D01*
X422029Y-8500D01*
Y-3502D01*
X423695D02*
Y-8500D01*
X426194D01*
X427027Y-7667D01*
Y-4335D01*
X426194Y-3502D01*
X423695D01*
X-3100Y26198D02*
Y21200D01*
X-601D01*
X232Y22033D01*
Y25365D01*
X-601Y26198D01*
X-3100D01*
X5231Y25365D02*
X4398Y26198D01*
X2731D01*
X1898Y25365D01*
Y22033D01*
X2731Y21200D01*
X4398D01*
X5231Y22033D01*
Y23699D01*
X3565D01*
X6897Y21200D02*
Y26198D01*
X10229Y21200D01*
Y26198D01*
X11895D02*
Y21200D01*
X14394D01*
X15227Y22033D01*
Y25365D01*
X14394Y26198D01*
X11895D01*
X-1800Y256735D02*
Y251737D01*
X699D01*
X1532Y252570D01*
Y255902D01*
X699Y256735D01*
X-1800D01*
X6531Y255902D02*
X5698Y256735D01*
X4031D01*
X3198Y255902D01*
Y252570D01*
X4031Y251737D01*
X5698D01*
X6531Y252570D01*
Y254236D01*
X4865D01*
X8197Y251737D02*
Y256735D01*
X11529Y251737D01*
Y256735D01*
X13195D02*
Y251737D01*
X15694D01*
X16527Y252570D01*
Y255902D01*
X15694Y256735D01*
X13195D01*
X335000Y23499D02*
X338332D01*
X336666Y25165D02*
Y21833D01*
X339998Y25998D02*
Y22666D01*
X341665Y21000D01*
X343331Y22666D01*
Y25998D01*
X344997D02*
Y21000D01*
X347496D01*
X348329Y21833D01*
Y25165D01*
X347496Y25998D01*
X344997D01*
X353327Y25165D02*
X352494Y25998D01*
X350828D01*
X349995Y25165D01*
Y21833D01*
X350828Y21000D01*
X352494D01*
X353327Y21833D01*
X354994Y25998D02*
X356660D01*
X355827D01*
Y21000D01*
X354994D01*
X356660D01*
X359159D02*
Y25998D01*
X362491Y21000D01*
Y25998D01*
X-833Y98884D02*
X2499D01*
X833Y100550D02*
Y97218D01*
X4165Y100550D02*
X4998Y101383D01*
X6664D01*
X7498Y100550D01*
Y99717D01*
X6664Y98884D01*
X5832D01*
X6664D01*
X7498Y98051D01*
Y97218D01*
X6664Y96385D01*
X4998D01*
X4165Y97218D01*
X9164Y96385D02*
Y97218D01*
X9997D01*
Y96385D01*
X9164D01*
X13329Y100550D02*
X14162Y101383D01*
X15828D01*
X16661Y100550D01*
Y99717D01*
X15828Y98884D01*
X14995D01*
X15828D01*
X16661Y98051D01*
Y97218D01*
X15828Y96385D01*
X14162D01*
X13329Y97218D01*
X18327Y101383D02*
Y98051D01*
X19994Y96385D01*
X21660Y98051D01*
Y101383D01*
X23326D02*
Y96385D01*
X25825D01*
X26658Y97218D01*
Y100550D01*
X25825Y101383D01*
X23326D01*
X28324D02*
Y96385D01*
X30823D01*
X31656Y97218D01*
Y100550D01*
X30823Y101383D01*
X28324D01*
X0Y39344D02*
X3332D01*
X1666Y41010D02*
Y37678D01*
X4998Y36845D02*
X6664D01*
X5831D01*
Y41843D01*
X4998Y41010D01*
X9164Y36845D02*
Y37678D01*
X9997D01*
Y36845D01*
X9164D01*
X13329Y41010D02*
X14162Y41843D01*
X15828D01*
X16661Y41010D01*
Y40177D01*
X15828Y39344D01*
X16661Y38511D01*
Y37678D01*
X15828Y36845D01*
X14162D01*
X13329Y37678D01*
Y38511D01*
X14162Y39344D01*
X13329Y40177D01*
Y41010D01*
X14162Y39344D02*
X15828D01*
X18327Y41843D02*
Y38511D01*
X19994Y36845D01*
X21660Y38511D01*
Y41843D01*
X23326D02*
Y36845D01*
X25825D01*
X26658Y37678D01*
Y41010D01*
X25825Y41843D01*
X23326D01*
X28324D02*
Y36845D01*
X30823D01*
X31656Y37678D01*
Y41010D01*
X30823Y41843D01*
X28324D01*
X0Y79084D02*
X3332D01*
X1666Y80750D02*
Y77418D01*
X4998Y76585D02*
X6664D01*
X5831D01*
Y81583D01*
X4998Y80750D01*
X9164Y76585D02*
Y77418D01*
X9997D01*
Y76585D01*
X9164D01*
X13329Y80750D02*
X14162Y81583D01*
X15828D01*
X16661Y80750D01*
Y77418D01*
X15828Y76585D01*
X14162D01*
X13329Y77418D01*
Y80750D01*
X18327Y81583D02*
Y78251D01*
X19994Y76585D01*
X21660Y78251D01*
Y81583D01*
X23326D02*
Y76585D01*
X25825D01*
X26658Y77418D01*
Y80750D01*
X25825Y81583D01*
X23326D01*
X28324D02*
Y76585D01*
X30823D01*
X31656Y77418D01*
Y80750D01*
X30823Y81583D01*
X28324D01*
X277443Y14652D02*
X275776D01*
X276609D01*
Y10487D01*
X275776Y9653D01*
X274943D01*
X274110Y10487D01*
X279109Y9653D02*
X280775D01*
X279942D01*
Y14652D01*
X279109Y13819D01*
X96419Y14620D02*
X94753D01*
X95586D01*
Y10455D01*
X94753Y9622D01*
X93920D01*
X93087Y10455D01*
X101417Y9622D02*
X98085D01*
X101417Y12954D01*
Y13787D01*
X100584Y14620D01*
X98918D01*
X98085Y13787D01*
X285332Y281498D02*
X283666D01*
X284499D01*
Y277333D01*
X283666Y276500D01*
X282833D01*
X282000Y277333D01*
X286998Y280665D02*
X287831Y281498D01*
X289498D01*
X290331Y280665D01*
Y279832D01*
X289498Y278999D01*
X288665D01*
X289498D01*
X290331Y278166D01*
Y277333D01*
X289498Y276500D01*
X287831D01*
X286998Y277333D01*
X96732Y281698D02*
X95066D01*
X95899D01*
Y277533D01*
X95066Y276700D01*
X94233D01*
X93400Y277533D01*
X100898Y276700D02*
Y281698D01*
X98398Y279199D01*
X101731D01*
X235989Y72089D02*
X240987D01*
X239321Y70423D01*
X240987Y68757D01*
X235989D01*
X240154Y63758D02*
X240987Y64591D01*
Y66258D01*
X240154Y67091D01*
X236822D01*
X235989Y66258D01*
Y64591D01*
X236822Y63758D01*
X235989Y62092D02*
Y60426D01*
Y61259D01*
X240987D01*
X240154Y62092D01*
X236089Y230489D02*
X241087D01*
X239421Y228823D01*
X241087Y227157D01*
X236089D01*
X240254Y222158D02*
X241087Y222991D01*
Y224658D01*
X240254Y225491D01*
X236922D01*
X236089Y224658D01*
Y222991D01*
X236922Y222158D01*
X236089Y217160D02*
Y220492D01*
X239421Y217160D01*
X240254D01*
X241087Y217993D01*
Y219659D01*
X240254Y220492D01*
X426800Y66299D02*
X430132D01*
X428466Y67965D02*
Y64633D01*
X435131Y68798D02*
X431798D01*
Y66299D01*
X433464Y67132D01*
X434298D01*
X435131Y66299D01*
Y64633D01*
X434298Y63800D01*
X432631D01*
X431798Y64633D01*
X441795Y68798D02*
Y65466D01*
X443461Y63800D01*
X445127Y65466D01*
Y68798D01*
X446794D02*
Y63800D01*
X449293D01*
X450126Y64633D01*
Y67965D01*
X449293Y68798D01*
X446794D01*
X455124Y67965D02*
X454291Y68798D01*
X452625D01*
X451792Y67965D01*
Y64633D01*
X452625Y63800D01*
X454291D01*
X455124Y64633D01*
X5865Y165557D02*
X4199D01*
X5032D01*
Y161391D01*
X4199Y160558D01*
X3366D01*
X2533Y161391D01*
X7531Y165557D02*
X10864D01*
X9198D01*
Y160558D01*
X12530D02*
Y163891D01*
X14196Y165557D01*
X15862Y163891D01*
Y160558D01*
Y163057D01*
X12530D01*
X20861Y164724D02*
X20027Y165557D01*
X18361D01*
X17528Y164724D01*
Y161391D01*
X18361Y160558D01*
X20027D01*
X20861Y161391D01*
Y163057D01*
X19194D01*
X27525Y165557D02*
Y162224D01*
X29191Y160558D01*
X30857Y162224D01*
Y165557D01*
X32523Y160558D02*
Y165557D01*
X35023D01*
X35856Y164724D01*
Y163057D01*
X35023Y162224D01*
X32523D01*
X34190D02*
X35856Y160558D01*
X40854Y165557D02*
X37522D01*
Y160558D01*
X40854D01*
X37522Y163057D02*
X39188D01*
X45852Y165557D02*
X42520D01*
Y163057D01*
X44186D01*
X42520D01*
Y160558D01*
X-3367Y121224D02*
X-2534Y122057D01*
X-868D01*
X-35Y121224D01*
Y120390D01*
X-868Y119557D01*
X-1701D01*
X-868D01*
X-35Y118724D01*
Y117891D01*
X-868Y117058D01*
X-2534D01*
X-3367Y117891D01*
X1631Y117058D02*
Y117891D01*
X2465D01*
Y117058D01*
X1631D01*
X5797Y121224D02*
X6630Y122057D01*
X8296D01*
X9129Y121224D01*
Y120390D01*
X8296Y119557D01*
X7463D01*
X8296D01*
X9129Y118724D01*
Y117891D01*
X8296Y117058D01*
X6630D01*
X5797Y117891D01*
X10795Y122057D02*
Y118724D01*
X12461Y117058D01*
X14127Y118724D01*
Y122057D01*
X-2567Y127058D02*
X-901D01*
X-1734D01*
Y132057D01*
X-2567Y131224D01*
X1598Y127058D02*
Y127891D01*
X2431D01*
Y127058D01*
X1598D01*
X5764Y131224D02*
X6597Y132057D01*
X8263D01*
X9096Y131224D01*
Y130391D01*
X8263Y129558D01*
X9096Y128724D01*
Y127891D01*
X8263Y127058D01*
X6597D01*
X5764Y127891D01*
Y128724D01*
X6597Y129558D01*
X5764Y130391D01*
Y131224D01*
X6597Y129558D02*
X8263D01*
X10762Y132057D02*
Y128724D01*
X12428Y127058D01*
X14094Y128724D01*
Y132057D01*
X-2222Y203320D02*
X-3888Y202487D01*
X-5554Y200821D01*
Y199155D01*
X-4721Y198322D01*
X-3055D01*
X-2222Y199155D01*
Y199988D01*
X-3055Y200821D01*
X-5554D01*
X-556Y201654D02*
X277D01*
Y200821D01*
X-556D01*
Y201654D01*
Y199155D02*
X277D01*
Y198322D01*
X-556D01*
Y199155D01*
X3609Y203320D02*
X6942D01*
X5275D01*
Y198322D01*
X11940Y202487D02*
X11107Y203320D01*
X9441D01*
X8608Y202487D01*
Y199155D01*
X9441Y198322D01*
X11107D01*
X11940Y199155D01*
X13606Y203320D02*
Y198322D01*
Y199988D01*
X16938Y203320D01*
X14439Y200821D01*
X16938Y198322D01*
X-3055Y190322D02*
Y195320D01*
X-5554Y192821D01*
X-2222D01*
X-556Y193654D02*
X277D01*
Y192821D01*
X-556D01*
Y193654D01*
Y191155D02*
X277D01*
Y190322D01*
X-556D01*
Y191155D01*
X3609Y195320D02*
X6942D01*
X5275D01*
Y190322D01*
X8608D02*
Y195320D01*
X10274Y193654D01*
X11940Y195320D01*
Y190322D01*
X16938Y194487D02*
X16105Y195320D01*
X14439D01*
X13606Y194487D01*
Y193654D01*
X14439Y192821D01*
X16105D01*
X16938Y191988D01*
Y191155D01*
X16105Y190322D01*
X14439D01*
X13606Y191155D01*
X-9600Y214237D02*
X-7934D01*
X-8767D01*
Y219235D01*
X-9600Y218402D01*
X-5435D02*
X-4602Y219235D01*
X-2936D01*
X-2102Y218402D01*
Y215070D01*
X-2936Y214237D01*
X-4602D01*
X-5435Y215070D01*
Y218402D01*
X-436Y217569D02*
X397D01*
Y216736D01*
X-436D01*
Y217569D01*
Y215070D02*
X397D01*
Y214237D01*
X-436D01*
Y215070D01*
X3729Y219235D02*
X7061D01*
X5395D01*
Y214237D01*
X8727Y219235D02*
Y214237D01*
X11227D01*
X12060Y215070D01*
Y218402D01*
X11227Y219235D01*
X8727D01*
X13726D02*
X15392D01*
X14559D01*
Y214237D01*
X13726D01*
X15392D01*
X-5554Y210487D02*
X-4721Y211320D01*
X-3055D01*
X-2222Y210487D01*
Y209654D01*
X-3055Y208821D01*
X-2222Y207988D01*
Y207155D01*
X-3055Y206322D01*
X-4721D01*
X-5554Y207155D01*
Y207988D01*
X-4721Y208821D01*
X-5554Y209654D01*
Y210487D01*
X-4721Y208821D02*
X-3055D01*
X-556Y209654D02*
X277D01*
Y208821D01*
X-556D01*
Y209654D01*
Y207155D02*
X277D01*
Y206322D01*
X-556D01*
Y207155D01*
X3609Y211320D02*
X6942D01*
X5275D01*
Y206322D01*
X8608Y211320D02*
Y206322D01*
X11107D01*
X11940Y207155D01*
Y210487D01*
X11107Y211320D01*
X8608D01*
X16105D02*
X14439D01*
X13606Y210487D01*
Y207155D01*
X14439Y206322D01*
X16105D01*
X16938Y207155D01*
Y210487D01*
X16105Y211320D01*
X-5554Y182322D02*
X-8887D01*
X-5554Y185654D01*
Y186487D01*
X-6387Y187320D01*
X-8054D01*
X-8887Y186487D01*
X-3888Y185654D02*
X-3055D01*
Y184821D01*
X-3888D01*
Y185654D01*
Y183155D02*
X-3055D01*
Y182322D01*
X-3888D01*
Y183155D01*
X277Y187320D02*
Y183988D01*
X1943Y182322D01*
X3609Y183988D01*
Y187320D01*
X5275Y185654D02*
Y182322D01*
Y183988D01*
X6109Y184821D01*
X6942Y185654D01*
X7775D01*
X12773Y182322D02*
X11107D01*
X10274Y183155D01*
Y184821D01*
X11107Y185654D01*
X12773D01*
X13606Y184821D01*
Y183988D01*
X10274D01*
X16105Y182322D02*
Y186487D01*
Y184821D01*
X15272D01*
X16938D01*
X16105D01*
Y186487D01*
X16938Y187320D01*
X42598Y214268D02*
Y215934D01*
Y215101D01*
X38433D01*
X37600Y215934D01*
Y216767D01*
X38433Y217600D01*
X42598Y212602D02*
Y209269D01*
Y210935D01*
X37600D01*
Y207603D02*
X40932D01*
X42598Y205937D01*
X40932Y204271D01*
X37600D01*
X40099D01*
Y207603D01*
X41765Y199273D02*
X42598Y200106D01*
Y201772D01*
X41765Y202605D01*
X38433D01*
X37600Y201772D01*
Y200106D01*
X38433Y199273D01*
X40099D01*
Y200939D01*
X424598Y132574D02*
X424955Y131503D01*
X425669Y130789D01*
X426383Y130432D01*
X427812Y130075D01*
X428883D01*
X430311Y130432D01*
X431025Y130789D01*
X431739Y131503D01*
X432096Y132574D01*
Y133288D01*
X431739Y134360D01*
X431025Y135074D01*
X430311Y135431D01*
X428883Y135788D01*
X427812D01*
X426383Y135431D01*
X425669Y135074D01*
X424955Y134360D01*
X424598Y133288D01*
Y132574D01*
X424955Y131860D01*
X425669Y131146D01*
X426383Y130789D01*
X427812Y130432D01*
X428883D01*
X430311Y130789D01*
X431025Y131146D01*
X431739Y131860D01*
X432096Y132574D01*
Y133288D02*
X431739Y134002D01*
X431025Y134717D01*
X430311Y135074D01*
X428883Y135431D01*
X427812D01*
X426383Y135074D01*
X425669Y134717D01*
X424955Y134002D01*
X424598Y133288D01*
X427098Y137895D02*
X434596D01*
X427098Y138252D02*
X434596D01*
X428169D02*
X427455Y138966D01*
X427098Y139680D01*
Y140394D01*
X427455Y141465D01*
X428169Y142179D01*
X429240Y142536D01*
X429954D01*
X431025Y142179D01*
X431739Y141465D01*
X432096Y140394D01*
Y139680D01*
X431739Y138966D01*
X431025Y138252D01*
X427098Y140394D02*
X427455Y141108D01*
X428169Y141822D01*
X429240Y142179D01*
X429954D01*
X431025Y141822D01*
X431739Y141108D01*
X432096Y140394D01*
X427098Y136823D02*
Y138252D01*
X434596Y136823D02*
Y139323D01*
X427812Y144286D02*
X428169D01*
Y143929D01*
X427812D01*
X427455Y144286D01*
X427098Y145000D01*
Y146428D01*
X427455Y147143D01*
X427812Y147500D01*
X428526Y147857D01*
X431025D01*
X431739Y148214D01*
X432096Y148571D01*
X427812Y147500D02*
X431025D01*
X431739Y147857D01*
X432096Y148571D01*
Y148928D01*
X428526Y147500D02*
X428883Y147143D01*
X429240Y145000D01*
X429597Y143929D01*
X430311Y143572D01*
X431025D01*
X431739Y143929D01*
X432096Y145000D01*
Y146071D01*
X431739Y146785D01*
X431025Y147500D01*
X429240Y145000D02*
X429597Y144286D01*
X430311Y143929D01*
X431025D01*
X431739Y144286D01*
X432096Y145000D01*
X424598Y151070D02*
X432096D01*
X424598Y151427D02*
X432096D01*
X424598Y149999D02*
Y151427D01*
X432096Y149999D02*
Y152499D01*
X424598Y161675D02*
X432096D01*
X424598Y162032D02*
X432096D01*
X424598Y166674D02*
X429240Y162032D01*
X427812Y163818D02*
X432096Y166674D01*
X427812Y163461D02*
X432096Y166317D01*
X424598Y160604D02*
Y163103D01*
Y165246D02*
Y167388D01*
X432096Y160604D02*
Y163103D01*
Y165246D02*
Y167388D01*
X429240Y168674D02*
Y172958D01*
X428526D01*
X427812Y172601D01*
X427455Y172244D01*
X427098Y171530D01*
Y170459D01*
X427455Y169388D01*
X428169Y168674D01*
X429240Y168317D01*
X429954D01*
X431025Y168674D01*
X431739Y169388D01*
X432096Y170459D01*
Y171173D01*
X431739Y172244D01*
X431025Y172958D01*
X429240Y172601D02*
X428169D01*
X427455Y172244D01*
X427098Y170459D02*
X427455Y169745D01*
X428169Y169031D01*
X429240Y168674D01*
X429954D01*
X431025Y169031D01*
X431739Y169745D01*
X432096Y170459D01*
X424598Y175172D02*
X432096D01*
X424598Y175529D02*
X432096D01*
X424598Y174101D02*
Y175529D01*
X432096Y174101D02*
Y176601D01*
X424598Y179029D02*
X432096D01*
X424598Y179386D02*
X432096D01*
X424598Y177957D02*
Y179386D01*
X432096Y177957D02*
Y180457D01*
X427098Y182528D02*
X432096Y184670D01*
X427098Y182885D02*
X431382Y184670D01*
X427098Y186813D02*
X432096Y184670D01*
X433525Y183956D01*
X434239Y183242D01*
X434596Y182528D01*
Y182171D01*
X434239Y181814D01*
X433882Y182171D01*
X434239Y182528D01*
X427098Y181814D02*
Y183956D01*
Y185384D02*
Y187527D01*
D25*
X230315Y51575D02*
G03*
X230315Y51575I-984J0D01*
G01*
Y209055D02*
G03*
X230315Y209055I-984J0D01*
G01*
D26*
X428684Y101575D02*
G03*
X428684Y101575I-338J0D01*
G01*
Y114700D02*
G03*
X428684Y114700I-338J0D01*
G01*
Y127825D02*
G03*
X428684Y127825I-338J0D01*
G01*
D27*
X426209Y103019D02*
G03*
X426209Y103019I-412J0D01*
G01*
Y113256D02*
G03*
X426209Y113256I-412J0D01*
G01*
X431309Y116144D02*
G03*
X431309Y116144I-412J0D01*
G01*
Y126381D02*
G03*
X431309Y126381I-412J0D01*
G01*
D28*
X423622Y104856D02*
G03*
X423622Y104856I-600J0D01*
G01*
Y111419D02*
G03*
X423622Y111419I-600J0D01*
G01*
X434271Y117981D02*
G03*
X434271Y117981I-600J0D01*
G01*
Y124544D02*
G03*
X434271Y124544I-600J0D01*
G01*
D29*
X421596Y108137D02*
G03*
X421596Y108137I-750J0D01*
G01*
X436596Y121262D02*
G03*
X436596Y121262I-750J0D01*
G01*
D30*
X17250Y174977D02*
X23550D01*
X17250Y169623D02*
X23550D01*
X63500Y244094D02*
X358268D01*
X62992Y47244D02*
Y244094D01*
X460583Y23433D02*
Y58866D01*
X403496Y23433D02*
X460583D01*
X423850Y58866D02*
X460583D01*
X403496Y23433D02*
Y36819D01*
Y45480D02*
Y58866D01*
X413181D01*
X358268Y47244D02*
Y244094D01*
X62992Y47244D02*
X358268D01*
D31*
X17133Y137958D02*
X47133D01*
X17133Y147958D02*
X47133D01*
X17133Y137958D02*
Y147958D01*
X47133Y137958D02*
Y147958D01*
X35433Y181102D02*
Y236221D01*
X19685Y181102D02*
Y236221D01*
Y181102D02*
X35433D01*
X19685Y236221D02*
X35433D01*
X200787Y-7874D02*
Y7874D01*
X358268Y-7874D02*
Y7874D01*
X200787Y-7874D02*
X358268D01*
X200787Y7874D02*
X358268D01*
X19685D02*
X177165D01*
X19685Y-7874D02*
X177165D01*
Y7874D01*
X19685Y-7874D02*
Y7874D01*
X200787Y283465D02*
Y299213D01*
X358268Y283465D02*
Y299213D01*
X200787Y283465D02*
X358268D01*
X200787Y299213D02*
X358268D01*
X19685D02*
X177165D01*
X19685Y283465D02*
X177165D01*
Y299213D01*
X19685Y283465D02*
Y299213D01*
D32*
X17133Y115058D02*
Y125058D01*
Y115058D02*
X47133D01*
Y125058D01*
X17133Y135058D02*
X47133D01*
Y125058D02*
Y135058D01*
X17133Y125058D02*
X47133D01*
X17133D02*
Y135058D01*
X17799Y233601D02*
Y234600D01*
Y234101D01*
X15300D01*
X14800Y234600D01*
Y235100D01*
X15300Y235600D01*
X17799Y230602D02*
X17299Y231601D01*
X16299Y232601D01*
X15300D01*
X14800Y232101D01*
Y231101D01*
X15300Y230602D01*
X15800D01*
X16299Y231101D01*
Y232601D01*
X8699Y173199D02*
X8200Y173699D01*
X7200D01*
X6700Y173199D01*
Y171200D01*
X7200Y170700D01*
X8200D01*
X8699Y171200D01*
X9699Y170700D02*
X10699D01*
X10199D01*
Y173699D01*
X9699Y173199D01*
X406288Y63788D02*
X405289D01*
X405789D01*
Y61289D01*
X405289Y60789D01*
X404789D01*
X404289Y61289D01*
X409287Y63788D02*
X407288D01*
Y62288D01*
X408288Y62788D01*
X408788D01*
X409287Y62288D01*
Y61289D01*
X408788Y60789D01*
X407788D01*
X407288Y61289D01*
X48633Y144624D02*
X49466Y145457D01*
X51132D01*
X51965Y144624D01*
Y143790D01*
X51132Y142957D01*
X50299D01*
X51132D01*
X51965Y142124D01*
Y141291D01*
X51132Y140458D01*
X49466D01*
X48633Y141291D01*
X14133Y140958D02*
X15799D01*
X14966D01*
Y145957D01*
X14133Y145124D01*
X30200Y178700D02*
Y177716D01*
Y178208D01*
X33152D01*
X32660Y178700D01*
X22100Y177232D02*
Y179200D01*
X24068Y177232D01*
X24560D01*
X25052Y177724D01*
Y178708D01*
X24560Y179200D01*
X362768Y-5400D02*
X360800D01*
X362768Y-3432D01*
Y-2940D01*
X362276Y-2448D01*
X361292D01*
X360800Y-2940D01*
X361400Y2800D02*
X362384D01*
X361892D01*
Y5752D01*
X361400Y5260D01*
X179200Y2800D02*
X180184D01*
X179692D01*
Y5752D01*
X179200Y5260D01*
X180968Y-5300D02*
X179000D01*
X180968Y-3332D01*
Y-2840D01*
X180476Y-2348D01*
X179492D01*
X179000Y-2840D01*
X361768Y286100D02*
X359800D01*
X361768Y288068D01*
Y288560D01*
X361276Y289052D01*
X360292D01*
X359800Y288560D01*
X360000Y294000D02*
X360984D01*
X360492D01*
Y296952D01*
X360000Y296460D01*
X179000Y294100D02*
X179984D01*
X179492D01*
Y297052D01*
X179000Y296560D01*
X181068Y286100D02*
X179100D01*
X181068Y288068D01*
Y288560D01*
X180576Y289052D01*
X179592D01*
X179100Y288560D01*
D33*
X422344Y193319D02*
X426343D01*
Y195318D01*
X425676Y195985D01*
X425010D01*
X424343Y195318D01*
Y193319D01*
Y195318D01*
X423677Y195985D01*
X423010D01*
X422344Y195318D01*
Y193319D01*
X426343Y197318D02*
X422344D01*
Y199317D01*
X423010Y199983D01*
X424343D01*
X425010Y199317D01*
Y197318D01*
Y198651D02*
X426343Y199983D01*
X422344Y201316D02*
X426343D01*
X425010D01*
X422344Y203982D01*
X424343Y201983D01*
X426343Y203982D01*
X422344Y205315D02*
Y207981D01*
X423010D01*
X425676Y205315D01*
X426343D01*
X423010Y209314D02*
X422344Y209980D01*
Y211313D01*
X423010Y211980D01*
X425676D01*
X426343Y211313D01*
Y209980D01*
X425676Y209314D01*
X423010D01*
X426343Y213312D02*
Y214645D01*
Y213979D01*
X422344D01*
X423010Y213312D01*
Y216645D02*
X422344Y217311D01*
Y218644D01*
X423010Y219310D01*
X425676D01*
X426343Y218644D01*
Y217311D01*
X425676Y216645D01*
X423010D01*
X433059Y195985D02*
Y193319D01*
X430393Y195985D01*
X429727D01*
X429060Y195318D01*
Y193985D01*
X429727Y193319D01*
Y197318D02*
X429060Y197984D01*
Y199317D01*
X429727Y199983D01*
X432393D01*
X433059Y199317D01*
Y197984D01*
X432393Y197318D01*
X429727D01*
X433059Y201316D02*
Y202649D01*
Y201983D01*
X429060D01*
X429727Y201316D01*
X429060Y207314D02*
X429727Y205981D01*
X431060Y204649D01*
X432393D01*
X433059Y205315D01*
Y206648D01*
X432393Y207314D01*
X431726D01*
X431060Y206648D01*
Y204649D01*
X433059Y208647D02*
Y209980D01*
Y209314D01*
X429060D01*
X429727Y208647D01*
Y211980D02*
X429060Y212646D01*
Y213979D01*
X429727Y214645D01*
X432393D01*
X433059Y213979D01*
Y212646D01*
X432393Y211980D01*
X429727D01*
Y215978D02*
X429060Y216645D01*
Y217978D01*
X429727Y218644D01*
X432393D01*
X433059Y217978D01*
Y216645D01*
X432393Y215978D01*
X429727D01*
X429060Y222643D02*
Y219977D01*
X431060D01*
X430393Y221310D01*
Y221976D01*
X431060Y222643D01*
X432393D01*
X433059Y221976D01*
Y220643D01*
X432393Y219977D01*
D34*
X30100Y242400D02*
Y241416D01*
Y241908D01*
X33052D01*
X32560Y242400D01*
Y239940D02*
X33052Y239448D01*
Y238464D01*
X32560Y237972D01*
X32068D01*
X31576Y238464D01*
Y238956D01*
Y238464D01*
X31084Y237972D01*
X30592D01*
X30100Y238464D01*
Y239448D01*
X30592Y239940D01*
X22000Y242400D02*
Y241416D01*
Y241908D01*
X24952D01*
X24460Y242400D01*
X22000Y238464D02*
X24952D01*
X23476Y239940D01*
Y237972D01*
X195576Y-5300D02*
Y-2348D01*
X194100Y-3824D01*
X196068D01*
X197052Y-2840D02*
X197544Y-2348D01*
X198528D01*
X199020Y-2840D01*
Y-4808D01*
X198528Y-5300D01*
X197544D01*
X197052Y-4808D01*
Y-2840D01*
X193900Y4760D02*
X194392Y5252D01*
X195376D01*
X195868Y4760D01*
Y4268D01*
X195376Y3776D01*
X194884D01*
X195376D01*
X195868Y3284D01*
Y2792D01*
X195376Y2300D01*
X194392D01*
X193900Y2792D01*
X196852D02*
X197344Y2300D01*
X198328D01*
X198820Y2792D01*
Y4760D01*
X198328Y5252D01*
X197344D01*
X196852Y4760D01*
Y4268D01*
X197344Y3776D01*
X198820D01*
X13200Y5160D02*
X13692Y5652D01*
X14676D01*
X15168Y5160D01*
Y4668D01*
X14676Y4176D01*
X14184D01*
X14676D01*
X15168Y3684D01*
Y3192D01*
X14676Y2700D01*
X13692D01*
X13200Y3192D01*
X16152D02*
X16644Y2700D01*
X17628D01*
X18120Y3192D01*
Y5160D01*
X17628Y5652D01*
X16644D01*
X16152Y5160D01*
Y4668D01*
X16644Y4176D01*
X18120D01*
X14876Y-5300D02*
Y-2348D01*
X13400Y-3824D01*
X15368D01*
X16352Y-2840D02*
X16844Y-2348D01*
X17828D01*
X18320Y-2840D01*
Y-4808D01*
X17828Y-5300D01*
X16844D01*
X16352Y-4808D01*
Y-2840D01*
X195776Y286000D02*
Y288952D01*
X194300Y287476D01*
X196268D01*
X197252Y288460D02*
X197744Y288952D01*
X198728D01*
X199220Y288460D01*
Y286492D01*
X198728Y286000D01*
X197744D01*
X197252Y286492D01*
Y288460D01*
X194400Y296360D02*
X194892Y296852D01*
X195876D01*
X196368Y296360D01*
Y295868D01*
X195876Y295376D01*
X195384D01*
X195876D01*
X196368Y294884D01*
Y294392D01*
X195876Y293900D01*
X194892D01*
X194400Y294392D01*
X197352D02*
X197844Y293900D01*
X198828D01*
X199320Y294392D01*
Y296360D01*
X198828Y296852D01*
X197844D01*
X197352Y296360D01*
Y295868D01*
X197844Y295376D01*
X199320D01*
X13100Y296360D02*
X13592Y296852D01*
X14576D01*
X15068Y296360D01*
Y295868D01*
X14576Y295376D01*
X14084D01*
X14576D01*
X15068Y294884D01*
Y294392D01*
X14576Y293900D01*
X13592D01*
X13100Y294392D01*
X16052D02*
X16544Y293900D01*
X17528D01*
X18020Y294392D01*
Y296360D01*
X17528Y296852D01*
X16544D01*
X16052Y296360D01*
Y295868D01*
X16544Y295376D01*
X18020D01*
X14576Y286200D02*
Y289152D01*
X13100Y287676D01*
X15068D01*
X16052Y288660D02*
X16544Y289152D01*
X17528D01*
X18020Y288660D01*
Y286692D01*
X17528Y286200D01*
X16544D01*
X16052Y286692D01*
Y288660D01*
D35*
X37283Y120058D02*
D03*
X26883Y130058D02*
D03*
M02*
